<?xml version="1.0" standalone="no"?> <!DOCTYPE svg PUBLIC "-//W3C//DTD SVG 1.0//EN" "http://www.w3.org/TR/2001/REC-SVG-20010904/DTD/svg10.dtd" > <svg xmlns="http://www.w3.org/2000/svg" width="100%" height="100%">
<defs >
<font id="freighttextlight" horiz-adv-x="388" ><font-face
    font-family="FreightText"
    units-per-em="1000"
    panose-1="2 0 6 3 5 0 0 2 0 4"
    ascent="699"
    descent="-246"
    alphabetic="0" />
<missing-glyph horiz-adv-x="500" />
<glyph unicode=" " glyph-name="space" horiz-adv-x="160" />
<glyph unicode="!" glyph-name="exclam" horiz-adv-x="274" d="M148 201Q147 195 138 195T127 201L101 616Q100 624 102 631T116 639H160Q171 639 173 632T175 616L148 201ZM187 36Q187 16 174 1T138 -14Q115 -14 101 1T86 36Q86 54 100 68T138 83Q161 83 174 69T187 36Z" />
<glyph unicode="&quot;" glyph-name="quotedbl" horiz-adv-x="320" d="M192 403H169L269 648H270L329 627L192 403ZM48 403H25L125 648H126L185 627L48 403Z" />
<glyph unicode="#" glyph-name="numbersign" horiz-adv-x="551" d="M430 410L377 211H510V183H369L318 -6H289L340 183H155L105 -6H76L126 183H-5V211H134L187 410H56V439H195L248 631H277L225 439H409L461 631H490L438 439H571V410H430ZM401 410H218L163 211H347L401
410Z" />
<glyph unicode="$" glyph-name="dollar" horiz-adv-x="469" d="M120 -165H89L131 -9Q108 -5 89 0T53 12L43 179H68L114 42Q119 40 126 37T142 32L215 303Q177 318 147 333T96 367T64 412T52 472Q52 509 66 539T106 591T170 625T252 637Q267 637 279 637T302 635Q303
635 307 651T316 687L330 739H361Q353 710 347 686Q342 666 338 649T332 632Q338 631 342 631T352 629L405 644V453H378L343 576Q339 578 334 581T320 586L255 341Q297 326 329 311T383 275T416 229T427 165Q427 125 412 92T368 35T299 -2T211 -15Q197 -15 185
-15T161 -13L120 -165ZM291 593Q259 601 227 601Q164 601 130 569T96 492Q96 462 106 440T135 402T176 374T226 351L291 593ZM171 26Q186 24 201 23T233 21Q267 21 294 30T340 56T369 95T380 143Q380 178 370 202T340 243T297 272T243 294L171 26Z" />
<glyph unicode="%" glyph-name="percent" horiz-adv-x="746" d="M349 482Q349 449 338 419T305 367T253 331T183 317Q145 317 114 330T62 366T29 419T17 482Q17 516 28 546T61 599T114 635T183 649Q222 649 252 636T304 600T337 547T349 482ZM139 -15H93L609 639H654L139
-15ZM729 142Q729 108 718 78T685 25T632 -11T563 -25Q524 -25 494 -12T442 24T409 77T397 142Q397 175 408 205T441 257T493 293T563 307Q601 307 632 294T684 258T717 205T729 142ZM308 482Q308 509 300 532T275 574T236 602T183 612Q154 612 131 602T91 574T67
533T58 482Q58 457 66 434T91 393T130 365T183 354Q212 354 235 364T275 393T299 434T308 482ZM688 142Q688 167 680 190T655 231T616 259T563 270Q534 270 511 260T471 231T447 190T438 142Q438 115 446 92T471 50T510 22T563 12Q592 12 615 22T655 50T679 91T688
142Z" />
<glyph unicode="&amp;" glyph-name="ampersand" horiz-adv-x="678" d="M674 42Q654 20 629 3T569 -15Q533 -15 496 18T420 132Q398 104 375 77T325 30T269 -2T202 -15Q164 -15 133 -2T79 34T44 87T31 152Q31 183 44 213T78 268T129 312T190 340Q173 349 156 362T124
393T100 433T91 482Q91 509 101 536T133 585T185 621T259 635Q291 635 316 625T360 596T389 553T399 499Q399 453 363 411T267 348Q288 341 312 324T360 284T403 239T434 196L532 331Q534 333 533 335T529 338L459 347L456 378H645L642 347L586 340Q584 340 579
333Q543 289 515 254Q503 239 492 225T471 199T457 181T451 173Q487 102 516 65T576 27Q599 27 620 40T659 66L674 42V42ZM350 495Q350 544 320 574T243 604Q220 604 201 595T169 571T148 537T140 497Q140 447 164 414T238 359Q292 379 321 412T350 495ZM401 158Q360
228 317 267T218 327Q154 305 120 261T85 167Q85 141 94 117T120 73T163 43T223 31Q247 31 270 41T315 68T359 108T401 158Z" />
<glyph unicode="&apos;" glyph-name="quotesingle" horiz-adv-x="176" d="M48 403H25L125 648H126L185 627L48 403Z" />
<glyph unicode="(" glyph-name="parenleft" horiz-adv-x="395" d="M357 -249Q317 -229 272 -189T187 -90T122 44T96 209Q96 299 122 374T187 507T271 606T357 667Q363 659 367 652Q376 638 376 634Q339 615 297 576T221 483T163 359T140 209Q140 129 163 60T220
-64T297 -157T376 -215Q376 -220 367 -234Q363 -241 357 -249Z" />
<glyph unicode=")" glyph-name="parenright" horiz-adv-x="395" d="M39 -249Q33 -241 29 -234Q25 -228 22 -223T19 -216Q57 -197 98 -158T174 -65T232 59T255 209Q255 289 232 358T175 482T99 576T19 634Q19 636 22 641T29 652Q33 659 39 667Q78 647 123 607T208
508T273 374T299 209Q299 119 273 44T208 -89T124 -188T39 -249Z" />
<glyph unicode="*" glyph-name="asterisk" horiz-adv-x="344" d="M278 443L196 467L186 454L232 385L231 321L210 316L174 369L173 451L158 455L106 395L46 374L32 393L74 446L149 469V485L74 510L31 561L43 579L106 560L158 495L174 500L179 583L212 635L234
628L235 564L186 495L196 482L278 504L336 485V463L278 443Z" />
<glyph unicode="+" glyph-name="plus" horiz-adv-x="480" d="M263 213V27H218V213H35L38 256H218V441H263V256H442L445 213H263Z" />
<glyph unicode="," glyph-name="comma" horiz-adv-x="212" d="M172 18Q172 -11 161 -38T131 -88T89 -131T43 -167L30 -151Q67 -122 89 -91T111 -16Q111 4 101 17T80 39T58 51T48 56Q48 73 58 87T94 102Q129 102 150 78T172 18Z" />
<glyph unicode="-" glyph-name="hyphen" horiz-adv-x="328" d="M37 212L40 257H290L293 212H37Z" />
<glyph unicode="." glyph-name="period" horiz-adv-x="214" d="M157 36Q157 16 144 1T107 -14Q84 -14 71 1T57 36Q57 55 70 69T107 84Q130 84 143 70T157 36Z" />
<glyph unicode="/" glyph-name="slash" horiz-adv-x="279" d="M225 660H265L52 -209H12L225 660Z" />
<glyph unicode="0" glyph-name="zero" horiz-adv-x="563" d="M518 238Q518 183 501 137T452 57T376 4T280 -15Q228 -15 185 3T110 55T62 135T45 236Q45 291 62 336T111 414T186 465T282 483Q334 483 377 466T452 416T500 338T518 238ZM475 236Q475 281 461 319T421
384T359 427T280 443Q237 443 202 428T141 386T102 321T88 238Q88 193 102 154T141 87T203 42T282 25Q325 25 360 41T421 85T461 152T475 236Z" />
<glyph unicode="1" glyph-name="one" horiz-adv-x="337" d="M63 0L66 31L153 39Q155 40 156 40T158 45V435L36 433L39 459L203 483V45Q203 41 204 41T208 39L292 31L295 0H63Z" />
<glyph unicode="2" glyph-name="two" horiz-adv-x="460" d="M415 0H40L36 39Q98 88 148 128T235 203T291 271T311 338Q311 355 304 373T282 405T248 429T201 439Q157 439 123 418T61 357L45 371Q70 422 114 452T219 483Q248 483 275 473T322 446T354 403T366 348Q366
309 346 275T290 206T204 133T91 49V44H178Q248 44 288 45T348 53T376 70T387 101L403 161H430L415 0Z" />
<glyph unicode="3" glyph-name="three" horiz-adv-x="408" d="M197 168Q238 169 271 159T329 130T366 82T379 21Q379 -20 358 -60T301 -131T216 -182T114 -202Q86 -202 67 -197T35 -182T18 -163T13 -141Q13 -119 26 -109T56 -99Q81 -99 94 -118T111 -163Q128 -166
145 -166Q179 -166 211 -153T268 -116T308 -63T323 3Q323 57 290 91T187 126Q167 126 142 121T93 105L84 127Q131 158 168 183T231 232T271 282T285 339Q285 356 278 374T257 408T223 433T176 443Q132 443 99 422T39 361L19 375Q31 400 51 420T95 454T145 475T197
483Q227 483 253 474T299 447T330 406T341 354Q341 323 330 298T300 251T254 210T197 170V168Z" />
<glyph unicode="4" glyph-name="four" horiz-adv-x="434" d="M339 31V-184H292V31H15L13 67L314 480H339V72H447L440 31H339ZM292 395H291L56 72H292V395Z" />
<glyph unicode="5" glyph-name="five" horiz-adv-x="405" d="M104 258Q239 219 299 161T360 23Q360 -18 342 -58T290 -131T211 -182T111 -202Q66 -202 40 -185T13 -141Q13 -119 26 -109T56 -99Q81 -99 94 -118T111 -164Q119 -166 125 -166T141 -167Q173 -167 203
-153T257 -114T295 -58T310 8Q310 87 244 137T59 219L125 474H375V418H143L104 258V258Z" />
<glyph unicode="6" glyph-name="six" horiz-adv-x="474" d="M443 188Q443 143 427 106T384 42T319 0T239 -15Q195 -15 158 3T94 53T52 128T37 222Q37 297 67 369T152 500T282 599T449 651L465 630Q397 618 339 590T234 519T154 423T101 305L106 303Q135 334 177
354T262 375Q304 375 337 360T394 319T430 260T443 188ZM389 166Q389 207 377 238T344 290T297 323T242 334Q199 334 163 318T102 281Q99 272 96 253T93 213Q93 174 104 138T137 75T187 31T253 14Q283 14 308 25T351 57T379 106T389 166Z" />
<glyph unicode="7" glyph-name="seven" horiz-adv-x="449" d="M133 -186H88L388 415V420H154Q135 420 122 418T101 412T88 400T80 381Q77 367 73 356Q70 346 67 336T62 321H32L51 474H433L438 440L133 -186Z" />
<glyph unicode="8" glyph-name="eight" horiz-adv-x="461" d="M420 161Q420 80 368 33T217 -14Q180 -14 148 -1T92 34T55 85T41 146Q41 178 53 203T84 249T128 285T179 314V315Q153 327 130 342T90 376T62 418T52 469Q52 501 64 531T101 584T159 620T239 634Q274
634 305 622T359 590T396 543T410 486Q410 456 401 431T375 385T337 348T290 318V317Q317 305 340 290T382 257T410 215T420 161ZM357 468Q357 496 347 521T320 564T278 594T223 605Q195 605 172 596T133 570T108 532T99 486Q99 458 112 436T148 395T201 360T268
328Q308 357 332 390T357 468ZM374 146Q374 177 360 200T322 241T267 273T203 303Q182 290 163 276T128 244T104 205T94 160Q94 130 104 104T133 58T180 27T245 15Q307 15 340 52T374 146Z" />
<glyph unicode="9" glyph-name="nine" horiz-adv-x="474" d="M437 246Q437 171 407 99T322 -32T192 -131T25 -183L9 -162Q77 -150 135 -122T240 -51T320 45T373 163L368 165Q339 134 297 114T212 93Q170 93 137 108T80 149T44 209T31 280Q31 325 47 362T90 426T155
468T235 483Q279 483 316 465T380 415T422 340T437 246ZM381 255Q381 294 370 330T337 393T287 437T221 454Q191 454 166 443T123 411T95 362T85 302Q85 262 97 231T130 178T177 145T232 134Q275 134 311 150T372 187Q375 196 378 215T381 255Z" />
<glyph unicode=":" glyph-name="colon" horiz-adv-x="213" d="M157 356Q157 336 144 321T107 306Q84 306 71 321T57 356Q57 375 70 389T107 404Q130 404 143 390T157 356ZM157 36Q157 16 144 1T107 -14Q84 -14 71 1T57 36Q57 55 70 69T107 84Q130 84 143 70T157 36Z" />
<glyph unicode=";" glyph-name="semicolon" horiz-adv-x="213" d="M157 356Q157 336 144 321T107 306Q84 306 71 321T57 356Q57 375 70 389T107 404Q130 404 143 390T157 356ZM172 18Q172 -11 161 -38T131 -88T89 -131T43 -167L30 -151Q67 -122 89 -91T111 -16Q111
4 101 17T80 39T58 51T48 56Q48 73 58 87T94 102Q129 102 150 78T172 18Z" />
<glyph unicode="&lt;" glyph-name="less" horiz-adv-x="480" d="M32 225V245L427 431L438 392L112 240V231L438 78L427 39L32 225Z" />
<glyph unicode="=" glyph-name="equal" horiz-adv-x="480" d="M48 299L45 344H435L432 299H48ZM45 125L48 170H432L435 125H45Z" />
<glyph unicode="&gt;" glyph-name="greater" horiz-adv-x="480" d="M53 39L42 78L368 231V240L42 392L53 431L448 245V225L53 39Z" />
<glyph unicode="?" glyph-name="question" horiz-adv-x="343" d="M297 484Q297 455 289 435T266 401T233 378T197 360Q180 353 165 346T137 329T118 306T110 274Q110 247 131 222T178 179H147Q136 188 124 199T100 225T82 256T74 293Q74 319 83 337T109 370T144
394T183 414Q200 422 215 429T242 445T261 464T268 489Q268 525 227 551T111 577Q96 577 83 576T62 572Q60 575 59 583T58 597Q58 615 75 627T118 639Q160 639 193 625T249 589T284 539T297 484ZM194 36Q194 16 181 1T145 -14Q122 -14 108 1T93 36Q93 54 107 68T145
83Q168 83 181 69T194 36Z" />
<glyph unicode="@" glyph-name="at" horiz-adv-x="834" d="M535 313H525Q503 270 477 224T423 140T369 78T319 53Q300 53 282 61T250 84T228 119T220 162Q220 192 230 228T257 301T295 371T341 429Q356 444 377 452T418 461Q441 461 459 453T492 431T516 400T534
367H543L575 455H609L554 290L524 77Q530 74 539 71Q547 69 557 67T582 64Q625 64 659 86T717 142T753 220T766 306Q766 376 739 432T665 528T557 589T430 611Q355 611 290 582T176 502T99 386T71 248Q71 176 95 113T164 3T270 -71T406 -98Q435 -98 465 -93T528
-76L535 -103Q500 -114 468 -120T399 -126Q321 -126 255 -98T141 -20T67 97T40 242Q40 323 70 395T154 521T280 606T435 638Q506 638 571 615T687 549T768 446T798 310Q798 264 784 215T742 127T674 62T580 36Q561 36 543 39T510 48T488 60T481 70L535 313ZM514
345Q508 358 498 373T476 401T448 424T417 433Q383 433 358 408Q342 392 325 362T294 298T271 230T262 172Q262 147 268 131T284 104T305 90T327 85Q341 85 361 104T406 156T456 233T509 328L514 345V345Z" />
<glyph unicode="A" glyph-name="A" horiz-adv-x="589" d="M383 0L386 31L462 37Q470 37 468 44L405 229H166L103 45Q101 38 106 38L179 31L182 0H-16L-13 31L54 38Q58 38 61 45L255 594V617L322 637L524 46Q526 39 533 38L602 31L605 0H383ZM290 576H285L179 267H392L290
576Z" />
<glyph unicode="B" glyph-name="B" horiz-adv-x="567" d="M517 171Q517 86 457 43T281 0H44L47 31L124 39Q126 40 127 40T129 45V580Q129 585 124 586L47 594L44 625H283Q343 625 384 614T451 583T488 538T500 486Q500 457 490 431T462 383T417 346T360 324V321Q431
310 474 271T517 171ZM448 467Q448 529 405 560T268 592H182V336L288 337Q324 337 353 348T404 377T436 418T448 467ZM465 166Q465 201 451 227T411 270T351 296T275 305H182V42L281 31L322 34Q353 36 379 45T425 71T454 111T465 166Z" />
<glyph unicode="C" glyph-name="C" horiz-adv-x="623" d="M562 -2L528 9Q514 5 494 1T453 -6T409 -12T367 -14Q298 -14 240 8T138 72T70 170T45 297Q45 372 69 435T137 543T241 613T374 639Q417 639 450 635T515 623L583 640V443H551L528 577Q510 585 472 596T365
607Q308 607 260 585T177 524T121 429T101 309Q101 246 119 193T173 101T259 40T372 18Q423 18 458 28T515 47L555 178H589L562 -2Z" />
<glyph unicode="D" glyph-name="D" horiz-adv-x="659" d="M614 318Q614 257 592 200T526 98T414 27T255 0H44L47 31L124 39Q126 40 127 40T129 45V580Q129 585 124 586L47 594L44 625L249 627Q339 628 407 605T521 541T590 443T614 318ZM557 303Q557 369 537 422T476
514T376 574T238 595H182V42L282 32Q346 35 397 57T483 115T538 199T557 303Z" />
<glyph unicode="E" glyph-name="E" horiz-adv-x="559" d="M501 0H44L47 31L125 39Q129 40 129 45V580Q129 585 125 586L47 594L44 625H500V456H467L449 565Q447 574 442 579T415 588T349 592T226 593H182V336H246Q284 336 304 336T335 338T348 342T352 350L374
416H398L379 223H355L349 288Q349 293 347 296T335 300T304 303T245 304H182V32H205Q295 32 345 33T419 37T449 45T457 60L483 167H519L501 0Z" />
<glyph unicode="F" glyph-name="F" horiz-adv-x="542" d="M467 456L449 565Q447 574 442 579T415 588T349 592T226 593H182V330H246Q284 330 304 330T335 332T348 336T352 344L374 410H398L379 217H355L349 282Q349 287 347 290T335 294T304 297T245 298H182V45Q182
41 183 41T187 39L284 31L287 0H44L47 31L124 39Q126 40 127 40T129 45V580Q129 585 125 586L47 594L44 625H500V456H467Z" />
<glyph unicode="G" glyph-name="G" horiz-adv-x="690" d="M652 241L578 233Q576 232 575 232T573 227V56L625 53L628 28Q562 8 496 -3T372 -14Q302 -14 242 8T138 72T70 170T45 297Q45 372 69 435T136 543T240 613T373 639Q416 639 449 635T514 623L582 640V443H550L527
577Q509 585 471 596T364 607Q307 607 259 585T176 524T121 429T101 309Q101 246 120 193T174 101T261 40T377 18Q420 18 457 26T521 44V227Q521 233 516 233L425 241L422 272H655L652 241Z" />
<glyph unicode="H" glyph-name="H" horiz-adv-x="723" d="M456 0L459 31L536 39Q538 40 539 40T541 45V303H182V45Q182 41 183 41T187 39L264 31L267 0H44L47 31L124 39Q126 40 127 40T129 45V580Q129 585 124 586L47 594L44 625H267L264 594L187 586Q185 585
184 585T182 580V341H541V580Q541 585 536 586L459 594L456 625H679L676 594L599 586Q597 585 596 585T594 580V45Q594 41 595 41T599 39L676 31L679 0H456Z" />
<glyph unicode="I" glyph-name="I" horiz-adv-x="331" d="M44 0L47 31L134 39Q136 40 137 40T139 45V580Q139 585 134 586L47 594L44 625H287L284 594L197 586Q195 585 194 585T192 580V45Q192 41 193 41T197 39L284 31L287 0H44Z" />
<glyph unicode="J" glyph-name="J" horiz-adv-x="350" d="M320 594L243 586Q241 585 240 585T238 580V210Q238 161 228 120T197 48T145 2T73 -15Q34 -15 13 0T-9 41Q-9 60 1 70T27 80Q49 80 65 64Q83 46 91 17H92Q143 28 164 74T185 207V580Q185 585 180 586L93
594L90 625H323L320 594Z" />
<glyph unicode="K" glyph-name="K" horiz-adv-x="620" d="M420 0L424 31L475 37Q477 37 478 40T478 45L270 320L182 230V45Q182 41 183 41T187 39L264 31L267 0H44L47 31L124 39Q126 40 127 40T129 45V580Q129 585 124 586L47 594L44 625H267L264 594L187 586Q185
585 184 585T182 580V281L470 582Q471 583 471 584T470 586L398 594L395 625H601L598 594L537 587Q530 585 524 579L303 354L544 45Q548 39 556 38L608 31L611 0H420Z" />
<glyph unicode="L" glyph-name="L" horiz-adv-x="543" d="M484 0H44L47 31L125 39Q129 40 129 45V580Q129 585 125 586L47 594L44 625H277L274 594L187 586Q185 585 184 585T182 580V34H194Q284 34 333 35T405 38T434 46T442 60L472 196H506L484 0Z" />
<glyph unicode="M" glyph-name="M" horiz-adv-x="819" d="M569 0L572 31L658 33Q660 31 661 36T662 45L643 584H636L418 20H390L183 569H176L149 45Q149 39 153 39L238 31L241 0H6L11 31L103 39Q109 39 109 45L135 570Q135 573 135 576T131 582L33 594L30 625H214L407
109H413L608 625H789L788 594L701 591Q699 592 699 588T698 579L714 45Q714 42 716 37T720 33L798 31L801 0H569Z" />
<glyph unicode="N" glyph-name="N" horiz-adv-x="700" d="M697 594L607 586Q602 586 602 580V-5H561L173 570H169V45Q169 41 170 41T174 39L261 31L264 0H31L34 31L124 39Q126 40 127 40T129 45V573Q129 578 124 579L45 594L42 625H195L561 87H562V580Q562 586
557 586L470 594L467 625H700L697 594Z" />
<glyph unicode="O" glyph-name="O" horiz-adv-x="724" d="M679 316Q679 250 657 191T593 86T493 13T360 -14Q293 -14 236 9T136 74T69 175T45 308Q45 374 67 434T131 539T232 612T365 639Q431 639 488 616T588 551T655 450T679 316ZM622 305Q622 378 600 434T542
528T458 586T360 606Q309 606 263 587T181 530T124 440T103 319Q103 246 125 190T183 95T266 38T364 18Q415 18 462 37T544 94T601 184T622 305Z" />
<glyph unicode="P" glyph-name="P" horiz-adv-x="530" d="M507 446Q507 404 489 369T440 309T366 270T273 256Q249 256 226 257T182 261V45Q182 39 187 39L284 31L287 0H44L47 31L124 39Q129 39 129 45V580Q129 586 125 586L47 594L44 625H252Q318 625 366 612T445
574T492 518T507 446ZM451 439Q451 515 398 555T245 592L182 590V295Q202 291 227 288T275 285Q361 285 406 326T451 439Z" />
<glyph unicode="Q" glyph-name="Q" horiz-adv-x="724" d="M721 -167Q695 -172 663 -176T600 -181Q561 -181 527 -173T464 -145T409 -93T359 -14Q293 -14 236 9T137 74T70 175T45 308Q45 374 67 434T131 539T232 612T365 639Q431 639 488 616T588 551T655 450T679
316Q679 257 661 203T608 106T526 32T419 -9Q443 -54 471 -82T534 -125T614 -141T719 -136Q719 -137 719 -141T720 -152Q721 -159 721 -167ZM622 305Q622 378 600 434T542 528T458 586T360 606Q309 606 263 587T181 530T124 440T103 319Q103 246 125 190T183 95T266
38T364 18Q415 18 462 37T544 94T601 184T622 305Z" />
<glyph unicode="R" glyph-name="R" horiz-adv-x="559" d="M437 457Q437 525 394 560T255 592L182 590V313Q182 312 200 311T241 307Q267 305 300 303Q360 314 398 352T437 457ZM487 45Q490 41 496 39L559 31L562 0H448L408 69L282 273H232Q213 273 198 273T182
275V45Q182 41 183 41T187 39L264 31L267 0H44L47 31L124 39Q126 40 127 40T129 45V580Q129 585 124 586L47 594L44 625H294Q345 625 382 614T445 582T482 533T494 473Q494 400 451 353T333 282L487 45Z" />
<glyph unicode="S" glyph-name="S" horiz-adv-x="474" d="M442 163Q442 123 426 91T381 35T313 -2T225 -15Q180 -15 133 -9T55 6L38 179H72L109 39Q120 35 135 31T167 24T200 20T232 18Q309 18 352 55T396 148Q396 174 389 194T363 231T312 264T232 298Q189 313
156 329T99 366T64 412T52 472Q52 510 66 541T107 593T170 627T253 639Q290 639 319 636T363 629L416 644V453H382L361 580Q343 591 309 599T243 607Q207 607 180 597T135 571T107 533T98 487Q98 459 108 438T138 400T190 369T263 339Q307 323 340 307T396 271T430
225T442 163Z" />
<glyph unicode="T" glyph-name="T" horiz-adv-x="597" d="M529 441L511 565Q510 574 506 579T487 588T438 592T343 593H325V45Q325 41 326 41T330 39L417 31L420 0H177L180 31L267 39Q269 40 270 40T272 45V593H252Q191 593 159 592T111 588T92 580T87 565L61
443H27L45 625H561V441H529Z" />
<glyph unicode="U" glyph-name="U" horiz-adv-x="705" d="M675 594L586 586Q581 586 581 580V214Q581 159 565 117T518 45T444 1T347 -15Q295 -15 253 -3T179 38T131 113T114 229V580Q114 586 109 586L32 594L29 625H252L249 594L172 586Q167 586 167 580V211Q167
157 182 121T223 63T285 32T359 23Q408 23 442 38T499 78T531 137T541 207V580Q541 586 536 586L449 594L446 625H678L675 594Z" />
<glyph unicode="V" glyph-name="V" horiz-adv-x="585" d="M598 594L531 587Q527 587 524 580L325 -4H273L65 579Q63 586 56 587L-13 594L-16 625H204L201 594L125 588Q118 586 119 581L303 50H307L479 578Q481 585 476 585L406 594L403 625H601L598 594Z" />
<glyph unicode="W" glyph-name="W" horiz-adv-x="901" d="M908 594L841 587Q837 587 834 580L660 -4H608L453 452H452L302 -4H247L67 579Q65 586 59 587L-9 594L-12 625H208L205 594L130 588Q127 588 125 586T123 581L281 50H282L432 509L411 579Q409 586 402
587L332 594L329 625H549L546 594L469 588Q461 588 463 581L638 50H639L789 578Q791 585 786 585L709 594L706 625H911L908 594Z" />
<glyph unicode="X" glyph-name="X" horiz-adv-x="597" d="M386 0L388 31L459 37Q463 37 464 40T463 46L295 294H294L127 47Q125 45 126 43T130 40L202 31L206 0H-3L-1 31L65 38Q72 39 76 45L270 319L86 579Q82 585 74 587L12 594L8 625H224L222 594L150 588Q146
588 145 585T146 579L302 351H303L457 580Q459 582 458 584T454 587L380 594L376 625H585L583 594L518 587Q511 586 507 580L326 325L526 46Q530 40 538 38L601 31L605 0H386Z" />
<glyph unicode="Y" glyph-name="Y" horiz-adv-x="597" d="M595 594L529 587Q522 586 518 580L325 267V45Q325 41 326 41T330 39L417 31L420 0H177L180 31L267 39Q269 40 270 40T272 45V265L73 579Q69 585 61 587L-1 594L-4 625H210L207 594L136 588Q127 588 132
579L300 299H305L475 580Q477 582 476 584T472 587L400 594L397 625H598L595 594Z" />
<glyph unicode="Z" glyph-name="Z" horiz-adv-x="517" d="M480 0H19V28L424 592V593H315Q236 593 192 592T126 588T99 580T92 565L74 456H41V625H489V595L86 33V32H184Q274 32 324 33T398 37T429 45T438 60L466 184H501L480 0Z" />
<glyph unicode="[" glyph-name="bracketleft" horiz-adv-x="368" d="M98 -215V650H344V614H141V-179H344V-215H98Z" />
<glyph unicode="\" glyph-name="backslash" horiz-adv-x="279" d="M226 -209L13 660H53L266 -209H226Z" />
<glyph unicode="]" glyph-name="bracketright" horiz-adv-x="368" d="M24 -179H227V614H24V650H270V-215H24V-179Z" />
<glyph unicode="^" glyph-name="asciicircum" horiz-adv-x="400" d="M311 505Q280 549 256 583Q246 598 236 612T219 637T206 654T201 661H199L89 505H63L184 712H216L337 505H311Z" />
<glyph unicode="_" glyph-name="underscore" horiz-adv-x="470" d="M-5 -49L-2 -4H472L475 -49H-5Z" />
<glyph unicode="`" glyph-name="grave" horiz-adv-x="399" d="M230 505L72 682H150L251 505H230Z" />
<glyph unicode="a" glyph-name="a" horiz-adv-x="440" d="M437 39Q393 -14 355 -14Q344 -14 333 -10T314 3T302 26T301 62H297Q265 30 234 8T169 -15Q143 -15 120 -7T80 16T53 52T43 98Q43 131 57 156T102 202T185 243T309 283V292Q312 364 285 393T196 423Q178
423 162 420T133 411T113 401T106 390Q106 386 112 378T119 353Q119 339 108 328T80 317Q65 317 53 325T41 354Q41 371 56 389T95 423T151 447T213 457Q249 457 276 449T322 422T349 370T356 287L347 49Q346 34 351 29T367 23Q377 23 391 33T420 59L437 39V39ZM307
253Q255 238 215 224T148 193T107 155T93 105Q93 67 116 47T177 26Q195 26 211 32T242 49T271 73T301 99L307 253Z" />
<glyph unicode="b" glyph-name="b" horiz-adv-x="508" d="M468 232Q468 176 450 131T402 53T330 3T240 -15Q208 -15 182 -8T132 11H127L91 -21H80V636Q80 643 75 643L-18 651L-15 676L127 697V393H130Q150 414 188 435T280 457Q318 457 352 441T412 396T453 325T468
232ZM417 223Q417 265 406 301T375 363T325 403T261 418Q219 418 186 400T127 357V61Q155 41 182 30T245 18Q284 18 316 33T370 76T405 140T417 223Z" />
<glyph unicode="c" glyph-name="c" horiz-adv-x="446" d="M414 97Q389 46 343 18T240 -11Q198 -11 162 4T98 48T54 118T38 211Q38 263 55 308T103 386T175 438T263 457Q295 457 321 450T367 431T397 404T408 371Q408 350 397 338T369 325Q344 325 332 345T339
402V404Q328 412 306 419T256 426Q220 426 190 410T138 366T103 301T90 222Q90 181 102 146T135 85T186 44T252 29Q337 29 394 111L414 97V97Z" />
<glyph unicode="d" glyph-name="d" horiz-adv-x="529" d="M513 3L381 -14V49H378Q358 28 320 7T228 -15Q190 -15 156 1T96 46T55 117T40 210Q40 266 58 312T106 390T178 439T268 457Q300 457 326 450T376 431H381V640Q381 647 376 647L283 658L286 679L428 697V42Q428
37 428 34T433 30L516 24L513 3ZM381 381Q353 401 326 412T263 424Q224 424 192 409T138 366T103 302T91 219Q91 177 102 141T133 79T183 39T247 24Q289 24 322 42T381 85V381Z" />
<glyph unicode="e" glyph-name="e" horiz-adv-x="449" d="M414 97Q389 46 343 18T240 -11Q198 -11 162 4T98 48T54 118T38 211Q38 263 56 308T104 386T175 438T260 457Q329 457 369 419T409 323Q409 308 408 295T405 273L94 277Q92 266 91 250T90 222Q90 181 102
146T135 85T186 44T252 29Q337 29 394 111L414 97V97ZM356 306Q359 360 332 393T249 427Q227 427 205 418T162 392T126 352T101 300L356 306V306Z" />
<glyph unicode="f" glyph-name="f" horiz-adv-x="292" d="M370 644Q370 631 362 620T337 609Q317 609 304 623T285 662L284 667L267 669Q210 657 179 604T147 459V437H289L282 400H147V43Q147 37 151 37L244 31L247 0H20L23 31L96 37Q100 37 100 43V400L12 404L19
437H94L96 471Q98 516 113 557T154 629T215 678T293 697Q322 697 346 684T370 644Z" />
<glyph unicode="g" glyph-name="g" horiz-adv-x="432" d="M331 405L330 402Q347 383 357 358T367 299Q367 268 354 240T317 190T263 156T195 143Q182 143 169 143T149 146Q142 143 133 137T115 124T100 106T94 84Q94 64 110 52T154 40H267Q307 40 335 31T381 5T407
-32T415 -76Q415 -114 398 -145T350 -199T279 -234T193 -247Q107 -247 59 -212T10 -124Q10 -102 18 -83T39 -49T67 -23T96 -3V-1Q74 4 58 21T42 65Q42 79 49 92T68 118T93 139T120 155V156Q82 171 56 208T29 294Q29 327 42 357T78 409T132 445T201 458Q228 458
253 452T295 438L431 436V386L331 405ZM314 301Q314 372 275 405Q244 430 200 430Q172 430 150 420T113 392T90 351T82 300Q82 261 95 233T131 190Q159 170 198 170Q219 170 236 176T267 192Q290 209 302 237T314 301ZM369 -94Q369 -54 344 -31T256 -5Q246 -5 244
-5T239 -5T234 -5T221 -6T191 -6T134 -7Q122 -12 109 -21T83 -44T64 -75T56 -112Q56 -139 69 -158T104 -190T153 -208T209 -214Q242 -214 271 -205T321 -179T356 -141T369 -94Z" />
<glyph unicode="h" glyph-name="h" horiz-adv-x="520" d="M300 0L303 31L376 37Q380 37 380 43V282Q380 320 372 345T350 386T317 407T275 414Q256 414 237 408T199 391T165 369T137 344V224V43Q137 37 141 37L214 31L217 0H15L18 31L86 37Q90 37 90 43V629Q90
639 87 641T79 644L2 651L5 676L137 697V382H142Q183 415 220 436T302 457Q327 457 350 449T392 422Q409 405 418 377T427 314V43Q427 37 431 37L499 31L502 0H300Z" />
<glyph unicode="i" glyph-name="i" horiz-adv-x="253" d="M160 606Q160 586 148 571T115 556Q95 556 84 570T72 604Q72 624 84 639T117 654Q137 654 148 640T160 606ZM24 0L27 31L100 37Q104 37 104 43V389Q104 399 101 401T93 404L16 411L19 436L151 457V43Q151
37 155 37L228 31L231 0H24Z" />
<glyph unicode="j" glyph-name="j" horiz-adv-x="242" d="M157 606Q157 586 145 571T112 556Q92 556 81 570T69 604Q69 624 81 639T114 654Q134 654 145 640T157 606ZM148 -53Q147 -98 140 -136T116 -201T74 -245T12 -261Q-13 -261 -35 -248T-57 -204Q-57 -188
-47 -177T-19 -165Q1 -165 12 -182T25 -229Q45 -226 59 -216T83 -187T96 -137T101 -64V389Q101 399 98 401T90 404L13 411L16 436L148 457V-53V-53Z" />
<glyph unicode="k" glyph-name="k" horiz-adv-x="468" d="M362 0L314 72L195 231L137 180V43Q137 37 141 37L214 31L217 0H15L18 31L86 37Q90 37 90 43V629Q90 639 87 641T79 644L2 651L5 676L137 697V218L332 400L333 402L332 404L258 412L255 442H447L444 411L393
404Q388 404 384 400L226 258L392 43Q394 41 396 39T402 36L454 31L457 0H362Z" />
<glyph unicode="l" glyph-name="l" horiz-adv-x="257" d="M21 0L24 31L97 37Q101 37 101 43V629Q101 639 98 641T90 644L3 651L6 676L148 697V43Q148 37 152 37L225 31L228 0H21Z" />
<glyph unicode="m" glyph-name="m" horiz-adv-x="800" d="M577 0L580 31L648 37Q652 37 652 43V292Q652 327 645 351T626 389T596 409T559 415Q540 415 520 409T483 393T450 372T424 350V220V43Q424 37 428 37L506 31L509 0H302L305 31L373 37Q377 37 377 43V292Q377
327 370 351T351 389T321 409T284 415Q265 415 245 409T208 393T175 372T149 350V220V43Q149 37 153 37L231 31L234 0H27L30 31L98 37Q102 37 102 43V389Q102 399 99 401T91 404L14 411L17 436L149 457V381H154Q189 413 228 435T308 458Q331 458 352 451T388 428Q409
407 418 375H420Q455 409 497 433T578 458Q630 458 666 422Q681 407 690 380T699 320V43Q699 37 703 37L771 31L774 0H577Z" />
<glyph unicode="n" glyph-name="n" horiz-adv-x="530" d="M312 0L315 31L388 37Q392 37 392 43V282Q392 320 384 345T362 386T329 407T287 414Q268 414 249 408T211 391T177 369T149 344V224V43Q149 37 153 37L226 31L229 0H27L30 31L98 37Q102 37 102 43V396Q102
403 97 403L14 411L17 436L149 457V382H154Q195 415 232 436T314 457Q339 457 362 449T404 422Q421 405 430 377T439 314V43Q439 37 443 37L516 31L519 0H312Z" />
<glyph unicode="o" glyph-name="o" horiz-adv-x="518" d="M480 224Q480 170 463 126T416 51T346 2T259 -15Q213 -15 174 1T105 48T59 122T42 218Q42 272 59 316T106 391T176 440T263 457Q309 457 348 441T417 394T463 320T480 224ZM430 222Q430 270 417 309T376
376Q353 399 325 411T261 424Q224 424 193 408T139 365T105 300T92 220Q92 120 149 63Q170 42 198 30T261 18Q299 18 330 34T383 77T417 142T430 222Z" />
<glyph unicode="p" glyph-name="p" horiz-adv-x="521" d="M481 232Q481 176 463 131T415 53T343 3T253 -15Q221 -15 195 -8T145 11H140V-203Q140 -209 144 -209L227 -215L230 -246H13L16 -215L89 -209Q93 -209 93 -203V396Q93 403 88 403L5 411L8 436L140 457V393H143Q163
414 201 435T293 457Q331 457 365 441T425 396T466 325T481 232ZM430 223Q430 265 419 301T388 363T338 403T274 418Q232 418 199 400T140 357V61Q168 41 195 30T258 18Q297 18 329 33T383 76T418 140T430 223Z" />
<glyph unicode="q" glyph-name="q" horiz-adv-x="513" d="M291 -246L294 -215L377 -209Q381 -209 381 -203V49H378Q358 28 320 7T228 -15Q190 -15 156 1T96 46T55 117T40 210Q40 266 58 312T106 390T178 439T268 457Q300 457 326 450T376 431H381L417 458H428V-203Q428
-209 432 -209L505 -215L508 -246H291ZM381 381Q353 401 326 412T263 424Q224 424 192 409T138 366T103 302T91 219Q91 177 102 141T133 79T183 39T247 24Q289 24 322 42T381 85V381Z" />
<glyph unicode="r" glyph-name="r" horiz-adv-x="336" d="M337 419Q337 404 327 393T302 381Q288 381 277 389T263 410Q249 402 232 386T200 351T171 313T149 278V43Q149 37 153 37L236 31L239 0H27L30 31L98 37Q102 37 102 43V396Q102 403 97 403L19 411L22 436L149
457V321H151Q176 364 196 391T234 433T265 455T292 461Q315 461 326 447T337 419Z" />
<glyph unicode="s" glyph-name="s" horiz-adv-x="392" d="M345 121Q345 96 335 72T305 28T252 -3T174 -15Q145 -15 113 -10T54 5L48 129H82L99 36Q118 25 137 20T184 14Q238 14 271 40T304 109Q304 132 295 147T269 173T231 192T187 207Q162 215 138 224T95 248T65
284T53 336Q53 387 92 422T202 458Q227 458 248 454T290 445L320 449L332 314H298L281 407Q244 429 192 429Q145 429 120 406T94 349Q94 327 104 312T130 286T168 268T212 252Q237 244 261 234T303 210T333 174T345 121Z" />
<glyph unicode="t" glyph-name="t" horiz-adv-x="312" d="M289 23Q272 10 243 -2T185 -15Q129 -15 105 11T81 89L84 400L8 403L11 429L84 441L91 524L131 522L130 437H288L281 400H130Q129 315 128 249Q128 221 128 194T127 146T126 112T126 98Q125 60 140 42T193
24Q216 24 238 32T281 51L289 23V23Z" />
<glyph unicode="u" glyph-name="u" horiz-adv-x="520" d="M512 3L380 -15V61H375Q334 28 297 7T215 -14Q190 -14 167 -6T125 21Q108 38 99 66T90 129L91 400Q91 406 87 406L14 412L11 443H139L137 161Q137 123 145 98T167 57T200 36T242 29Q262 29 281 35T319
52T352 74T380 99V219V400Q380 406 376 406L303 412L300 443H427V42Q427 37 427 34T432 30L515 24L512 3Z" />
<glyph unicode="v" glyph-name="v" horiz-adv-x="440" d="M455 412L404 405Q400 405 397 398L248 -4H198L50 397Q48 404 41 405L-8 412L-11 443H160L157 412L101 406Q94 404 95 399L229 39L358 396Q360 403 355 403L292 412L289 443H458L455 412Z" />
<glyph unicode="w" glyph-name="w" horiz-adv-x="675" d="M685 412L632 405Q628 405 625 398L496 -4H445L341 290L229 -4H178L49 397Q47 404 40 405L-10 412L-13 443H160L157 412L102 406Q95 404 96 399L210 39L322 338L301 397Q299 404 292 405L242 412L239 443H414L411
412L355 406Q348 404 349 399L476 39L585 396Q587 403 582 403L527 412L524 443H688L685 412Z" />
<glyph unicode="x" glyph-name="x" horiz-adv-x="466" d="M293 0L296 31L346 37Q351 38 347 44L231 201H230L110 47Q107 42 113 40L162 31L165 0H4L7 31L51 38Q57 38 62 45L209 222L68 397Q66 399 63 401T54 405L8 412L5 443H176L173 412L123 406Q118 405 122
399L236 247H237L353 396Q356 401 350 403L301 412L298 443H459L456 412L410 405Q406 405 401 398L258 226L402 46Q404 44 407 42T416 38L462 31L465 0H293Z" />
<glyph unicode="y" glyph-name="y" horiz-adv-x="436" d="M212 -30V-29V-30ZM50 397Q48 404 41 405L-8 412L-11 443H161L158 412L105 406Q97 406 99 399L234 34L356 396Q358 403 353 403L293 412L290 443H454L451 412L401 405Q397 405 394 398L258 11L215 -139Q197
-203 169 -234T96 -265Q70 -265 53 -252T35 -218Q35 -199 46 -187T77 -175Q115 -175 128 -223Q144 -216 159 -189T186 -119L212 -30L50 397Z" />
<glyph unicode="z" glyph-name="z" horiz-adv-x="411" d="M81 30H129Q195 30 233 30T292 33T319 41T329 55L371 163H401L361 0H22V24L323 413H277Q211 413 172 412T113 409T88 401T81 388L70 277H40V443H382V419L81 30Z" />
<glyph unicode="{" glyph-name="braceleft" horiz-adv-x="326" d="M298 -228Q209 -223 165 -185T121 -81Q121 -49 128 -25T145 21T162 64T170 112Q170 134 159 148T129 172T86 187T38 193L28 218L38 242Q62 243 86 247T128 261T158 286T170 323Q170 349 163 370T146
414T129 460T121 517Q121 583 165 620T298 664V637Q238 631 207 603T175 540Q175 514 182 493T199 449T216 402T224 345Q224 320 212 299T181 261T140 235T96 222V212Q117 209 139 199T181 172T212 135T224 89Q224 58 217 34T200 -13T183 -56T175 -103Q175 -138
206 -167T298 -203V-228V-228Z" />
<glyph unicode="|" glyph-name="bar" horiz-adv-x="278" d="M119 685H159V-184H119V685Z" />
<glyph unicode="}" glyph-name="braceright" horiz-adv-x="326" d="M288 193Q264 192 240 187T198 173T168 149T156 112Q156 86 163 65T180 22T197 -24T205 -81Q205 -147 161 -185T28 -228V-203Q88 -197 119 -168T151 -103Q151 -78 144 -57T127 -13T110 33T102
89Q102 114 114 135T145 172T186 198T230 212V222Q209 224 187 234T145 261T114 298T102 345Q102 377 109 402T126 449T143 492T151 540Q151 575 120 603T28 637V664Q117 658 161 621T205 517Q205 485 198 461T181 414T164 371T156 323Q156 301 167 286T197 262T240
248T288 242L298 218L288 193Z" />
<glyph unicode="~" glyph-name="asciitilde" horiz-adv-x="400" d="M356 270Q337 166 267 166Q247 166 228 177T191 201T158 226T130 237Q120 237 112 235T97 225T84 205T69 171H44Q63 275 133 275Q153 275 172 264T210 240T243 215T270 204Q280 204 288 206T303
216T316 236T330 270H356V270Z" />
</font>
</defs>
</svg>
