<?xml version="1.0" encoding="utf-8"?>
<!-- Generator: Adobe Illustrator 16.0.1, SVG Export Plug-In . SVG Version: 6.00 Build 0)  -->
<!DOCTYPE svg PUBLIC "-//W3C//DTD SVG 1.1//EN" "http://www.w3.org/Graphics/SVG/1.1/DTD/svg11.dtd">
<svg version="1.1" id="Layer_1" xmlns="http://www.w3.org/2000/svg" xmlns:xlink="http://www.w3.org/1999/xlink" x="0px" y="0px"
	 viewBox="0 0 656.977 926.721" enable-background="new 0 0 656.977 926.721"
	 xml:space="preserve">
<g opacity="0.05">
	<path fill="#4D646B" d="M316.921,0.225c-5.394,0.187-10.753,0.5-16.077,0.944L1.168,300.844
		c-0.444,5.323-0.757,10.684-0.944,16.076L316.921,0.225z"/>
	<path fill="#4D646B" d="M259.967,7.179c-6.762,1.435-13.447,3.071-20.049,4.916L12.094,239.918
		c-1.844,6.601-3.48,13.287-4.915,20.048L259.967,7.179z"/>
	<path fill="#4D646B" d="M289.875,2.271c-5.945,0.696-11.844,1.544-17.688,2.554L4.825,272.188
		c-1.01,5.844-1.858,11.742-2.554,17.688L289.875,2.271z"/>
	<path fill="#4D646B" d="M463.294,28.852c-3.499-1.577-7.039-3.076-10.602-4.532L24.32,452.693
		c1.456,3.562,2.956,7.103,4.532,10.601L463.294,28.852z"/>
	<path fill="#4D646B" d="M445.621,21.524c-3.673-1.402-7.37-2.755-11.105-4.028l-417.02,417.02
		c1.273,3.734,2.626,7.432,4.028,11.104L445.621,21.524z"/>
	<path fill="#4D646B" d="M427.081,15.064c-3.87-1.216-7.776-2.35-11.707-3.426L11.638,415.374c1.076,3.931,2.209,7.838,3.426,11.708
		L427.081,15.064z"/>
	<path fill="#4D646B" d="M225.729,16.417c-8.19,2.696-16.243,5.694-24.135,9.002L25.419,201.593
		c-3.309,7.892-6.307,15.945-9.002,24.136L225.729,16.417z"/>
	<path fill="#4D646B" d="M386.954,5.191c-4.328-0.777-8.692-1.449-13.078-2.055L3.136,373.876c0.606,4.385,1.278,8.749,2.055,13.077
		L386.954,5.191z"/>
	<path fill="#4D646B" d="M407.545,9.601c-4.08-1.008-8.184-1.957-12.322-2.811L6.79,395.222c0.854,4.139,1.803,8.242,2.811,12.323
		L407.545,9.601z"/>
	<path fill="#4D646B" d="M365.104,2.042c-4.602-0.51-9.23-0.927-13.888-1.246L0.796,351.215c0.318,4.657,0.735,9.286,1.246,13.888
		L365.104,2.042z"/>
	<path fill="#4D646B" d="M642.73,424.415c2.078-6.815,3.946-13.722,5.585-20.718L403.697,648.315
		c6.996-1.639,13.902-3.507,20.718-5.585L642.73,424.415z"/>
	<path fill="#4D646B" d="M656.544,345.468L345.469,656.543c7.48-0.381,14.889-1.033,22.229-1.906l-2.595-2.595l290.198-290.198
		C655.848,356.423,656.265,350.963,656.544,345.468z"/>
	<path fill="#4D646B" d="M650.978,391.167c1.156-5.981,2.151-12.019,2.978-18.11L373.058,653.955
		c6.092-0.826,12.129-1.821,18.11-2.978L650.978,391.167z"/>
	<path fill="#4D646B" d="M627.51,464.635c3.788-8.307,7.231-16.803,10.331-25.464L439.172,637.84
		c8.661-3.1,17.157-6.543,25.464-10.331L627.51,464.635z"/>
	<path fill="#4D646B" d="M558.253,93.759L93.76,558.252c2.495,2.55,5.021,5.068,7.598,7.536l464.431-464.432
		C563.321,98.78,560.802,96.255,558.253,93.759z"/>
	<path fill="#4D646B" d="M590.404,526.741c10.157-13.398,19.316-27.593,27.353-42.485L484.256,617.756
		c14.893-8.036,29.087-17.195,42.485-27.353L590.404,526.741z"/>
	<path fill="#4D646B" d="M328.488,0c-0.5,0-0.996,0.017-1.495,0.019L0.019,326.994C0.017,327.493,0,327.988,0,328.488
		c0,4.479,0.115,8.93,0.293,13.365l341.56-341.56C337.418,0.115,332.967,0,328.488,0z"/>
	<path fill="#4D646B" d="M183.447,33.699C171.179,39.747,159.345,46.537,148,54.013L54.013,148
		c-7.476,11.345-14.267,23.179-20.314,35.448L183.447,33.699z"/>
	<path fill="#4D646B" d="M290.104,652.042l364.353-364.353c-0.549-4.433-1.2-8.833-1.924-13.209L274.48,652.532
		c6.164,1.02,12.383,1.875,18.658,2.547L290.104,652.042z"/>
	<path fill="#4D646B" d="M480.112,37.034c-3.33-1.736-6.688-3.425-10.085-5.049L31.984,470.028
		c1.624,3.396,3.313,6.754,5.049,10.084L480.112,37.034z"/>
	<path fill="#4D646B" d="M640.771,226.375c-1.235-3.778-2.519-7.533-3.885-11.249L215.127,636.885
		c3.716,1.366,7.471,2.649,11.249,3.885L640.771,226.375z"/>
	<path fill="#4D646B" d="M634.167,207.979c-1.418-3.594-2.918-7.146-4.458-10.676L197.304,629.708
		c3.53,1.54,7.082,3.04,10.675,4.458L634.167,207.979z"/>
	<path fill="#4D646B" d="M618.333,173.812c-1.751-3.274-3.549-6.52-5.406-9.727l-448.841,448.84
		c3.207,1.857,6.452,3.655,9.727,5.406L618.333,173.812z"/>
	<path fill="#4D646B" d="M340.104,652.042l316.787-316.788c0.046-2.251,0.086-4.504,0.086-6.767c0-2.791-0.036-5.572-0.105-8.347
		L320.142,656.871c2.774,0.069,5.556,0.105,8.347,0.105c5.416,0,10.798-0.14,16.149-0.398L340.104,652.042z"/>
	<path fill="#4D646B" d="M646.447,245.699c-1.031-3.969-2.148-7.902-3.322-11.812L233.888,643.125
		c3.909,1.174,7.843,2.291,11.812,3.322L646.447,245.699z"/>
	<path fill="#4D646B" d="M609.255,157.891c-1.902-3.125-3.872-6.204-5.875-9.259L148.632,603.38
		c3.055,2.003,6.133,3.972,9.258,5.874L609.255,157.891z"/>
	<path fill="#4D646B" d="M315.104,652.042L656.49,310.655c-0.252-4.719-0.61-9.409-1.061-14.072L296.583,655.429
		c7.708,0.743,15.488,1.235,23.343,1.437L315.104,652.042z"/>
	<path fill="#4D646B" d="M651.035,266.11c-0.806-4.192-1.675-8.361-2.638-12.495L253.615,648.397
		c4.134,0.964,8.303,1.832,12.495,2.638L651.035,266.11z"/>
	<path fill="#4D646B" d="M626.648,190.497c-1.59-3.431-3.23-6.833-4.935-10.198L180.299,621.713
		c3.365,1.704,6.768,3.345,10.198,4.935L626.648,190.497z"/>
	<path fill="#4D646B" d="M511.483,55.662c-3.026-2.034-6.097-4.006-9.193-5.94L49.722,502.291c1.935,3.096,3.907,6.166,5.94,9.192
		L511.483,55.662z"/>
	<path fill="#4D646B" d="M526.08,66.065c-2.882-2.173-5.802-4.298-8.756-6.377L59.688,517.324c2.08,2.955,4.204,5.875,6.377,8.756
		L526.08,66.065z"/>
	<path fill="#4D646B" d="M539.982,77.163c-2.741-2.309-5.509-4.588-8.325-6.808L70.355,531.657c2.22,2.816,4.499,5.585,6.808,8.326
		L539.982,77.163z"/>
	<path fill="#4D646B" d="M496.161,45.984c-3.174-1.888-6.379-3.729-9.62-5.512L40.472,486.541c1.783,3.242,3.624,6.447,5.512,9.621
		L496.161,45.984z"/>
	<path fill="#4D646B" d="M553.217,88.929c-2.604-2.443-5.247-4.845-7.93-7.204L81.725,545.288c2.359,2.683,4.761,5.325,7.204,7.929
		L553.217,88.929z"/>
	<path fill="#4D646B" d="M588.888,128.258c-2.191-2.846-4.414-5.667-6.695-8.438L119.82,582.192
		c2.771,2.281,5.592,4.504,8.438,6.696L588.888,128.258z"/>
	<path fill="#4D646B" d="M577.678,114.468c-2.33-2.71-4.705-5.38-7.121-8.012L106.456,570.557c2.632,2.415,5.302,4.79,8.012,7.12
		L577.678,114.468z"/>
	<path fill="#4D646B" d="M599.419,142.726c-2.049-2.983-4.146-5.932-6.29-8.843L133.884,593.128
		c2.911,2.145,5.859,4.241,8.843,6.291L599.419,142.726z"/>
</g>
<g>
	<path stroke="#FFFFFF" stroke-miterlimit="10" d="M-664.062,62.7c-0.071,5.511-0.455,10.945-1.149,16.283l160.984-160.985
		c-2.049-2.983-4.146-5.932-6.29-8.843L-664.062,62.7z"/>
	<path stroke="#FFFFFF" stroke-miterlimit="10" d="M-659.658,158.295c3.056,1.262,5.921,3.122,8.402,5.604l0.563,0.563
		L-469.479-16.75c-1.418-3.594-2.918-7.146-4.458-10.676L-659.658,158.295z"/>
	<path stroke="#FFFFFF" stroke-miterlimit="10" d="M-665.704,39.341c0.699,4.498,1.18,9.067,1.438,13.696l149.508-149.508
		c-2.191-2.846-4.414-5.667-6.695-8.438L-665.704,39.341z"/>
	<path stroke="#FFFFFF" stroke-miterlimit="10" d="M-798.27-78.093c4.716,0.161,9.372,0.556,13.958,1.176l126.286-126.287
		c-3.673-1.402-7.37-2.755-11.105-4.028L-798.27-78.093z"/>
	<path stroke="#FFFFFF" stroke-miterlimit="10" d="M-667.307,90.944c-1.665,7.553-3.942,14.876-6.78,21.913l179.695-179.695
		c-1.902-3.125-3.872-6.204-5.875-9.259L-667.307,90.944z"/>
	<path stroke="#FFFFFF" stroke-miterlimit="10" d="M-670.438,19.076c1.231,3.914,2.289,7.903,3.176,11.958l141.294-141.294
		c-2.33-2.71-4.705-5.38-7.121-8.012L-670.438,19.076z"/>
	<path stroke="#FFFFFF" stroke-miterlimit="10" d="M-683.932,132.569c-3.053,5.063-6.415,9.921-10.068,14.537l5.331,5.333
		l203.355-203.355c-1.751-3.274-3.549-6.52-5.406-9.727L-683.932,132.569z"/>
	<path stroke="#FFFFFF" stroke-miterlimit="10" d="M-683.736,157.374l1.988,1.988c4.377-2.333,9.285-3.312,14.112-2.955
		l190.638-190.639c-1.59-3.431-3.23-6.833-4.935-10.198L-683.736,157.374z"/>
	<path stroke="#FFFFFF" stroke-miterlimit="10" d="M-738.874-62.489c3.285,1.714,6.492,3.555,9.617,5.517l121.771-121.772
		c-3.174-1.888-6.379-3.729-9.62-5.512L-738.874-62.489z"/>
	<path stroke="#FFFFFF" stroke-miterlimit="10" d="M-756.269-70.094c3.662,1.31,7.256,2.764,10.769,4.365l121.966-121.966
		c-3.33-1.736-6.688-3.425-10.085-5.049L-756.269-70.094z"/>
	<path stroke="#FFFFFF" stroke-miterlimit="10" d="M-775.853-75.51c4.116,0.818,8.166,1.819,12.141,2.992l123.359-123.359
		c-3.499-1.577-7.039-3.076-10.602-4.532L-775.853-75.51z"/>
	<path stroke="#FFFFFF" stroke-miterlimit="10" d="M-709.444-41.918c2.637,2.404,5.178,4.912,7.623,7.51l124.255-124.255
		c-2.882-2.173-5.802-4.298-8.756-6.377L-709.444-41.918z"/>
	<path stroke="#FFFFFF" stroke-miterlimit="10" d="M-697.162-29.201c2.327,2.734,4.55,5.56,6.662,8.471l126.836-126.835
		c-2.741-2.309-5.509-4.588-8.325-6.808L-697.162-29.201z"/>
	<path stroke="#FFFFFF" stroke-miterlimit="10" d="M-686.479-14.885c2.004,3.079,3.896,6.237,5.656,9.478L-550.43-135.8
		c-2.604-2.443-5.247-4.845-7.93-7.204L-686.479-14.885z"/>
	<path stroke="#FFFFFF" stroke-miterlimit="10" d="M-723.327-53.036c2.951,2.07,5.822,4.247,8.599,6.535l122.565-122.565
		c-3.026-2.034-6.097-4.006-9.193-5.94L-723.327-53.036z"/>
	<path stroke="#FFFFFF" stroke-miterlimit="10" d="M-738.543-222.687c-4.602-0.51-9.231-0.927-13.888-1.246l-350.419,350.419
		c0.318,4.657,0.735,9.286,1.246,13.888L-738.543-222.687z"/>
	<path stroke="#FFFFFF" stroke-miterlimit="10" d="M-843.68-217.55c-6.762,1.435-13.448,3.071-20.049,4.916L-1091.553,15.19
		c-1.844,6.601-3.48,13.287-4.915,20.048L-843.68-217.55z"/>
	<path stroke="#FFFFFF" stroke-miterlimit="10" d="M-645.76,169.397l7.566,7.567L-462.876,1.647
		c-1.235-3.778-2.519-7.533-3.885-11.249L-645.76,169.397z"/>
	<path stroke="#FFFFFF" stroke-miterlimit="10" d="M-877.917-208.312c-8.191,2.696-16.244,5.694-24.136,9.002l-176.174,176.174
		c-3.309,7.892-6.307,15.945-9.002,24.136L-877.917-208.312z"/>
	<path stroke="#FFFFFF" stroke-miterlimit="10" d="M-786.726-224.504c-5.393,0.187-10.753,0.5-16.077,0.944l-299.675,299.676
		c-0.444,5.323-0.757,10.684-0.944,16.076L-786.726-224.504z"/>
	<path stroke="#FFFFFF" stroke-miterlimit="10" d="M-920.2-191.03c-12.268,6.048-24.102,12.838-35.447,20.314l-93.987,93.987
		c-7.476,11.345-14.267,23.179-20.314,35.448L-920.2-191.03z"/>
	<path stroke="#FFFFFF" stroke-miterlimit="10" d="M-862.846,186.483l-147.041,147.041c2.495,2.55,5.021,5.068,7.598,7.536
		l150.058-150.058C-855.843,189.638-859.385,188.132-862.846,186.483z"/>
	<path stroke="#FFFFFF" stroke-miterlimit="10" d="M-775.158-224.729c-0.5,0-0.996,0.017-1.495,0.019l-326.974,326.975
		c-0.002,0.499-0.019,0.994-0.019,1.494c0,4.479,0.115,8.93,0.293,13.365l341.56-341.56
		C-766.229-224.613-770.68-224.729-775.158-224.729z"/>
	<path stroke="#FFFFFF" stroke-miterlimit="10" d="M-813.771-222.458c-5.945,0.696-11.844,1.544-17.688,2.554l-267.363,267.363
		c-1.01,5.844-1.858,11.742-2.554,17.688L-813.771-222.458z"/>
	<path stroke="#FFFFFF" stroke-miterlimit="10" d="M-824.877-76.486c5.478-0.861,11.062-1.397,16.733-1.6l131.579-131.579
		c-3.87-1.216-7.776-2.35-11.707-3.426L-824.877-76.486z"/>
	<path stroke="#FFFFFF" stroke-miterlimit="10" d="M-449.19,62.961c-0.549-4.433-1.2-8.833-1.924-13.209l-157.149,157.149
		l7.566,7.567L-449.19,62.961z"/>
	<path stroke="#FFFFFF" stroke-miterlimit="10" d="M-633.261,181.898l7.566,7.567L-457.199,20.97
		c-1.031-3.969-2.148-7.902-3.322-11.812L-633.261,181.898z"/>
	<path stroke="#FFFFFF" stroke-miterlimit="10" d="M-620.762,194.399l7.565,7.567l160.585-160.585
		c-0.806-4.192-1.675-8.361-2.638-12.495L-620.762,194.399z"/>
	<path stroke="#FFFFFF" stroke-miterlimit="10" d="M-916.278-19.952c8.928-12.479,19.867-23.418,32.345-32.346l167.24-167.24
		c-4.328-0.777-8.692-1.449-13.078-2.055l-370.74,370.74c0.606,4.385,1.278,8.749,2.055,13.077L-916.278-19.952z"/>
	<path stroke="#FFFFFF" stroke-miterlimit="10" d="M-672.979,11.749l135.12-135.12c-2.467-2.577-4.986-5.102-7.535-7.598
		L-677.497,1.134C-675.849,4.595-674.342,8.137-672.979,11.749z"/>
	<path stroke="#FFFFFF" stroke-miterlimit="10" d="M-674.507,238.278l-7.566-7.567l-187.686,187.686
		c3.909,1.174,7.842,2.291,11.812,3.322L-674.507,238.278z"/>
	<path stroke="#FFFFFF" stroke-miterlimit="10" d="M-448.217,71.854l-147.548,147.548l7.566,7.567l141.042-141.043
		C-447.408,81.208-447.767,76.517-448.217,71.854z"/>
	<path stroke="#FFFFFF" stroke-miterlimit="10" d="M-788.543,427.314l151.533-151.533l-7.566-7.566l-162.486,162.486
		c7.708,0.743,15.488,1.235,23.343,1.437L-788.543,427.314z"/>
	<path stroke="#FFFFFF" stroke-miterlimit="10" d="M-662.009,250.779l-7.565-7.567l-180.457,180.457
		c4.133,0.964,8.303,1.832,12.495,2.638L-662.009,250.779z"/>
	<path stroke="#FFFFFF" stroke-miterlimit="10" d="M-813.543,427.314L-649.51,263.28l-7.565-7.567l-172.09,172.091
		c6.164,1.02,12.383,1.875,18.658,2.547L-813.543,427.314z"/>
	<path stroke="#FFFFFF" stroke-miterlimit="10" d="M-707.571,196.342c-0.36-4.825,0.616-9.73,2.949-14.107l-1.988-1.987
		l-216.737,216.737c3.365,1.704,6.768,3.345,10.198,4.935L-707.571,196.342z"/>
	<path stroke="#FFFFFF" stroke-miterlimit="10" d="M-711.546,175.316l-5.334-5.331c-4.615,3.651-9.47,7.013-14.532,10.064
		l-208.148,208.148c3.207,1.857,6.452,3.655,9.727,5.406L-711.546,175.316z"/>
	<path stroke="#FFFFFF" stroke-miterlimit="10" d="M-699.505,213.275l-0.564-0.564c-2.482-2.482-4.343-5.346-5.606-8.397
		L-906.343,404.98c3.53,1.54,7.082,3.04,10.675,4.458L-699.505,213.275z"/>
	<path stroke="#FFFFFF" stroke-miterlimit="10" d="M-687.006,225.777l-7.566-7.567L-888.52,412.157
		c3.716,1.366,7.471,2.649,11.249,3.885L-687.006,225.777z"/>
	<path stroke="#FFFFFF" stroke-miterlimit="10" d="M-476.137,239.907c3.788-8.307,7.231-16.803,10.331-25.464l-198.669,198.669
		c8.661-3.1,17.157-6.543,25.464-10.331L-476.137,239.907z"/>
	<path stroke="#FFFFFF" stroke-miterlimit="10" d="M-513.242,302.012c10.157-13.398,19.316-27.593,27.353-42.485l-133.501,133.501
		c14.893-8.036,29.087-17.195,42.485-27.353L-513.242,302.012z"/>
	<path stroke="#FFFFFF" stroke-miterlimit="10" d="M-446.756,110.526c0.046-2.251,0.086-4.504,0.086-6.767
		c0-2.791-0.036-5.572-0.105-8.347l-136.677,136.677c2.375,3.164,3.933,6.748,4.669,10.465L-446.756,110.526z"/>
	<path stroke="#FFFFFF" stroke-miterlimit="10" d="M-763.544,427.314l142.108-142.108c-3.714-0.737-7.295-2.297-10.457-4.676
		l-151.612,151.612c2.774,0.069,5.556,0.105,8.347,0.105c5.415,0,10.798-0.14,16.149-0.398L-763.544,427.314z"/>
	<path stroke="#FFFFFF" stroke-miterlimit="10" d="M-460.916,199.686c2.078-6.815,3.946-13.722,5.585-20.718l-244.618,244.618
		c6.996-1.639,13.902-3.507,20.718-5.585L-460.916,199.686z"/>
	<path stroke="#FFFFFF" stroke-miterlimit="10" d="M-735.949,429.909l-2.595-2.595l290.198-290.198
		c0.547-5.421,0.964-10.881,1.243-16.376l-131.625,131.625c-0.922,4.967-3.299,9.717-7.137,13.56l-12.206,12.192
		c-3.843,3.844-8.592,6.224-13.556,7.146l-146.553,146.552C-750.697,431.434-743.29,430.782-735.949,429.909z"/>
	<path stroke="#FFFFFF" stroke-miterlimit="10" d="M-452.669,166.439c1.156-5.981,2.151-12.019,2.978-18.11l-280.897,280.897
		c6.092-0.826,12.129-1.821,18.11-2.978L-452.669,166.439z"/>
	<path stroke="#FFFFFF" stroke-miterlimit="10" d="M-910.481,149.252c-2.288-2.777-4.465-5.647-6.535-8.599l-136.908,136.908
		c1.935,3.096,3.907,6.166,5.94,9.192L-910.481,149.252z"/>
	<path stroke="#FFFFFF" stroke-miterlimit="10" d="M-936.499,100.269c-1.172-3.977-2.174-8.025-2.991-12.142l-139.836,139.837
		c1.456,3.562,2.956,7.103,4.532,10.601L-936.499,100.269z"/>
	<path stroke="#FFFFFF" stroke-miterlimit="10" d="M-929.71,118.48c-1.601-3.513-3.055-7.105-4.365-10.768l-137.587,137.587
		c1.624,3.396,3.313,6.754,5.049,10.084L-929.71,118.48z"/>
	<path stroke="#FFFFFF" stroke-miterlimit="10" d="M-751.123,189.894c-7.037,2.838-14.36,5.114-21.913,6.779l-181.978,181.979
		c3.055,2.003,6.134,3.972,9.258,5.874L-751.123,189.894z"/>
	<path stroke="#FFFFFF" stroke-miterlimit="10" d="M-920.953,134.723c-1.961-3.124-3.803-6.331-5.517-9.616l-136.705,136.705
		c1.783,3.242,3.624,6.447,5.512,9.621L-920.953,134.723z"/>
	<path stroke="#FFFFFF" stroke-miterlimit="10" d="M-940.898,79.668c-0.619-4.585-1.014-9.241-1.175-13.958l-144.077,144.077
		c1.273,3.734,2.626,7.432,4.028,11.104L-940.898,79.668z"/>
	<path stroke="#FFFFFF" stroke-miterlimit="10" d="M-937.931,26.702c2.038-8.066,4.777-15.852,8.154-23.288l-167.08,167.08
		c0.854,4.139,1.803,8.242,2.811,12.323L-937.931,26.702z"/>
	<path stroke="#FFFFFF" stroke-miterlimit="10" d="M-942.066,55.836c0.202-5.67,0.738-11.255,1.6-16.733l-151.542,151.542
		c1.076,3.931,2.209,7.838,3.426,11.708L-942.066,55.836z"/>
	<path stroke="#FFFFFF" stroke-miterlimit="10" d="M-860.566-65.796c7.436-3.378,15.222-6.117,23.288-8.154l141.177-141.177
		c-4.08-1.008-8.184-1.957-12.322-2.811L-860.566-65.796z"/>
	<path stroke="#FFFFFF" stroke-miterlimit="10" d="M-810.942,199.713c-4.629-0.258-9.199-0.738-13.697-1.438l-159.187,159.188
		c2.771,2.281,5.592,4.504,8.438,6.696L-810.942,199.713z"/>
	<path stroke="#FFFFFF" stroke-miterlimit="10" d="M-832.947,196.717c-4.054-0.887-8.044-1.944-11.958-3.176l-152.286,152.287
		c2.632,2.415,5.302,4.79,8.012,7.12L-832.947,196.717z"/>
	<path stroke="#FFFFFF" stroke-miterlimit="10" d="M-784.997,198.768c-5.338,0.694-10.772,1.078-16.283,1.149L-969.763,368.4
		c2.911,2.145,5.859,4.241,8.843,6.291L-784.997,198.768z"/>
	<path stroke="#FFFFFF" stroke-miterlimit="10" d="M-898.389,162.159c-2.598-2.445-5.106-4.985-7.511-7.622l-138.059,138.059
		c2.08,2.955,4.204,5.875,6.377,8.756L-898.389,162.159z"/>
	<path stroke="#FFFFFF" stroke-miterlimit="10" d="M-869.388,183.158c-3.241-1.76-6.399-3.651-9.478-5.655l-143.057,143.057
		c2.359,2.683,4.761,5.325,7.204,7.929L-869.388,183.158z"/>
	<path stroke="#FFFFFF" stroke-miterlimit="10" d="M-884.71,173.481c-2.911-2.113-5.736-4.336-8.471-6.663l-140.11,140.11
		c2.22,2.816,4.499,5.585,6.808,8.326L-884.71,173.481z"/>
</g>
<g>
	<path stroke="#FFFFFF" stroke-miterlimit="10" d="M-802.227,125.864c4.044,1.154,8.192,2.062,12.427,2.706l96.378-96.378
		c-1.02-3.911-2.247-7.737-3.662-11.472L-802.227,125.864z"/>
	<path stroke="#FFFFFF" stroke-miterlimit="10" d="M-691.631,40.269l-89.245,89.245c2.078,0.128,4.171,0.201,6.281,0.201
		c3.049,0,6.075-0.137,9.053-0.402l75.556-75.555C-690.271,49.182-690.821,44.68-691.631,40.269z"/>
	<path stroke="#FFFFFF" stroke-miterlimit="10" d="M-820.166,118.803c3.397,1.732,6.908,3.274,10.515,4.618l109.663-109.663
		c-1.563-3.415-3.292-6.738-5.174-9.96L-820.166,118.803z"/>
	<path stroke="#FFFFFF" stroke-miterlimit="10" d="M-835.502,109.139c2.882,2.2,5.883,4.252,8.998,6.136L-708.961-2.268
		c-2.016-2.998-4.17-5.894-6.454-8.679L-835.502,109.139z"/>
	<path stroke="#FFFFFF" stroke-miterlimit="10" d="M-839.866-46.363c-12.104,4.146-23.284,10.278-33.147,18.014l-19.335,19.335
		c-7.736,9.863-13.869,21.042-18.013,33.146L-839.866-46.363z"/>
	<path stroke="#FFFFFF" stroke-miterlimit="10" d="M-859.433,83.07c1.945,3.06,4.052,6.004,6.307,8.827L-733.02-28.209
		c-2.839-2.236-5.787-4.338-8.835-6.298L-859.433,83.07z"/>
	<path stroke="#FFFFFF" stroke-miterlimit="10" d="M-867.623,116.26l-20.064,20.063c2.377,2.663,4.878,5.212,7.495,7.64
		l20.095-20.095C-862.777,121.507-865.29,118.965-867.623,116.26z"/>
	<path stroke="#FFFFFF" stroke-miterlimit="10" d="M-884.475,48.245c1.941-8.388,5.24-16.264,9.638-23.38
		c-0.069,1.467-0.221,2.906-0.221,4.387c0,3.087,0.147,6.14,0.42,9.156l89.452-89.452c-4.517-0.717-9.123-1.165-13.802-1.332
		L-916.37,65.007c0.168,4.678,0.616,9.283,1.334,13.8L-884.475,48.245z"/>
	<path stroke="#FFFFFF" stroke-miterlimit="10" d="M-808.918-52.312c-5.918,0.299-11.715,1.054-17.359,2.226l-87.806,87.806
		c-1.171,5.644-1.925,11.439-2.224,17.357L-808.918-52.312z"/>
	<path stroke="#FFFFFF" stroke-miterlimit="10" d="M-840.923,104.694l120.907-120.907c-2.429-2.615-4.978-5.116-7.642-7.492
		L-848.573,97.21C-846.158,99.838-843.604,102.335-840.923,104.694z"/>
	<path stroke="#FFFFFF" stroke-miterlimit="10" d="M-873.474,47.111c0.744,4.146,1.743,8.202,2.979,12.154l105.244-105.244
		c-3.809-1.348-7.709-2.501-11.692-3.441L-873.474,47.111z"/>
	<path stroke="#FFFFFF" stroke-miterlimit="10" d="M-767.612,131.383c-7.671,4.811-16.221,8.331-25.369,10.234l-30.72,30.72
		c4.413,0.81,8.915,1.36,13.491,1.644L-767.612,131.383z"/>
	<path stroke="#FFFFFF" stroke-miterlimit="10" d="M-804.338,143.108c-1.476,0.084-2.958,0.142-4.456,0.142
		c-3.439,0-6.818-0.247-10.139-0.681l-24.32,24.32c3.735,1.414,7.562,2.641,11.474,3.66L-804.338,143.108z"/>
	<path stroke="#FFFFFF" stroke-miterlimit="10" d="M-827.253,141.024c-3.925-0.957-7.735-2.203-11.401-3.731l-21.522,21.522
		c3.223,1.881,6.546,3.608,9.962,5.171L-827.253,141.024z"/>
	<path stroke="#FFFFFF" stroke-miterlimit="10" d="M-706.637,120.408c5.228-8.453,9.373-17.644,12.247-27.381l-76.546,76.546
		c9.738-2.876,18.93-7.021,27.383-12.25L-706.637,120.408z"/>
	<path stroke="#FFFFFF" stroke-miterlimit="10" d="M-867.903,66.54c1.417,3.541,3.027,6.983,4.822,10.311L-748.029-38.2
		c-3.282-1.828-6.663-3.497-10.136-4.998L-867.903,66.54z"/>
	<path stroke="#FFFFFF" stroke-miterlimit="10" d="M-691.4,80.17c0.937-5.458,1.484-11.048,1.61-16.743l-110.749,110.749
		c5.696-0.127,11.287-0.676,16.746-1.612L-691.4,80.17z"/>
	<path stroke="#FFFFFF" stroke-miterlimit="10" d="M-880.834,94.605c-1.494-3.705-2.707-7.551-3.621-11.513l-22.731,22.73
		c1.501,3.472,3.171,6.853,5,10.134L-880.834,94.605z"/>
	<path stroke="#FFFFFF" stroke-miterlimit="10" d="M-885.913,74.683c-0.349-2.987-0.548-6.021-0.548-9.102
		c0-1.916,0.073-3.814,0.212-5.695l-27.162,27.162c0.941,3.982,2.095,7.883,3.443,11.689L-885.913,74.683z"/>
	<path stroke="#FFFFFF" stroke-miterlimit="10" d="M-871.967,110.737c-2.131-2.976-4.057-6.106-5.757-9.376l-20.769,20.77
		c1.961,3.047,4.064,5.995,6.3,8.833L-871.967,110.737z"/>
	<path stroke="#FFFFFF" stroke-miterlimit="10" d="M-845.345,134.116c-3.241-1.731-6.341-3.689-9.287-5.847l-20.294,20.294
		c2.786,2.284,5.683,4.438,8.681,6.452L-845.345,134.116z"/>
</g>
<g opacity="0.05">
	<path fill="#A94B3A" d="M447.77,696.705c-0.127-3.648-0.338-7.273-0.639-10.875L244.427,483.126
		c-3.601-0.3-7.227-0.512-10.874-0.638L447.77,696.705z"/>
	<path fill="#A94B3A" d="M443.065,658.18c-0.971-4.573-2.077-9.097-3.325-13.562L285.638,490.516
		c-4.465-1.247-8.987-2.354-13.561-3.325L443.065,658.18z"/>
	<path fill="#A94B3A" d="M446.386,678.41c-0.471-4.021-1.045-8.011-1.728-11.963L263.812,485.599
		c-3.954-0.683-7.943-1.256-11.965-1.728L446.386,678.41z"/>
	<path fill="#A94B3A" d="M428.406,795.712c1.066-2.367,2.08-4.762,3.064-7.17L141.715,498.786c-2.409,0.985-4.804,1.999-7.17,3.065
		L428.406,795.712z"/>
	<path fill="#A94B3A" d="M433.362,783.759c0.948-2.484,1.863-4.986,2.725-7.513L154.01,494.17c-2.525,0.861-5.026,1.776-7.511,2.725
		L433.362,783.759z"/>
	<path fill="#A94B3A" d="M437.731,771.218c0.823-2.618,1.591-5.26,2.317-7.92l-273.091-273.09c-2.658,0.728-5.302,1.495-7.919,2.317
		L437.731,771.218z"/>
	<path fill="#A94B3A" d="M436.816,635.021c-1.822-5.54-3.852-10.987-6.089-16.325L311.562,499.529
		c-5.338-2.238-10.785-4.266-16.326-6.089L436.816,635.021z"/>
	<path fill="#A94B3A" d="M444.41,744.076c0.525-2.928,0.98-5.88,1.39-8.846L195.027,484.457c-2.966,0.41-5.918,0.865-8.846,1.39
		L444.41,744.076z"/>
	<path fill="#A94B3A" d="M441.428,758.003c0.682-2.76,1.323-5.535,1.9-8.335l-262.739-262.74c-2.8,0.578-5.575,1.22-8.336,1.901
		L441.428,758.003z"/>
	<path fill="#A94B3A" d="M446.54,729.295c0.345-3.112,0.627-6.243,0.843-9.394L210.355,482.875c-3.15,0.215-6.281,0.498-9.394,0.843
		L446.54,729.295z"/>
	<path fill="#A94B3A" d="M160.843,917.085c4.61,1.406,9.281,2.67,14.014,3.777L9.395,755.401c1.108,4.731,2.372,9.403,3.777,14.014
		L160.843,917.085z"/>
	<path fill="#A94B3A" d="M214.243,926.429L3.828,716.015c0.258,5.059,0.699,10.07,1.29,15.035l1.755-1.756l196.293,196.293
		C206.833,925.958,210.526,926.24,214.243,926.429z"/>
	<path fill="#A94B3A" d="M183.332,922.664c4.045,0.783,8.129,1.455,12.25,2.014L5.58,734.675c0.559,4.121,1.231,8.205,2.014,12.25
		L183.332,922.664z"/>
	<path fill="#A94B3A" d="M133.637,906.791c5.619,2.562,11.366,4.891,17.225,6.988L16.479,779.396
		c2.097,5.859,4.426,11.605,6.988,17.225L133.637,906.791z"/>
	<path fill="#A94B3A" d="M384.502,859.943L70.313,545.756c-1.725,1.688-3.429,3.396-5.098,5.139l314.146,314.146
		C381.105,863.373,382.813,861.667,384.502,859.943z"/>
	<path fill="#A94B3A" d="M91.629,881.691c9.062,6.871,18.664,13.066,28.737,18.502l-90.302-90.301
		c5.436,10.072,11.631,19.674,18.502,28.736L91.629,881.691z"/>
	<path fill="#A94B3A" d="M447.922,704.529c0-0.338-0.012-0.674-0.014-1.012L226.739,482.349c-0.337-0.001-0.673-0.013-1.011-0.013
		c-3.029,0-6.04,0.078-9.04,0.198l231.035,231.034C447.844,710.569,447.922,707.558,447.922,704.529z"/>
	<path fill="#A94B3A" d="M425.127,606.421c-4.091-8.298-8.684-16.304-13.74-23.978l-63.574-63.573
		c-7.674-5.057-15.678-9.65-23.977-13.741L425.127,606.421z"/>
	<path fill="#A94B3A" d="M6.873,678.565l246.452,246.452c2.999-0.371,5.975-0.812,8.935-1.303L6.542,667.998
		c-0.689,4.169-1.269,8.375-1.723,12.62L6.873,678.565z"/>
	<path fill="#A94B3A" d="M422.871,807.089c1.175-2.254,2.317-4.525,3.416-6.822L129.989,503.97c-2.296,1.099-4.568,2.241-6.82,3.415
		L422.871,807.089z"/>
	<path fill="#A94B3A" d="M294.799,915.759c2.556-0.836,5.096-1.703,7.608-2.627L17.125,627.85c-0.924,2.514-1.792,5.054-2.627,7.608
		L294.799,915.759z"/>
	<path fill="#A94B3A" d="M307.242,911.292c2.431-0.959,4.833-1.973,7.221-3.016L21.98,615.793c-1.042,2.389-2.057,4.791-3.016,7.221
		L307.242,911.292z"/>
	<path fill="#A94B3A" d="M330.353,900.583c2.215-1.186,4.41-2.4,6.579-3.658l-303.6-303.601c-1.257,2.17-2.473,4.365-3.657,6.58
		L330.353,900.583z"/>
	<path fill="#A94B3A" d="M6.873,712.385l214.278,214.278c1.522,0.031,3.047,0.059,4.577,0.059c1.888,0,3.77-0.025,5.646-0.072
		L3.607,698.882c-0.047,1.877-0.071,3.758-0.071,5.646c0,3.663,0.095,7.304,0.27,10.924L6.873,712.385z"/>
	<path fill="#A94B3A" d="M281.729,919.599c2.685-0.697,5.345-1.453,7.989-2.246L12.905,640.541c-0.794,2.644-1.55,5.305-2.247,7.988
		L281.729,919.599z"/>
	<path fill="#A94B3A" d="M341.123,894.443c2.113-1.287,4.195-2.619,6.263-3.975L39.789,582.872
		c-1.355,2.066-2.688,4.149-3.974,6.264L341.123,894.443z"/>
	<path fill="#A94B3A" d="M6.873,695.475l230.918,230.917c3.191-0.17,6.364-0.412,9.519-0.717L4.582,682.948
		c-0.503,5.214-0.836,10.476-0.972,15.789L6.873,695.475z"/>
	<path fill="#A94B3A" d="M267.922,922.703c2.836-0.545,5.655-1.133,8.452-1.783L9.339,653.884c-0.652,2.795-1.239,5.615-1.784,8.451
		L267.922,922.703z"/>
	<path fill="#A94B3A" d="M319.067,906.207c2.32-1.074,4.622-2.184,6.898-3.338L27.388,604.292c-1.152,2.276-2.263,4.578-3.338,6.898
		L319.067,906.207z"/>
	<path fill="#A94B3A" d="M410.271,828.308c1.375-2.047,2.709-4.123,4.018-6.219L108.167,515.968
		c-2.094,1.309-4.171,2.643-6.218,4.018L410.271,828.308z"/>
	<path fill="#A94B3A" d="M403.234,838.181c1.47-1.949,2.907-3.924,4.313-5.922l-309.55-309.55c-1.999,1.407-3.974,2.844-5.923,4.313
		L403.234,838.181z"/>
	<path fill="#A94B3A" d="M395.728,847.585c1.562-1.854,3.104-3.727,4.604-5.631L88.303,529.925
		c-1.904,1.501-3.777,3.043-5.632,4.605L395.728,847.585z"/>
	<path fill="#A94B3A" d="M416.817,817.945c1.277-2.146,2.522-4.314,3.729-6.508L118.82,509.711
		c-2.193,1.206-4.361,2.451-6.508,3.729L416.817,817.945z"/>
	<path fill="#A94B3A" d="M387.77,856.537c1.652-1.762,3.276-3.549,4.873-5.363L79.083,537.615c-1.814,1.596-3.602,3.22-5.363,4.873
		L387.77,856.537z"/>
	<path fill="#A94B3A" d="M361.167,880.666c1.925-1.482,3.833-2.986,5.707-4.529L54.121,563.383c-1.543,1.875-3.047,3.783-4.53,5.707
		L361.167,880.666z"/>
	<path fill="#A94B3A" d="M370.494,873.083c1.833-1.576,3.64-3.184,5.42-4.816L61.99,554.343c-1.633,1.781-3.24,3.587-4.815,5.42
		L370.494,873.083z"/>
	<path fill="#A94B3A" d="M351.38,887.789c2.018-1.385,4.012-2.803,5.981-4.254L46.723,572.896c-1.45,1.97-2.868,3.964-4.255,5.981
		L351.38,887.789z"/>
</g>
<rect x="14.563" y="-138.469" fill="#A94B3A" width="55.5" height="15"/>
<rect x="83.313" y="-138.469" fill="#F89E69" width="55.5" height="15"/>
<rect x="152.313" y="-138.469" fill="#233138" width="55.5" height="15"/>
<rect x="223.313" y="-138.469" fill="#FFF7F5" width="55.5" height="15"/>
<rect x="294.313" y="-138.469" fill="#4D646B" width="55.5" height="15"/>
<rect x="363.313" y="-138.469" fill="#FFFEFD" width="55.5" height="15"/>
</svg>
