<?xml version="1.0" encoding="utf-8"?>
<!-- Generator: Adobe Illustrator 16.0.1, SVG Export Plug-In . SVG Version: 6.00 Build 0)  -->
<!DOCTYPE svg PUBLIC "-//W3C//DTD SVG 1.1//EN" "http://www.w3.org/Graphics/SVG/1.1/DTD/svg11.dtd">
<svg version="1.1" id="Layer_1" xmlns="http://www.w3.org/2000/svg" xmlns:xlink="http://www.w3.org/1999/xlink" x="0px" y="0px"
	  viewBox="0 0 25 25" enable-background="new 0 0 25 25" xml:space="preserve">
<g>
	<path fill="#233139" d="M24.969,8.042c-1-0.214-0.931-0.444-1.329-0.676c0.006-0.029,0.064,0.015,0.068-0.02
		c0.375,0.204,0.261,0.403,1.261,0.631V4.985c0-0.088-0.066-0.178-0.072-0.264c-0.072,0.01-0.182,0.017-0.268,0.015
		c0.062-0.022,0.13-0.235,0.218-0.245C24.693,2.092,22.687,0,20.252,0H15.07c-0.01,0-0.105,0-0.125,0h-0.962
		c0.033,0,0.061,0.26,0.075,0.307c-0.035,0.008-0.017-0.026-0.075-0.043C14.01,0.212,13.976,0,13.943,0h-0.96c0,0,0,0.392,0,0.393
		C12.983,0.392,13.71,0,13.71,0h-2.527c0.023,0,0.014,0.212,0.009,0.251c-0.087,0.014-0.205,0.13-0.205,0.141
		c0-0.001,0-0.393,0-0.393h-6.03C2.42,0,0,2.447,0,4.985v15.315C0,22.842,2.42,25,4.957,25h6.455c0.003,0-0.01-0.131-0.032-0.166
		c0.041-0.04,0.061,0.07,0.146,0.04C11.533,24.914,11.549,25,11.566,25h8.686c2.535,0,4.717-2.158,4.717-4.698V8.042z
		 M24.698,10.738c-0.032,0.035-0.066,0.067-0.146,0.057C24.567,10.743,24.644,10.751,24.698,10.738z M24.261,8.02
		c0.021-0.034,0.067-0.09,0.072,0c-0.062-0.035-0.046,0.012-0.037,0.073C24.239,8.095,24.234,8.046,24.224,8
		C24.238,8.005,24.239,8.02,24.261,8.02z M24.333,10.795c0.077,0.062-0.182,0.094-0.293,0.089
		C24.118,10.834,24.253,10.841,24.333,10.795z M23.987,11.05c0.054,0.011,0.061,0.072,0.054,0.145c-0.034,0-0.022-0.047-0.073-0.035
		C23.975,11.094,24.019,11.114,23.987,11.05z M23.732,9.479c0.091,0.044-0.021,0.154-0.073,0.072
		C23.7,9.49,23.774,9.571,23.732,9.479z M24.451,4.754c-0.068,0.042-0.187,0.043-0.272,0.019
		C24.247,4.742,24.372,4.721,24.451,4.754z M24.253,3.823c0.054,0.09-0.117,0.021-0.11-0.055
		C24.188,3.765,24.229,3.861,24.253,3.823z M24.005,4.842c-0.004,0.07-0.108-0.041-0.128-0.072
		C23.949,4.766,23.949,4.832,24.005,4.842z M23.741,4.846c-0.078-0.001-0.127-0.031-0.221-0.019
		C23.513,4.819,23.747,4.747,23.741,4.846z M23.784,10.666c-0.001,0.144-0.152,0.138-0.271,0.164
		C23.561,10.741,23.669,10.627,23.784,10.666z M24.533,13.66c-0.38-0.207-0.709-0.617-1.04-0.931
		C23.836,12.972,24.171,13.381,24.533,13.66z M23.622,14.024c-0.052,0.051-0.102-0.058-0.146-0.071
		C23.509,13.92,23.582,14.002,23.622,14.024z M21.817,4.917c-0.011,0.057-0.084,0.05-0.129,0.073
		C21.712,4.944,21.747,4.916,21.817,4.917z M21.624,3.731c-0.059,0.079-0.171,0.105-0.271,0.092
		C21.433,3.76,21.522,3.776,21.624,3.731z M20.777,1.794c0.026,0.002,0.052,0.003,0.056-0.018c0.023,0.031,0.061,0.049,0.108,0.054
		c-0.032,0.024-0.048,0.063-0.108,0.055C20.851,1.817,20.764,1.856,20.777,1.794z M20.678,3.697
		c0.053,0.005,0.055-0.042,0.107-0.037c-0.003,0.032-0.029,0.042-0.072,0.037c0.011,0.016,0.022,0.034,0,0.037
		c0.12-0.002,0.015,0.063,0.109,0.128c-0.005,0.021-0.019,0.01-0.019,0c-0.031-0.006-0.035,0.014-0.036,0.036
		c-0.079-0.025-0.008-0.089-0.11-0.09C20.659,3.764,20.689,3.752,20.678,3.697z M20.688,1.886c0.002-0.021,0.033-0.016,0.054-0.018
		c0.002,0.015-0.007,0.018-0.019,0.018c-0.008,0.044,0.082-0.011,0.055,0.055c-0.075-0.019-0.089,0.008-0.164-0.019
		C20.605,1.847,20.735,1.931,20.688,1.886z M20.349,6.106c0.051,0.016-0.044,0.074,0.054,0.055
		c-0.008,0.041-0.089,0.006-0.127,0.018C20.257,6.111,20.334,6.144,20.349,6.106z M20.322,8.878c0.091-0.002,0.011,0.053,0.055,0.09
		C20.369,8.999,20.312,8.925,20.322,8.878z M20.34,9.042c-0.063-0.022-0.078-0.093-0.093-0.165
		C20.33,8.889,20.284,8.976,20.34,9.042z M20.312,6.306c0-0.011,0-0.022,0-0.036c0.029,0,0.061,0,0.09,0
		C20.422,6.332,20.348,6.299,20.312,6.306z M20.221,6.271c0.046,0.001,0.037,0.062,0.037,0.109
		C20.188,6.375,20.207,6.314,20.221,6.271z M20.112,4.135c-0.02,0.077-0.149,0.043-0.22,0.072
		C19.932,4.147,20.006,4.125,20.112,4.135z M19.593,1.319c0.016,0.015,0.049,0.01,0.056,0.038c0.003,0.054-0.066,0.063-0.093,0.036
		C19.533,1.333,19.614,1.378,19.593,1.319z M19.5,1.319c-0.011-0.013-0.089-0.045-0.071,0.017c-0.027-0.015-0.059-0.026-0.056-0.071
		C19.425,1.273,19.528,1.231,19.5,1.319z M19.237,5.045c0.106,0.04-0.073,0.086-0.109,0.037C19.125,5.031,19.24,5.098,19.237,5.045z
		 M18.608,1.501c0.046,0.002,0.071,0.025,0.072,0.074C18.624,1.583,18.6,1.559,18.608,1.501z M16.786,3.729
		c0.043,0.006,0.039-0.034,0.091-0.02C16.903,3.769,16.771,3.799,16.786,3.729z M15.954,2.219c0.027,0.043-0.071-0.063-0.054-0.074
		c0.03-0.041,0.099,0.034,0.146,0.038C16.014,2.222,15.862,2.11,15.954,2.219z M16.027,2.474c-0.063-0.027-0.229,0.093-0.256-0.018
		C15.876,2.468,15.98,2.36,16.027,2.474z M15.936,1.123c-0.033,0.056-0.026-0.081-0.092-0.053
		C15.883,0.976,15.92,1.083,15.936,1.123z M15.808,1.013c-0.003,0.034-0.061,0.013-0.055,0.054
		c-0.029-0.025-0.046-0.062-0.054-0.109C15.753,0.959,15.761,1.005,15.808,1.013z M15.7,2.474c0.018,0.012,0.018,0.042,0.054,0.037
		c0.003,0.025-0.094,0.036-0.036,0.054C15.667,2.627,15.682,2.499,15.7,2.474z M15.645,0.886c-0.018,0.033-0.092-0.027-0.146-0.019
		C15.53,0.82,15.627,0.859,15.645,0.886z M15.654,2.288c-0.034,0.026-0.089,0.034-0.146,0.036c-0.014-0.021-0.022-0.05-0.018-0.092
		C15.573,2.221,15.591,2.276,15.654,2.288z M15.49,0.735c-0.05,0.013-0.037-0.037-0.072-0.037c0.048-0.025,0.027-0.051-0.02-0.073
		C15.449,0.57,15.511,0.657,15.49,0.735z M14.479,3.641c-0.075,0.014-0.167-0.111-0.256-0.146C14.296,3.483,14.4,3.597,14.479,3.641
		z M14.131,4.809c-0.017,0.032-0.033,0.063-0.091,0.055C14.038,4.812,14.085,4.812,14.131,4.809z M13.916,1.596
		c0.054,0.049,0.054-0.021,0.108-0.019c0.007,0.067-0.055,0.055-0.108,0.073C13.916,1.633,13.916,1.614,13.916,1.596z M13.839,5.084
		c-0.047-0.025-0.031-0.062-0.019-0.11C13.887,4.993,13.832,5.027,13.839,5.084z M13.695,3.147c0.064-0.007,0.181,0.097,0.254,0.146
		C13.88,3.304,13.788,3.178,13.695,3.147z M13.785,4.627c-0.003,0.03-0.055,0.015-0.068,0.036c0.002,0.004,0,0.01-0.004,0.02
		c-0.003-0.01,0-0.017,0.004-0.02c-0.004-0.033-0.08-0.021-0.097-0.072c0.096,0.041,0.082-0.025,0.165-0.037
		c0.033,0.014-0.012,0.021-0.036,0.019C13.748,4.604,13.76,4.62,13.785,4.627z M13.367,4.719c0.003-0.043,0.056-0.04,0.071-0.072
		c-0.023-0.037-0.089-0.033-0.071-0.11c0.103,0.033,0.151-0.086,0.198,0c0.017,0.003,0.018-0.006,0.018-0.019
		c0.043,0.055-0.103,0.047-0.126,0.055c0.006,0.024,0.032,0.029,0.037,0.056c0.018-0.011,0.02-0.042,0.056-0.037
		c0.029,0.104-0.029,0.11,0,0.219c-0.038-0.013-0.075-0.055-0.038-0.09c-0.081,0.077-0.026,0.195,0.012,0.26
		c0.067-0.025,0.177-0.057,0.227-0.062c-0.061,0.061-0.183,0.061-0.272,0.091c-0.021,0-0.019-0.003,0.003-0.013
		C13.4,4.973,13.423,4.781,13.367,4.719z M13.75,4.847c-0.008,0.027,0.003-0.007-0.052,0c0-0.018,0-0.036,0-0.055
		c-0.058-0.002-0.061-0.034-0.075,0.019c0.015,0.038-0.025-0.021-0.001-0.09c0.021,0.013,0.043,0.03,0.059,0.047
		C13.71,4.726,13.799,4.8,13.75,4.829c-0.006,0-0.01,0.001-0.017,0.001C13.74,4.833,13.745,4.841,13.75,4.847z M13.62,0.703
		c0.024,0.027,0.097,0.017,0.093-0.037c0.015,0.008,0.029,0.018,0.053,0.017c-0.03,0.037,0.005,0.025,0,0.074
		c-0.053-0.025-0.078,0.01-0.162,0C13.611,0.742,13.622,0.728,13.62,0.703z M13.512,1.36c0.078-0.089,0.14-0.013,0.273-0.018
		c0.014,0.033,0.04,0.065,0.046,0.108c0.029-0.007,0.028-0.058,0.085-0.037c0,0.024,0,0.049,0,0.073
		c-0.056,0.003-0.103-0.004-0.12-0.036c-0.046,0.021-0.039,0.079-0.006,0.108c-0.016-0.074,0.097-0.069,0.09,0.038
		c-0.034,0.003-0.062,0.012-0.074,0.037c-0.049-0.068-0.176-0.056-0.184-0.164c-0.017,0.014-0.043,0.021-0.072,0.018
		c0.043-0.042,0.033-0.066-0.038-0.073C13.524,1.398,13.54,1.363,13.512,1.36z M13.529,1.998c0.023-0.021,0.064-0.021,0.11-0.018
		c-0.013-0.02-0.043-0.02-0.036-0.054c0.097-0.022,0.121,0.005,0.199,0.035c-0.001,0.041-0.076,0.008-0.107,0.02
		C13.698,2,13.728,1.995,13.75,1.998c-0.048,0.047-0.09,0.043-0.128,0.127c-0.015-0.01-0.029-0.02-0.055-0.018
		c0.007-0.037,0.082-0.002,0.055-0.074c-0.059,0.01-0.107,0.066-0.146,0c-0.037,0.005,0.027,0.048-0.017,0.074
		c0.015-0.01,0.029-0.021,0.055-0.02c0,0.048-0.054,0.047-0.074,0.075c-0.041-0.105-0.099-0.215-0.163-0.329
		C13.377,1.866,13.564,1.885,13.529,1.998z M12.244,5.847c-0.057-0.013-0.053,0.031-0.109,0.019
		C12.121,5.794,12.251,5.754,12.244,5.847z M12.071,4.317c0.032,0.021,0.038,0.071,0.073,0.091
		c-0.032,0.048-0.082-0.039-0.109-0.055C12.039,4.335,12.071,4.34,12.071,4.317z M11.879,12.237c0,0.017,0,0.036,0,0.054
		c-0.056,0.003-0.062-0.046-0.072-0.091C11.882,12.19,11.784,12.254,11.879,12.237z M11.834,4.317
		c-0.038,0.05-0.108-0.024-0.108-0.073C11.789,4.243,11.784,4.306,11.834,4.317z M11.742,4.043c0.06,0.034-0.002,0.083,0.038,0.146
		c-0.048-0.021-0.041-0.093-0.073-0.127C11.728,4.065,11.739,4.058,11.742,4.043z M11.735,8.037c0.04,0.002,0.007,0.078,0.019,0.109
		c-0.042-0.029-0.079-0.067-0.147-0.072C11.607,7.996,11.703,8.102,11.735,8.037z M11.669,10.562
		c-0.026-0.046-0.07-0.076-0.072-0.146C11.666,10.415,11.691,10.526,11.669,10.562z M11.469,9.94
		c-0.016,0.021-0.024,0.048-0.019,0.091C11.399,10.014,11.371,9.923,11.469,9.94z M11.325,10.452c0.043,0.047,0.1,0.004,0.145,0.073
		c0.049,0.004-0.049-0.071,0.037-0.056c0.016,0.059-0.029,0.057-0.037,0.092c-0.09-0.006-0.139-0.046-0.182,0.036
		c-0.029-0.004,0.01-0.068-0.036-0.092C11.244,10.458,11.352,10.522,11.325,10.452z M11.159,7.092c0.04,0.04,0.053-0.008,0.107,0
		C11.294,7.148,11.135,7.148,11.159,7.092z M10.567,2.67c0.04-0.002,0.009,0.065,0.019,0.092c-0.016-0.01-0.03-0.019-0.055-0.019
		C10.518,2.693,10.567,2.707,10.567,2.67z M10.476,13.642c0.047-0.005,0.091-0.007,0.073,0.056
		C10.5,13.702,10.471,13.688,10.476,13.642z M10.466,16.476c0.023,0.007,0.019,0.037,0,0.037c0.03,0.029,0.088,0.034,0.11,0.073
		c0.05,0.018-0.133-0.008-0.165-0.019C10.407,16.515,10.466,16.523,10.466,16.476z M10.32,16.421c0.013,0.01,0.03,0.021,0.056,0.019
		c0.003,0.049-0.026,0.06-0.076,0.055C10.316,16.479,10.321,16.453,10.32,16.421z M10.293,23.883
		c0.052,0.022,0.054,0.091,0.073,0.146C10.316,24.01,10.241,23.949,10.293,23.883z M10.111,14.336
		c0.027,0.011,0.047,0.026,0.073,0.037c-0.016,0.027-0.046,0.038-0.093,0.035C10.084,14.371,10.105,14.36,10.111,14.336z
		 M9.764,14.518c0,0.145-0.123,0.026-0.165,0C9.641,14.438,9.679,14.575,9.764,14.518z M9.801,14.992
		c-0.062-0.021-0.14-0.048-0.091-0.128C9.737,14.91,9.796,14.926,9.801,14.992z M9.472,14.443c0.046-0.002,0.057,0.028,0.092,0.038
		C9.565,14.535,9.454,14.516,9.472,14.443z M9.419,14.61c0.047-0.037,0.067,0.01,0.163,0c-0.013,0.054,0.05,0.034,0.038,0.091
		c-0.016,0.008-0.032,0.015-0.038,0.035c-0.04,0.004-0.008-0.062-0.018-0.09c-0.013,0.025-0.069,0.001-0.073,0.035
		c-0.028-0.007-0.016-0.059-0.072-0.035C9.43,14.63,9.44,14.611,9.419,14.61z M8.562,16.271c0.088,0.047,0.214,0.054,0.255,0.146
		c-0.06-0.053-0.162-0.009-0.219-0.09c-0.011,0.027-0.083,0.141-0.092,0.053c-0.013,0.006-0.019,0.02-0.035,0.02
		c0,0.032,0.013,0.047,0.035,0.057c0.081-0.094,0.154,0.027,0.22,0c0.007,0.062-0.055,0.057-0.072,0.092
		c-0.069-0.049-0.146-0.088-0.256-0.092C8.412,16.354,8.545,16.371,8.562,16.271z M8.343,16.545
		c0.033,0.004,0.042,0.029,0.038,0.071c0.045-0.015,0.085-0.092,0.145-0.035c-0.024,0.1-0.166,0.012-0.22,0.054
		C8.246,16.604,8.327,16.562,8.343,16.545z M8.251,8.037c0-0.03,0-0.061,0-0.09c0.031,0,0.061,0,0.092,0
		C8.357,8.021,8.315,8.041,8.251,8.037z M8.37,2.875C8.396,2.921,8.455,2.937,8.46,3.002C8.398,2.983,8.32,2.956,8.37,2.875z
		 M8.426,2.528c-0.002,0.146-0.124,0.026-0.165,0C8.299,2.449,8.34,2.585,8.426,2.528z M8.133,2.456
		c0.043-0.002,0.056,0.028,0.09,0.037C8.224,2.545,8.113,2.525,8.133,2.456z M8.078,2.62c0.047-0.037,0.068,0.012,0.165,0
		C8.229,2.676,8.291,2.654,8.279,2.711C8.262,2.719,8.246,2.727,8.242,2.749C8.204,2.75,8.235,2.683,8.222,2.656
		C8.213,2.681,8.153,2.659,8.15,2.691C8.121,2.685,8.136,2.636,8.078,2.656C8.089,2.64,8.099,2.624,8.078,2.62z M8.198,8.221
		c-0.116-0.013-0.061-0.198,0-0.238C8.194,8.048,8.195,8.114,8.198,8.221z M7.22,4.281c0.087,0.047,0.215,0.054,0.256,0.146
		C7.415,4.375,7.313,4.418,7.257,4.335C7.247,4.363,7.172,4.476,7.166,4.39c-0.015,0.005-0.017,0.02-0.035,0.02
		c-0.001,0.03,0.013,0.047,0.035,0.056c0.083-0.095,0.154,0.027,0.221,0c0.006,0.062-0.056,0.054-0.073,0.09
		C7.244,4.507,7.166,4.47,7.057,4.465C7.07,4.362,7.206,4.382,7.22,4.281z M7.33,7.219C7.263,7.29,7.19,7.357,7.094,7.401
		C7.165,7.331,7.225,7.253,7.33,7.219z M7.002,4.555C7.035,4.56,7.044,4.587,7.04,4.628c0.043-0.015,0.083-0.092,0.146-0.037
		C7.16,4.693,7.019,4.604,6.965,4.647C6.906,4.613,6.988,4.572,7.002,4.555z M6.209,2.031c0.068-0.008,0.064,0.057,0.11,0.073
		C6.308,2.167,6.177,2.124,6.209,2.031z M6.119,9.589C6.071,9.667,6.179,9.65,6.155,9.753C6.139,9.745,6.121,9.737,6.119,9.716
		C6.1,9.716,6.104,9.739,6.1,9.753C6.034,9.737,6.09,9.7,6.082,9.644C6.025,9.629,6.047,9.693,5.99,9.682
		C5.982,9.664,5.975,9.648,5.953,9.644C6.002,9.618,6.075,9.621,6.119,9.589z M6.1,10.118c-0.022-0.026-0.053-0.043-0.054-0.09
		c0.054-0.006,0.04-0.082,0.09-0.091C6.157,9.957,6.063,10.021,6.1,10.118z M5.99,9.863c0.037,0.034,0.03,0.065,0.093,0.036
		C6.076,9.938,6.014,9.917,6.009,9.955C5.949,9.938,6,9.92,5.99,9.863z M5.971,9.772c-0.026,0.079-0.123,0-0.126-0.056
		C5.9,9.725,5.937,9.746,5.971,9.772z M5.971,9.955c0.022,0.059,0.038,0.12,0.038,0.2c-0.059-0.021-0.044,0.028-0.074,0.036
		c0.067,0.058,0.054,0.093,0.074,0.183c-0.146-0.077-0.133-0.303-0.164-0.475C5.913,9.931,5.859,9.992,5.971,9.955z M5.124,14.633
		c-0.116-0.131-0.422-0.064-0.602-0.131c0.229-0.003,0.622-0.022,0.71,0.131c-0.063,0.007-0.056-0.057-0.09-0.074
		C5.117,14.565,5.127,14.604,5.124,14.633z M4.979,15.069C4.906,15.04,4.94,15.021,4.96,14.96C5,14.963,4.968,15.038,4.979,15.069z
		 M5.015,15.218c0.068,0.014,0.021,0.098-0.036,0.091C4.987,15.273,5.018,15.263,5.015,15.218z M4.906,15.051
		c-0.04,0.045-0.155,0.014-0.147-0.053C4.804,15.019,4.848,15.043,4.906,15.051z M4.704,14.979c-0.026-0.017-0.06-0.027-0.055-0.072
		c0.016-0.017,0.041-0.021,0.073-0.02C4.737,14.938,4.698,14.935,4.704,14.979z M4.505,15.436c-0.06-0.01-0.058,0.032-0.091,0
		c0.034-0.052,0.05-0.119,0.072-0.185c0.025,0.001,0.052,0.006,0.054-0.018c0.02,0.016-0.009,0.148-0.072,0.092
		C4.447,15.394,4.513,15.379,4.505,15.436z M4.486,15.545c-0.007,0.062-0.097,0.021-0.092-0.036
		C4.452,15.495,4.429,15.558,4.486,15.545z M5.079,12.291c0.04-0.04,0.167-0.002,0.108-0.091c0.074,0.029,0.124,0.084,0.11,0.201
		C5.27,12.333,5.193,12.288,5.079,12.291z M5.964,14.633c-0.224,0.008-0.471-0.022-0.73-0.057
		C5.473,14.527,5.729,14.613,5.964,14.633z M5.608,9.986c-0.023,0.033-0.038,0.07-0.09,0.073c0.012-0.069-0.032-0.094-0.02-0.15
		c0.02,0,0.036,0,0.056,0C5.547,9.965,5.559,9.992,5.608,9.986z M5.462,9.553C5.458,9.568,5.469,9.57,5.48,9.571
		C5.473,9.617,5.427,9.553,5.443,9.517c0.024,0,0.049,0,0.074,0C5.524,9.555,5.491,9.551,5.462,9.553z M5.816,5.723
		c0.058,0.061-0.062,0.06-0.091,0.019C5.671,5.689,5.81,5.783,5.816,5.723z M5.7,10.284c-0.04-0.015-0.075-0.037-0.075-0.091
		C5.674,10.198,5.686,10.239,5.7,10.284z M5.608,9.443c-0.016,0.069-0.089,0.013-0.127,0C5.505,9.389,5.552,9.467,5.608,9.443z
		 M5.471,6.874C5.493,6.9,5.547,6.895,5.543,6.946C5.487,6.909,5.333,6.914,5.471,6.874z M4.939,10.505
		c-0.021-0.008-0.014-0.045-0.016-0.073c0.041-0.005,0.063,0.005,0.071,0.032c0.007-0.006,0.014-0.01,0.021-0.016
		c0.134-0.104,0.278-0.212,0.401-0.311c-0.09,0.132-0.255,0.244-0.421,0.354c0,0.003,0,0.007,0,0.012
		c-0.002-0.002-0.004-0.003-0.007-0.005c-0.121,0.082-0.244,0.166-0.338,0.26C4.703,10.658,4.824,10.585,4.939,10.505z M4.614,6.654
		c0.036,0.009,0.032,0.128-0.037,0.091C4.575,6.7,4.606,6.689,4.614,6.654z M4.595,13.209c0.073-0.029,0.141-0.057,0.134-0.166
		c0.016,0.016,0.061,0.02,0.061,0.02c0,0.022,0,0.049,0,0.071c-0.055-0.015,0,0.028-0.043,0.057
		c-0.067-0.037-0.042,0.025-0.121,0.021c0.012,0.018,0.043,0.018,0.04,0.053c-0.066-0.004-0.066,0.055-0.126,0.055
		C4.545,13.279,4.662,13.26,4.595,13.209z M4.451,13.354c0-0.012,0-0.022,0-0.036c0.036,0.03,0.023-0.001,0.074,0
		C4.541,13.363,4.46,13.398,4.451,13.354z M4.413,7.877C4.505,7.769,4.558,7.984,4.413,7.877L4.413,7.877z M4.413,15.344
		c-0.004,0.025-0.054,0.007-0.054,0.036c-0.035-0.078-0.085-0.028-0.11-0.107c0.091-0.008,0.083-0.003,0.091-0.091
		c0.016,0.012,0.041,0.018,0.073,0.016c-0.04,0.054-0.073,0.075-0.073,0.128C4.358,15.377,4.389,15.301,4.413,15.344z M4.341,13.08
		c0.038,0.002,0.038,0.046,0.036,0.092C4.304,13.175,4.328,13.124,4.341,13.08z M4.322,13.245c-0.004-0.024-0.112-0.024-0.054,0
		c-0.016,0.054-0.027-0.043-0.074-0.021C4.216,13.176,4.334,13.144,4.322,13.245z M4.322,13.427
		c0.014-0.003,0.019-0.018,0.036-0.018c-0.027-0.022-0.052-0.047-0.074-0.074c0.001-0.035,0.062,0.022,0.109,0
		c0.015,0.102-0.047,0.123-0.109,0.146c0.033-0.104-0.102-0.042-0.107-0.108c-0.026,0.005-0.018,0.044-0.02,0.073
		c-0.025-0.056-0.1-0.134-0.054-0.2C4.108,13.37,4.254,13.362,4.322,13.427z M4.03,15.271c-0.013-0.063,0.074-0.024,0.055-0.09
		c0.044-0.015-0.002,0.125,0.056,0.036C4.233,15.257,4.101,15.286,4.03,15.271z M4.067,15.38c-0.041,0.004-0.06-0.017-0.056-0.055
		c0.016-0.004,0.017,0.006,0.018,0.019c0.018-0.001,0.014-0.022,0.018-0.035C4.091,15.312,4.091,15.354,4.067,15.38z M4.067,15.089
		c0.053-0.005,0.062,0.033,0.09,0.055C4.163,15.158,4.034,15.158,4.067,15.089z M4.058,6.023c0.009,0.056-0.05,0.075,0.037,0.067
		c0.009,0.057-0.016,0.083-0.074,0.076C3.973,6.094,4.067,6.079,4.004,6.023C4.021,6.023,4.039,6.023,4.058,6.023z M3.957,14.853
		c0.035,0.021,0.013,0.095,0.037,0.126c-0.042-0.015-0.041-0.068-0.093-0.071C3.895,14.86,3.984,14.915,3.957,14.853z M3.957,14.998
		c0.081,0,0.002,0.108,0,0.146c-0.013-0.01-0.029-0.019-0.056-0.017C3.935,15.096,3.969,15.069,3.957,14.998z M3.867,14.797
		c0.072,0.026-0.022,0.129-0.018,0.201C3.773,14.95,3.858,14.867,3.867,14.797z M3.811,6.197C3.76,6.194,3.762,6.138,3.719,6.125
		C3.748,6.081,3.811,6.152,3.811,6.197z M3.766,5.5c-0.033,0.049-0.121,0-0.11-0.055C3.694,5.463,3.729,5.482,3.766,5.5z
		 M3.639,5.683c-0.016,0.054-0.046-0.024-0.09,0C3.531,5.689,3.515,5.699,3.511,5.718C3.488,5.796,3.599,5.742,3.583,5.81
		c-0.101-0.043-0.027,0-0.126,0.018c0.04-0.042,0.015-0.049,0.036-0.091c-0.016-0.053-0.059,0.01-0.092,0
		c0.004-0.02-0.002-0.033-0.018-0.035c0.001-0.02,0.023-0.016,0.037-0.02C3.402,5.655,3.394,5.625,3.347,5.626
		c-0.001,0.034,0.022,0.04,0.02,0.076C3.276,5.68,3.222,5.746,3.201,5.609c0.114,0.124,0.062,0,0.2-0.02
		C3.369,5.684,3.599,5.581,3.639,5.683z M3.11,13.953c0.032,0.017,0.047,0.062,0.018,0.089c-0.033,0.018-0.061-0.056-0.074,0
		c-0.048-0.017,0.032-0.05,0.074-0.034C3.119,13.992,3.109,13.979,3.11,13.953z M3.164,14.188c0.042,0.008,0.086,0.047,0.073-0.035
		c0.019,0.004,0.013,0.035,0.037,0.035c-0.063,0.047-0.075,0.146-0.146,0.184C3.134,14.306,3.177,14.273,3.164,14.188z M3.383,5.554
		c-0.042,0.044-0.084,0.029-0.128,0C3.283,5.5,3.336,5.569,3.383,5.554z M3.347,1.776C3.242,1.648,3.083,1.577,3.019,1.411
		C3.145,1.515,3.266,1.626,3.347,1.776z M2.352,18.956c-0.02-0.024-0.076-0.021-0.072-0.07C2.335,18.877,2.361,18.901,2.352,18.956z
		 M2.042,10.104c0.057-0.05,0.102,0.07,0.109,0.128c-0.042,0.025-0.068-0.047-0.073,0C2.048,10.216,2.147,10.108,2.042,10.104z
		 M2.042,2.401c0.005,0.04-0.004,0.067-0.036,0.072C2.057,2.5,2.118,2.52,2.134,2.583c-0.065-0.015-0.087,0.042-0.127,0
		c0.019-0.024,0.031,0.009,0.055-0.037C2.03,2.517,1.987,2.56,1.988,2.474C1.945,2.493,1.951,2.559,1.953,2.62
		C1.875,2.587,1.79,2.562,1.696,2.546C1.73,2.484,1.647,2.45,1.733,2.401c0.04-0.011,0.025,0.033,0.055,0.037
		c-0.004,0.047-0.03-0.026-0.073,0c0.015,0.062,0.063,0.095,0.11,0.126C1.955,2.491,1.887,2.427,2.042,2.401z M1.961,7.946
		C1.947,7.938,1.932,7.927,1.907,7.928C1.9,7.885,1.91,7.858,1.924,7.837C1.952,7.864,1.993,7.916,1.961,7.946z M1.852,9.06
		c0,0.01-0.148,0.017-0.128-0.055C1.792,8.997,1.81,9.041,1.852,9.06z M1.896,2.163c0.02,0.004,0.013,0.036,0.037,0.036
		C1.87,2.246,1.858,2.343,1.788,2.382c0.009-0.065,0.048-0.098,0.037-0.183C1.866,2.205,1.91,2.246,1.896,2.163z M1.788,2.017
		C1.778,2.002,1.769,1.988,1.77,1.963c0.031,0.015,0.047,0.062,0.018,0.09c-0.034,0.019-0.061-0.055-0.073,0
		C1.666,2.038,1.747,2.004,1.788,2.017z M1.714,2.126c0.032-0.001,0.039,0.023,0.073,0.019c-0.084,0.044-0.019,0.057,0,0.129
		C1.732,2.288,1.751,2.222,1.696,2.236C1.682,2.239,1.678,2.253,1.66,2.253c-0.002,0.04,0.015,0.059,0.055,0.056
		C1.676,2.375,1.656,2.273,1.623,2.273C1.636,2.187,1.737,2.206,1.714,2.126z M1.743,9.607C1.738,9.661,1.666,9.641,1.613,9.644
		C1.618,9.592,1.689,9.61,1.743,9.607z M1.597,9.644C1.527,9.652,1.531,9.587,1.488,9.571C1.502,9.544,1.598,9.593,1.597,9.644z
		 M1.523,9.333c0,0.054-0.107,0.048-0.091-0.018C1.483,9.299,1.479,9.341,1.523,9.333z M1.4,9.517
		c0.016-0.001,0.011-0.022,0.016-0.037c0.022,0.008,0.04,0.023,0.038,0.055C1.4,9.521,1.403,9.566,1.348,9.553
		c0-0.019,0-0.036,0-0.055C1.348,9.492,1.375,9.516,1.4,9.517z M1.396,9.353c0.032,0.003,0.041,0.03,0.036,0.073
		c-0.018,0-0.036,0-0.054,0C1.371,9.387,1.389,9.376,1.396,9.353z M1.358,9.241C1.401,9.2,1.417,9.276,1.488,9.261
		C1.452,9.29,1.347,9.287,1.358,9.241z M1.377,6.54c0.036,0.018,0.028,0.081,0.09,0.073c-0.012,0.063-0.055,0.013-0.09,0
		C1.377,6.589,1.377,6.564,1.377,6.54z M1.323,7.198c0.048,0,0.108-0.01,0.109,0.036c0.053,0.021-0.028,0.02-0.018-0.018
		C1.364,7.204,1.378,7.254,1.358,7.271C1.328,7.266,1.318,7.24,1.323,7.198z M1.306,9.589C1.263,9.652,1.233,9.553,1.231,9.517
		C1.281,9.517,1.278,9.566,1.306,9.589z M1.268,17.641c0.027,0.078,0.052,0.017,0.11,0.107c-0.062,0.03-0.021,0.065,0.019,0.094
		c-0.059,0.058-0.035,0.109-0.056,0.182c-0.038-0.034-0.076-0.068-0.092-0.127c0.027,0.002,0.053,0.003,0.056-0.018
		c-0.096-0.003-0.005-0.174-0.09-0.222C1.217,17.636,1.246,17.646,1.268,17.641z M1.286,18.062
		c-0.041,0.014-0.056,0.103-0.108,0.053C1.188,18.07,1.246,18.074,1.286,18.062z M1.133,10.522c0.042,0.056,0.064,0.101,0.035,0.182
		c-0.036-0.005-0.035-0.047-0.072-0.056C1.093,10.594,1.152,10.6,1.133,10.522z M1.041,10.649C1,10.648,1,10.606,1.004,10.559
		c0.062-0.03,0.104,0.01,0.072,0.073C1.031,10.606,1.021,10.572,1.041,10.649z M1.076,7.968c-0.029,0.059-0.106,0.029-0.146,0
		C0.962,7.952,0.997,7.994,1.076,7.968z M0.823,10.778c-0.008-0.045,0.158-0.065,0.145,0c-0.024,0-0.051,0.002-0.054-0.018
		c-0.025,0.012-0.035,0.04-0.037,0.072c-0.005,0.068-0.044-0.053,0-0.037C0.875,10.776,0.844,10.782,0.823,10.778z M0.876,10.578
		c0.028-0.044,0.076,0.044,0.074,0.091C0.873,10.689,0.917,10.59,0.876,10.578z M0.885,11.871c0.058-0.008,0.052,0.045,0.074,0.074
		c0.038,0.047-0.025-0.038-0.074-0.018C0.885,11.907,0.885,11.889,0.885,11.871z M0.786,7.676c0-0.02,0.077-0.055,0.036-0.146
		C0.914,7.546,0.92,7.651,1.004,7.676c-0.015,0.039-0.007,0.151,0,0.183C0.97,7.915,0.926,7.889,0.893,7.914
		C0.831,7.883,0.93,7.867,0.968,7.877C0.894,7.812,0.799,7.617,0.84,7.713C0.82,7.668,0.773,7.815,0.786,7.676z M0.812,18.314
		c-0.009,0.037,0.013,0.049,0.019,0.073c0.023-0.021,0.026-0.007,0.054,0c-0.051,0.062-0.106-0.027-0.127-0.057
		C0.762,18.312,0.791,18.318,0.812,18.314z M0.739,18.818c-0.086,0.018-0.056,0.037-0.146,0.048c-0.022-0.03,0.014-0.121,0-0.202
		c0.031-0.052,0.015,0.091,0.019,0.127c0.029,0.006,0.031-0.01,0.055-0.01c-0.011-0.062-0.054-0.064-0.018-0.118
		c0.029,0,0.06,0,0.09,0C0.678,18.717,0.722,18.755,0.739,18.818z M0.603,11.618c0.017,0.015,0.041,0.02,0.074,0.018
		c0.059,0.032-0.097,0.001-0.074,0.057C0.559,11.688,0.598,11.63,0.603,11.618z M0.475,11.581c0.107-0.006-0.012,0.102,0.092,0.091
		c-0.012,0.059-0.048,0.024-0.092,0.019C0.475,11.655,0.475,11.618,0.475,11.581z M0.484,19.025C0.487,19.01,0.483,19,0.473,18.993
		c0,0.007,0.005,0.012,0.006,0.021c-0.021-0.021-0.062-0.041-0.062-0.064c0,0.014,0,0.027,0,0.043
		c-0.052-0.018-0.009-0.067-0.04-0.076c0.001-0.006,0.005-0.01,0.008-0.01l-0.001-0.001c0.016,0,0.028,0.001,0.039,0.006
		c0.012-0.006,0.022-0.013,0.042-0.01c-0.004,0.01-0.01,0.021-0.02,0.026c0.013,0.014,0.02,0.032,0.024,0.057
		c0.018-0.024,0.076-0.004,0.069-0.049c0.024,0.024,0.086,0.01,0.11,0.037C0.583,19.019,0.542,18.979,0.484,19.025z M0.667,20.963
		c0.05,0.02,0.066,0.139,0.054,0.164c-0.013-0.009-0.028-0.02-0.054-0.02C0.685,21.039,0.626,21.004,0.667,20.963z M0.758,21.438
		c-0.068,0.018-0.033-0.098-0.019-0.109C0.798,21.3,0.786,21.438,0.758,21.438z M0.786,21.295c-0.063,0.015-0.032-0.066-0.074-0.07
		c0.001-0.049,0.067-0.045,0.091-0.021C0.757,21.235,0.783,21.229,0.786,21.295z M0.868,18.883c-0.03,0-0.061,0-0.09,0
		c-0.022,0-0.021-0.057-0.019-0.104c0.039,0.012,0.052,0.043,0.109,0.033C0.837,18.852,0.869,18.826,0.868,18.883z M1.068,18.955
		c-0.046-0.016-0.046-0.076-0.072-0.109c-0.106,0.03-0.183-0.091-0.256-0.146c0.098,0.006,0.127,0.079,0.184,0.128
		c0.031-0.015,0.045-0.05,0.108-0.036c0.006,0.049,0.006,0.117,0.11,0.11C1.136,18.936,1.06,18.902,1.068,18.955z M1.049,18.279
		c0.023-0.046,0.059-0.076,0.128-0.075c-0.036,0.044-0.036,0.049,0,0.093C1.221,18.331,1.116,18.25,1.049,18.279z M1.195,18.261
		c0.033-0.037,0.1,0.059,0.146-0.018c0.025,0.01,0.034,0.037,0.037,0.071c-0.046,0.001-0.063,0.034-0.091,0.056
		C1.234,18.354,1.225,18.297,1.195,18.261z M1.452,18.389c-0.034,0.025-0.079,0.043-0.11,0.072
		C1.303,18.436,1.392,18.381,1.452,18.389z M1.432,18.534c-0.024-0.007-0.015-0.048-0.018-0.073c0.025,0.021,0.066,0.021,0.09,0.036
		C1.5,18.569,1.448,18.485,1.432,18.534z M1.452,18.077c-0.003-0.058,0.021-0.087,0.036-0.126c0.015-0.004,0.016,0.006,0.017,0.018
		c-0.002,0.015,0.008,0.018,0.018,0.018c-0.012,0.018-0.031,0.029-0.054,0.037c0.015,0.024,0.026,0.057,0.073,0.054
		C1.526,18.133,1.495,18.055,1.452,18.077z M1.424,15.05c0.024-0.047,0.112-0.005,0.144,0C1.547,15.127,1.478,15.048,1.424,15.05z
		 M1.495,13.153c-0.006-0.031,0.08-0.128,0.11-0.182c0.053,0.008-0.027,0.029-0.019,0.054c0.059,0.005,0.039-0.072,0.091-0.074
		c-0.065,0.012,0.01-0.094,0.092-0.092C1.705,12.983,1.593,13.062,1.495,13.153z M1.788,15.325c-0.057,0.01-0.083-0.015-0.073-0.074
		C1.771,15.244,1.795,15.27,1.788,15.325z M1.797,10.648c-0.008-0.04,0.013-0.048,0.019-0.074c0.027-0.005,0.032,0.016,0.054,0.019
		C1.875,10.641,1.844,10.653,1.797,10.648z M1.933,10.36c-0.053-0.055-0.03,0.045-0.09,0.037c-0.009-0.059,0.05-0.05,0.054-0.092
		c0.016,0.003,0.02,0.019,0.037,0.019C1.933,10.336,1.933,10.348,1.933,10.36z M2.006,10.36c-0.016,0.044-0.054-0.041-0.053-0.073
		c0.04-0.018,0.12-0.041,0.145-0.019c0.008,0.044-0.034,0.04-0.019,0.092C2.046,10.333,1.981,10.32,2.006,10.36z M2.025,10.435
		c0.013-0.047,0.096-0.027,0.126-0.056c0-0.036-0.051-0.023-0.036-0.074c0.03,0.007,0.035-0.014,0.036-0.037
		c0.045,0.009,0.064,0.044,0.092,0.072c-0.045,0.023-0.068,0.065-0.055,0.147C2.124,10.478,2.108,10.422,2.025,10.435z
		 M2.306,19.868c-0.07-0.068-0.167-0.261-0.126-0.165c-0.02-0.045-0.066,0.103-0.055-0.036c0.002-0.02,0.079-0.058,0.036-0.146
		c0.094,0.016,0.1,0.119,0.183,0.146c-0.013,0.036-0.009,0.148,0,0.183c-0.031,0.055-0.077,0.029-0.109,0.055
		C2.169,19.875,2.271,19.854,2.306,19.868z M2.272,19.959c0.031-0.02,0.065,0.025,0.146,0C2.388,20.018,2.31,19.988,2.272,19.959z
		 M2.408,18.886c0.002-0.04,0.045-0.037,0.09-0.034C2.485,18.886,2.444,18.924,2.408,18.886z M2.964,14.262
		c0.014-0.086,0.114-0.066,0.09-0.146c0.034-0.002,0.041,0.022,0.074,0.02c-0.086,0.043-0.019,0.056,0,0.128
		c-0.056,0.015-0.034-0.049-0.092-0.036C3.022,14.23,3.019,14.247,3,14.247c-0.002,0.041,0.013,0.058,0.054,0.054
		C3.018,14.364,2.996,14.262,2.964,14.262z M3.073,14.391c0.041-0.011,0.026,0.035,0.055,0.036c-0.004,0.047-0.032-0.022-0.074,0
		c0.015,0.065,0.063,0.097,0.11,0.128c0.131-0.073,0.064-0.138,0.219-0.164c0.005,0.042-0.004,0.067-0.036,0.072
		c0.051,0.028,0.111,0.047,0.125,0.11c-0.063-0.015-0.087,0.039-0.125,0c0.019-0.027,0.031,0.008,0.053-0.037
		c-0.029-0.029-0.073,0.013-0.072-0.073c-0.042,0.021-0.038,0.083-0.037,0.147c-0.076-0.035-0.163-0.058-0.254-0.074
		C3.07,14.474,2.989,14.438,3.073,14.391z M3.356,17.205c-0.034-0.062-0.111-0.085-0.127-0.163
		C3.27,17.099,3.344,17.12,3.356,17.205z M3.648,19.904c-0.13,0.097-0.334,0.116-0.511,0.166
		C3.289,20.008,3.504,19.914,3.648,19.904z M3.383,22.095c0.057-0.052,0.102,0.065,0.11,0.127c-0.042,0.023-0.069-0.046-0.073,0
		C3.39,22.208,3.489,22.098,3.383,22.095z M3.273,22.348c-0.053-0.053-0.033,0.049-0.09,0.037c-0.01-0.057,0.048-0.046,0.054-0.09
		c0.015,0.002,0.017,0.018,0.037,0.018C3.273,22.323,3.273,22.339,3.273,22.348z M3.347,22.348c-0.016,0.045-0.056-0.037-0.056-0.07
		c0.041-0.017,0.123-0.041,0.146-0.02c0.007,0.045-0.032,0.039-0.018,0.09C3.386,22.323,3.322,22.311,3.347,22.348z M3.53,22.479
		c-0.063-0.012-0.082-0.065-0.165-0.057c0.014-0.045,0.095-0.023,0.126-0.051c0-0.039-0.049-0.026-0.036-0.076
		c0.032,0.008,0.034-0.015,0.036-0.037c0.045,0.01,0.065,0.045,0.092,0.074C3.539,22.353,3.517,22.396,3.53,22.479z M3.61,20.985
		c0-0.021,0.023-0.015,0.038-0.021c-0.005-0.066-0.056-0.08-0.11-0.056c0.012-0.11,0.153-0.017,0.146,0.056
		C3.624,20.956,3.659,21.031,3.61,20.985z M3.901,23.85c-0.032-0.014-0.052-0.059-0.09-0.018c0.057,0.023-0.01,0.054,0.054,0.057
		c-0.012,0.045-0.079,0.029-0.054,0.105c-0.046-0.018-0.053-0.079-0.056-0.145c-0.039-0.008-0.036,0.025-0.036,0.056
		c-0.021,0.059-0.021-0.049-0.019-0.073c0.082,0.025,0.082-0.08,0.128-0.035c-0.03-0.031,0.033-0.074,0.035-0.129
		c0.067,0.014,0.03,0.107,0,0.129c0.013,0.053,0.04-0.016,0.074,0C3.951,23.836,3.904,23.823,3.901,23.85z M4.047,23.358
		c0.029,0.03,0.116,0.007,0.11,0.071C4.089,23.438,4.05,23.416,4.047,23.358z M4.12,24.197c-0.001-0.046,0.029-0.056,0.038-0.09
		C4.219,24.113,4.179,24.204,4.12,24.197z M4.468,19.761c0.036-0.073,0.158-0.063,0.256-0.073
		C4.695,19.756,4.519,19.773,4.468,19.761z M3.739,17.462c0.001-0.02,0.032-0.017,0.054-0.02c0.379,0.267,0.837,0.454,1.27,0.671
		c0.021-0.029,0.061,0.004,0.081,0.04c0.145,0.073,0.285,0.153,0.417,0.239C4.927,18.106,4.302,17.813,3.739,17.462z M6.091,18.575
		c-0.11,0.019-0.259-0.08-0.365-0.129C5.772,18.424,5.973,18.549,6.091,18.575z M5.754,19.868C5.847,19.756,5.9,19.973,5.754,19.868
		L5.754,19.868z M5.953,18.644c0.036,0.008,0.033,0.128-0.035,0.093C5.915,18.688,5.946,18.678,5.953,18.644z M5.945,23.229
		c0.086,0.009,0.102-0.03,0.146,0.02c-0.022,0.052-0.099,0.049-0.165,0.055C5.924,23.271,5.95,23.266,5.945,23.229z M6.055,23.321
		c0.038-0.017,0.076-0.069,0.108-0.035C6.133,23.312,6.096,23.361,6.055,23.321z M6.21,23.609c0-0.053,0-0.104,0-0.161
		c0-0.065-0.033-0.133-0.026-0.22C6.2,23.237,6.21,23.242,6.21,23.266C6.21,23.383,6.21,23.495,6.21,23.609
		C6.266,23.697,6.21,23.697,6.21,23.609z M6.163,23.176c0.045-0.023,0.145,0.017,0.166,0.072
		C6.296,23.263,6.199,23.217,6.163,23.176z M6.336,22.494c-0.015-0.012-0.051-0.028-0.055,0c-0.025-0.004-0.015-0.044-0.018-0.072
		C6.322,22.414,6.346,22.438,6.336,22.494z M6.593,20.799c-0.083,0.011-0.049-0.085-0.019-0.11c-0.003-0.029-0.113-0.097-0.11-0.017
		c-0.09-0.07,0.107-0.096,0.127-0.019C6.611,20.562,6.574,20.746,6.593,20.799z M6.574,8.677c-0.023-0.06,0.058-0.015,0.037-0.074
		c0.018,0,0.038,0,0.055,0C6.663,8.654,6.635,8.681,6.574,8.677z M6.656,9.207c-0.007-0.092,0.176-0.15,0.238-0.236
		C6.89,9.052,6.719,9.125,6.656,9.207z M6.782,16.604c0.005-0.021,0.019-0.011,0.019,0c0.016,0.003,0.018-0.006,0.019-0.018
		c0.026,0.016,0.038,0.045,0.037,0.09c-0.017-0.007-0.033-0.015-0.037-0.035C6.748,16.685,6.833,16.619,6.782,16.604z M6.81,9.521
		C6.781,9.527,6.775,9.526,6.775,9.472c0.017,0,0.035,0,0.054,0c0.001,0.107,0.021,0.059,0,0.115
		C6.805,9.583,6.814,9.548,6.81,9.521z M6.81,18.861c0.023,0.026,0.076,0.021,0.073,0.074C6.825,18.896,6.672,18.902,6.81,18.861z
		 M7.066,17.73c-0.054-0.051,0.083,0.041,0.09-0.02C7.213,17.773,7.094,17.771,7.066,17.73z M6.693,17.442
		c0.121-0.06,0.367,0.067,0.527,0.091C7.053,17.568,6.85,17.477,6.693,17.442z M6.95,8.971c0.017-0.099,0.207-0.18,0.291-0.272
		C7.222,8.795,7.026,8.872,6.95,8.971z M7.312,8.661c-0.039,0.018,0.09-0.085,0.109-0.127C7.468,8.587,7.347,8.628,7.312,8.661z
		 M7.439,7.402c0.045-0.067,0.033,0.075,0.073,0.073C7.465,7.544,7.465,7.416,7.439,7.402z M7.54,13.186
		c0.049-0.029,0.11,0.052,0.129,0.11C7.605,13.279,7.557,13.246,7.54,13.186z M7.686,10.976c0.009-0.028,0.057-0.015,0.036-0.073
		c0.038,0.043,0.094-0.036,0.092,0.055C7.735,10.932,7.73,11.021,7.686,10.976z M7.868,10.921c0.027-0.044,0.081,0.04,0.128,0.037
		C7.95,11.021,7.893,10.941,7.868,10.921z M8.061,7.729c0.061-0.019,0.027,0.058,0.037,0.092C8.034,7.834,8.031,7.757,8.061,7.729z
		 M8.296,22.406c-0.106-0.024-0.156-0.109-0.236-0.165c0.236,0.117,0.5,0.365,0.728,0.548C8.618,22.743,8.433,22.551,8.296,22.406z
		 M8.781,19.394c0.044-0.067,0.032,0.073,0.071,0.07C8.806,19.533,8.805,19.405,8.781,19.394z M8.861,12.058
		c0.014,0.056,0.014,0.034,0,0.091c-0.047-0.023-0.056-0.06-0.036-0.11c0.024,0.002,0.05,0.004,0.055-0.017
		C8.912,12.033,8.892,12.063,8.861,12.058z M8.953,11.893c0.052,0.022,0.056,0.092,0.073,0.146
		C8.975,12.021,8.901,11.959,8.953,11.893z M9.208,1.707C9.161,1.712,9.13,1.7,9.134,1.653C9.183,1.646,9.226,1.646,9.208,1.707z
		 M9.337,22.461c0.03-0.029,0.008-0.084-0.019-0.108C9.361,22.268,9.419,22.479,9.337,22.461z M9.401,18.168
		c0.119-0.068,0.292-0.084,0.438-0.126C9.708,18.102,9.557,18.139,9.401,18.168z M10.075,17.986
		c-0.055,0.035-0.129,0.055-0.219,0.056C9.89,17.983,9.996,17.999,10.075,17.986z M10.212,24.092c0,0.011-0.003,0.016-0.011,0.048
		c-0.043-0.022-0.053-0.057-0.04-0.099c-0.053-0.058-0.104-0.114-0.15-0.172c0.068,0.049,0.134,0.104,0.199,0.154
		c0.006-0.002,0.009-0.006,0.009-0.014c0.02,0.009,0.02,0.02,0.01,0.028c0.281,0.231,0.541,0.492,0.803,0.741
		C10.779,24.589,10.468,24.352,10.212,24.092z M10.877,2.396c0.22,0.115,0.024,0.028-0.146,0.054
		c0.004-0.021-0.003-0.033-0.018-0.036c0.049-0.047,0.208-0.086,0.328-0.091C11.009,2.369,10.924,2.364,10.877,2.396z M11.086,0.593
		c-0.062-0.017-0.008-0.034-0.018-0.09c0.04-0.004,0.058,0.014,0.053,0.054C11.091,0.55,11.088,0.571,11.086,0.593z M11.125,18.297
		c0.064,0.038,0.211-0.005,0.309,0.038C11.392,18.396,11.151,18.373,11.125,18.297z M11.753,17.842
		c0.043,0.021,0.053,0.08,0.054,0.145C11.765,17.961,11.773,17.89,11.753,17.842z M12.237,21.86c0.045,0.02,0.143,0.039,0.145-0.035
		c0.039,0.003,0.007,0.077,0.018,0.107C12.356,21.899,12.223,21.951,12.237,21.86z M12.343,22.008
		c0.063,0.003,0.079,0.057,0.09,0.109C12.405,22.08,12.353,22.066,12.343,22.008z M12.499,19.083c0.04,0.037,0.052-0.01,0.11,0
		C12.634,19.139,12.472,19.139,12.499,19.083z M12.809,22.55c-0.09-0.005-0.139-0.045-0.182,0.037
		c-0.027-0.007,0.011-0.068-0.035-0.093c-0.009-0.048,0.1,0.018,0.071-0.054c0.045,0.05,0.101,0.003,0.146,0.074
		c0.049,0.004-0.048-0.074,0.038-0.058C12.861,22.519,12.816,22.516,12.809,22.55z M12.792,22.021
		c-0.052-0.017-0.083-0.106,0.018-0.091C12.793,21.951,12.786,21.98,12.792,22.021z M13.01,22.55
		c-0.027-0.045-0.071-0.074-0.073-0.146C13.006,22.406,13.031,22.519,13.01,22.55z M13.12,16.181
		c-0.048-0.021-0.04-0.095-0.072-0.129c0.021,0.003,0.032-0.005,0.036-0.02C13.143,16.066,13.081,16.118,13.12,16.181z
		 M13.11,24.854c-0.056-0.039,0.034-0.107-0.038-0.129C13.13,24.688,13.163,24.809,13.11,24.854z M13.064,16.234
		c0.063-0.003,0.061,0.061,0.109,0.07C13.136,16.355,13.065,16.284,13.064,16.234z M13.374,16.343
		c0.006-0.019,0.036-0.013,0.036-0.036c0.035,0.022,0.04,0.071,0.074,0.092C13.452,16.445,13.402,16.359,13.374,16.343z
		 M14.688,24.013c-0.048,0.005-0.079-0.008-0.073-0.058c0.017-0.012,0.042-0.021,0.073-0.019
		C14.688,23.961,14.688,23.984,14.688,24.013z M16.711,22.971c0.003-0.025,0.003-0.051-0.018-0.055c0.002-0.044,0.062-0.005,0.071,0
		c0.011-0.061-0.013-0.088-0.018-0.129c-0.058-0.015-0.021,0.055-0.092,0.025c-0.034-0.08,0.071,0.008,0.055-0.104
		c0.019,0,0.037,0,0.055,0c-0.007,0.109,0.069,0.146,0.092,0.23C16.806,22.968,16.783,22.945,16.711,22.971z M16.748,22.606
		c0.024,0,0.053,0.001,0.054-0.02c0.101,0.007-0.062,0.084,0.038,0.091c-0.009,0.041-0.09,0.008-0.128,0.02
		C16.719,22.661,16.762,22.664,16.748,22.606z M16.802,22.714c0.082-0.003,0.05,0.108,0.074,0.167
		C16.779,22.855,16.852,22.772,16.802,22.714z M17.513,23.281c-0.015-0.01-0.028-0.021-0.054-0.021
		c0.007-0.033,0.082-0.001,0.054-0.069c-0.059,0.007-0.107,0.065-0.145,0c-0.037,0.001,0.024,0.047-0.019,0.069
		c0.014-0.009,0.029-0.019,0.055-0.019c0,0.049-0.05,0.048-0.073,0.073c-0.042-0.103-0.1-0.214-0.164-0.329
		c0.104,0.033,0.291,0.053,0.255,0.167c0.023-0.021,0.066-0.021,0.11-0.021c-0.012-0.018-0.041-0.018-0.036-0.056
		c0.098-0.02,0.12,0.007,0.199,0.038c-0.002,0.04-0.077,0.008-0.109,0.018c0.005,0.021,0.034,0.02,0.057,0.021
		C17.596,23.199,17.552,23.198,17.513,23.281z M17.404,22.516c0.079-0.088,0.141-0.011,0.274-0.021
		c0.014,0.036,0.033,0.069,0.04,0.112c0.028-0.008,0.021-0.059,0.077-0.037c0,0.022,0,0.048,0,0.072
		c-0.057,0.004-0.099-0.003-0.113-0.035c-0.046,0.02-0.036,0.077-0.003,0.104c-0.017-0.069,0.097-0.065,0.09,0.039
		c-0.033,0.002-0.061,0.014-0.073,0.037c-0.046-0.068-0.175-0.055-0.184-0.164c-0.015,0.016-0.04,0.02-0.072,0.019
		c0.044-0.04,0.036-0.065-0.036-0.072C17.417,22.554,17.433,22.519,17.404,22.516z M17.57,20.928
		c0.046-0.006,0.076,0.004,0.071,0.051C17.594,20.986,17.563,20.973,17.57,20.928z M17.585,24.305
		c0.069-0.009,0.184,0.099,0.256,0.145C17.771,24.461,17.68,24.33,17.585,24.305z M17.826,22.805c0-0.018,0-0.033,0-0.053
		c0.045,0.05,0.054-0.02,0.106-0.019C17.938,22.802,17.867,22.787,17.826,22.805z M18.098,23.695c-0.058-0.003-0.079,0-0.073-0.109
		c0.018,0,0.036,0,0.056,0C18.066,23.643,18.111,23.641,18.098,23.695z M18.115,24.65c0.073-0.012,0.177,0.104,0.257,0.145
		C18.296,24.811,18.205,24.686,18.115,24.65z M18.589,22.164c-0.071,0.032-0.006-0.075-0.055-0.069
		C18.562,22.041,18.608,22.117,18.589,22.164z M19.026,17.457c0.068,0,0.026,0.106,0.108,0.091
		C19.08,17.612,18.982,17.496,19.026,17.457z M19.156,17.492c-0.031-0.023,0.014-0.09-0.055-0.109c0.003-0.047,0.03,0.027,0.07,0
		C19.181,17.456,19.193,17.45,19.156,17.492z M20.267,19.885c-0.056,0.01-0.049-0.049-0.089-0.056
		c0.016-0.029,0.074-0.019,0.106-0.034C20.301,19.845,20.259,19.843,20.267,19.885z M19.844,11.335l-0.215,1.666h-2.65v1.152
		c0,0.009,0.031,0.017,0.046,0.017c-0.009,0.013-0.046,0.013-0.046,0.008v0.247c0,0.008,0.021,0.021,0.027,0.038
		c-0.006-0.002-0.027-0.005-0.027-0.005v7.543h-3.995v-9h-1.997v0.4c0,0.032-0.525,0.064-0.752,0.06
		c0.209-0.07,0.752-0.074,0.752-0.097V10h1.997V8.909C12.983,6.521,14.507,5,17.317,5h3.655v3H18.51
		c-1.093,0-1.164,0.018-1.164,0.783L17.34,10h2.602l-0.095,1.238c0.202-0.127,0.394-0.208,0.618-0.299
		C20.276,11.077,20.065,11.227,19.844,11.335z M19.976,9.115c0.021,0.003,0.03-0.003,0.036-0.019
		c0.038,0.047-0.006,0.062-0.02,0.126C19.954,9.223,19.987,9.146,19.976,9.115z M18.698,9.333c0.021,0.003,0.015,0.036,0.039,0.037
		c-0.027,0.027-0.073,0.039-0.129,0.037C18.608,9.352,18.7,9.388,18.698,9.333z M18.571,9.333c-0.014-0.061,0.03-0.066,0.073-0.073
		c0,0.024,0,0.049,0,0.073C18.621,9.333,18.595,9.333,18.571,9.333z M18.08,9.68c-0.038-0.017-0.058-0.054-0.056-0.11
		C18.083,9.566,18.111,9.646,18.08,9.68z M20.423,4.499c-0.018-0.002-0.114-0.004-0.109-0.038
		C20.398,4.435,20.756,4.526,20.423,4.499z M20.731,20.255c0.055,0,0.055,0.057,0.055,0.11
		C20.75,20.343,20.688,20.301,20.731,20.255z M20.679,3.969c-0.082,0.046-0.172,0.083-0.312,0.073
		c0.149-0.087,0.38-0.095,0.564-0.146C20.919,3.984,20.724,3.972,20.679,3.969z M20.877,3.781c0.02,0,0.036,0,0.055,0
		c-0.015,0.055,0.021,0.066,0.02,0.108C20.894,3.887,20.894,3.836,20.877,3.781z M21.022,3.715c-0.03-0.023-0.07-0.038-0.071-0.091
		c0.021,0.004,0.031-0.004,0.037-0.018C21.034,3.608,21.022,3.667,21.022,3.715z M20.897,3.531c0.026-0.051,0.095-0.063,0.165-0.073
		C21.104,3.443,20.942,3.515,20.897,3.531z M20.96,2.196c-0.002-0.021,0.003-0.033,0.019-0.036
		c-0.084-0.037,0.036-0.012,0.036-0.093c0.063-0.003,0.096,0.026,0.092,0.093C21.062,2.176,21.024,2.202,20.96,2.196z
		 M21.215,18.062c-0.047,0.004-0.047-0.04-0.054-0.075c0.019-0.02,0.062-0.019,0.105-0.018
		C21.232,18.02,21.263,18.026,21.215,18.062z M21.288,17.842c-0.016-0.004-0.02,0.008-0.021,0.019c-0.009,0-0.022,0-0.034,0
		c0.004-0.018-0.007-0.019-0.02-0.019c0-0.014,0-0.024,0-0.039c0.017,0.005,0.02-0.006,0.02-0.019c0.012,0,0.025,0,0.034,0
		c-0.002,0.019,0.01,0.019,0.021,0.019C21.288,17.817,21.288,17.828,21.288,17.842z M21.215,1.922
		c0.018,0.059-0.061,0.024-0.054,0.073c-0.009,0.042,0.099-0.042,0.105,0.02c-0.015,0.088-0.149-0.031-0.09,0.091
		c-0.059-0.027-0.095-0.076-0.108-0.146C21.156,1.985,21.146,1.913,21.215,1.922c0.007-0.042,0.013-0.085,0.073-0.073
		c-0.008,0.021-0.023,0.038-0.056,0.037c0.029,0.029,0.066-0.008,0.109,0.036C21.33,1.96,21.23,1.938,21.215,1.922z M21.343,17.896
		c0.06-0.079,0.071,0.135-0.019,0.109C21.313,17.959,21.404,17.93,21.343,17.896z M21.326,18.352c0.015-0.062-0.035-0.074,0-0.108
		c0.016,0.014,0.002,0.087,0.09,0.072C21.402,18.345,21.37,18.354,21.326,18.352z M21.343,17.823c0.021-0.054,0.021-0.097,0-0.146
		c0.06,0.013,0.028,0.119,0.091,0.125C21.416,17.836,21.37,17.853,21.343,17.823z M21.598,18.37
		c-0.067-0.003-0.05-0.063-0.035-0.109C21.608,18.264,21.598,18.32,21.598,18.37z M21.617,18.168
		c-0.021-0.066,0.062-0.033,0.071-0.072c0.052,0.018-0.04,0.074,0.055,0.058C21.738,18.193,21.653,18.158,21.617,18.168z
		 M21.653,18.297c0-0.014,0-0.023,0-0.036c0.029,0,0.06,0,0.09,0C21.762,18.32,21.688,18.289,21.653,18.297z M21.591,6.525
		c0.091-0.042,0.137,0.119,0.216,0.146C21.754,6.675,21.66,6.564,21.591,6.525z M21.407,5.557c0.003-0.016,0.032-0.035,0.079-0.049
		c0.015-0.043-0.011-0.06,0.012-0.095c0.058,0,0.023,0.06,0.025,0.083c0.161-0.044,0.43-0.066,0.395,0.026
		C21.823,5.465,21.628,5.586,21.407,5.557z M21.898,7.383c0.004-0.03,0.137-0.074,0.129,0C21.946,7.348,21.946,7.404,21.898,7.383z
		 M22.145,15.851c-0.03-0.005-0.034,0.015-0.036,0.036c-0.079-0.023-0.007-0.09-0.109-0.093c0-0.041,0.033-0.053,0.02-0.106
		c0.054,0.004,0.057-0.041,0.11-0.037c-0.006,0.031-0.032,0.041-0.074,0.037c0.013,0.016,0.021,0.03,0,0.036
		c0.121-0.006,0.014,0.063,0.107,0.127C22.159,15.871,22.145,15.86,22.145,15.851z M22.072,12.089
		c0.075,0.008,0.08,0.087,0.125,0.125C22.18,12.203,22.057,12.174,22.072,12.089z M22.217,15.763c0.021,0,0.036,0,0.056,0
		c-0.014,0.057,0.019,0.066,0.019,0.11C22.234,15.87,22.234,15.818,22.217,15.763z M22.364,15.703
		c-0.032-0.022-0.072-0.037-0.073-0.091c0.022,0.005,0.033-0.002,0.037-0.018C22.374,15.598,22.364,15.655,22.364,15.703z
		 M22.483,7.419c-0.004-0.054,0.065-0.063,0.092-0.036C22.55,7.44,22.534,7.393,22.483,7.419z M22.555,7.366
		c0.036-0.061,0.051-0.015,0.128-0.02C22.657,7.399,22.585,7.408,22.555,7.366z M22.746,4.13c0.036,0.008,0.077,0.007,0.072,0.055
		C22.771,4.19,22.729,4.192,22.746,4.13z M22.855,17.514c-0.011,0-0.025,0-0.036,0c0.028-0.054-0.004-0.071,0.02-0.109
		c0.071-0.001,0.005,0.092,0.038,0.092C22.878,17.511,22.867,17.514,22.855,17.514z M22.839,4.077
		c0.074-0.01,0.046,0.084,0.072,0.127c-0.065,0.015-0.024,0.122,0.018,0.164C22.744,4.346,22.899,4.206,22.839,4.077z M23.011,7.219
		c0.021-0.042,0.123-0.015,0.109,0.036c-0.045,0.024-0.076-0.053-0.09,0C23.001,7.249,23.044,7.223,23.011,7.219z M23.03,13.556
		c0.003-0.02,0.032-0.017,0.057-0.019c-0.019-0.025-0.037-0.052-0.065-0.06c0.079-0.031,0.112,0.142,0.201,0.164
		c-0.063,0.014-0.094-0.037-0.122-0.085c-0.01,0.06-0.057,0.076-0.018,0.145C22.992,13.686,23.113,13.564,23.03,13.556z
		 M23.192,14.249c-0.047-0.002-0.113,0.017-0.091-0.058c0.017,0.017,0.051,0.014,0.054,0.038c0.02,0,0.016-0.021,0.02-0.038
		c0.014-0.001,0.018,0.01,0.02,0.021C23.192,14.223,23.192,14.234,23.192,14.249z M23.192,13.976
		c0.006-0.038,0.051-0.036,0.074-0.056c-0.032-0.012,0.001-0.086-0.036-0.091c0.013-0.024,0.038-0.035,0.072-0.037
		C23.282,13.868,23.299,13.983,23.192,13.976z M23.567,19.318c-0.007-0.037,0.012-0.047,0.018-0.071
		c0.03-0.005,0.032,0.02,0.057,0.02C23.624,19.292,23.626,19.336,23.567,19.318z M23.585,18.389
		c-0.039,0.008-0.048-0.015-0.072-0.018c-0.039,0.025,0.021,0.053-0.035,0.07c0.006,0.062,0.054,0.082,0.09,0.113
		c-0.167,0.018-0.127-0.263,0-0.274c0.036,0.003,0.035,0.048,0.072,0.054C23.647,18.377,23.557,18.322,23.585,18.389z
		 M23.842,13.515c0.071,0.005,0.13,0.026,0.125,0.11C23.911,13.602,23.833,13.602,23.842,13.515z M24.06,14.664
		c-0.053,0.005-0.099,0.003-0.093-0.054C24.02,14.605,24.068,14.605,24.06,14.664z M24.231,17.462
		c-0.025-0.017-0.038-0.048-0.035-0.091c0.019,0,0.035,0,0.057,0C24.258,17.413,24.217,17.411,24.231,17.462z M24.113,13.642
		c0.075-0.042,0.119,0.101,0.237,0.073C24.304,13.787,24.143,13.706,24.113,13.642z M24.479,13.844
		c0.08-0.042,0.187,0.047,0.257,0.073C24.654,13.96,24.555,13.865,24.479,13.844z"/>
	<path fill="#233139" d="M13.685,4.773c0.01,0.008,0.016,0.017,0.021,0.025C13.702,4.786,13.699,4.775,13.685,4.773z"/>
	<path fill="#233139" d="M4.943,10.502c0.005-0.004,0.011-0.008,0.018-0.011C4.953,10.491,4.945,10.494,4.943,10.502z"/>
	<path fill="#233139" d="M17.605,22.643c-0.012-0.001-0.021-0.004-0.021-0.018c0.021,0,0.037,0,0.057,0c0-0.026,0-0.049,0-0.075
		c-0.042-0.005-0.04,0.033-0.093,0.02C17.548,22.604,17.586,22.686,17.605,22.643z"/>
	<path fill="#233139" d="M13.713,1.486c-0.012-0.002-0.022-0.002-0.018-0.019c0.018,0,0.035,0,0.054,0c0-0.023,0-0.048,0-0.073
		c-0.045-0.007-0.04,0.034-0.091,0.019C13.658,1.447,13.698,1.529,13.713,1.486z"/>
</g>
</svg>
