<?xml version="1.0" encoding="utf-8"?>
<!-- Generator: Adobe Illustrator 16.0.1, SVG Export Plug-In . SVG Version: 6.00 Build 0)  -->
<!DOCTYPE svg PUBLIC "-//W3C//DTD SVG 1.1//EN" "http://www.w3.org/Graphics/SVG/1.1/DTD/svg11.dtd">
<svg version="1.1" id="Layer_1" xmlns="http://www.w3.org/2000/svg" xmlns:xlink="http://www.w3.org/1999/xlink" x="0px" y="0px"
	  viewBox="0 0 25 25" enable-background="new 0 0 25 25" xml:space="preserve">
<g>
	<path fill="#233138" d="M23.722,6.492c0.002-0.012,0-0.092,0-0.092h-0.001c-0.059-1.367-2.203-2.466-4.846-2.466
		c-2.64,0-4.787,1.099-4.845,2.466l0,0v0.01c0,0.015,0,0.077,0,0.095v1.372c0,0.015-0.003,0.03-0.003,0.046
		c0,1.392,2.171,2.522,4.848,2.522c2.679,0,4.85-1.13,4.85-2.522c0-0.012-0.001-0.023-0.003-0.034V6.492z"/>
	<path fill="#233138" d="M11.516,9.323c0-0.006,0-0.013,0-0.018c0-1.808-2.577-3.275-5.759-3.275C2.578,6.03,0,7.497,0,9.305
		C0,9.31,0.001,9.317,0.001,9.323H0v1.824h0.001c0.021,1.797,2.589,3.25,5.755,3.25c3.168,0,5.736-1.453,5.759-3.25h0.001V9.323
		H11.516z"/>
	<path fill="#233138" d="M24.603,17.985c0-0.013-0.003-0.153-0.003-0.153c-0.096-2.644-3.408-4.765-7.486-4.765
		c-4.076,0-7.391,2.121-7.486,4.765H9.625c0,0-0.001,0.157,0,0.179v2.121h0.001c0.091,2.644,3.407,4.771,7.486,4.771
		c4.08,0,7.396-2.127,7.486-4.771h0.003c0,0,0-0.135,0-0.148V17.985z"/>
	<path fill="#233138" d="M13.766,1.476c-0.039-0.92-1.864-1.657-4.108-1.657c-2.246,0-4.069,0.737-4.108,1.657H5.548v0.971h0.001
		c0.044,0.917,1.867,1.654,4.108,1.654c2.242,0,4.062-0.737,4.106-1.654h0.003L13.766,1.476L13.766,1.476z"/>
	<path fill="#4D656A" d="M23.698,7.892V6.5c-0.036,1.373-2.181,2.477-4.823,2.477c-2.633,0-4.773-1.097-4.821-2.463v1.366
		c0,0.015-0.002,0.031-0.002,0.046c0,1.387,2.16,2.51,4.823,2.51c2.665,0,4.825-1.124,4.825-2.51
		C23.7,7.913,23.698,7.903,23.698,7.892z"/>
	<path fill="#4D656A" d="M11.516,9.323c-0.02,1.801-2.589,3.257-5.759,3.257c-3.167,0-5.737-1.457-5.755-3.257H0v1.824h0.001
		c0.021,1.797,2.589,3.25,5.755,3.25c3.168,0,5.736-1.453,5.759-3.25h0.001V9.323H11.516z"/>
	<path fill="#4D656A" d="M24.603,17.985c-0.03,2.681-3.371,4.843-7.489,4.843c-4.105,0-7.437-2.15-7.488-4.817
		c0,0-0.001,2.053,0,2.073v0.048h0.001c0.091,2.644,3.407,4.771,7.486,4.771c4.08,0,7.396-2.127,7.486-4.771h0.003V17.985z"/>
	<path fill="#4D656A" d="M9.657,3.194c-2.269,0-4.109-0.759-4.109-1.688v0.94h0.001c0.044,0.917,1.867,1.654,4.108,1.654
		c2.242,0,4.062-0.737,4.106-1.654h0.003v-0.94C13.767,2.436,11.927,3.194,9.657,3.194z"/>
</g>
</svg>
