<?xml version="1.0" encoding="utf-8"?>
<!-- Generator: Adobe Illustrator 16.0.1, SVG Export Plug-In . SVG Version: 6.00 Build 0)  -->
<!DOCTYPE svg PUBLIC "-//W3C//DTD SVG 1.1//EN" "http://www.w3.org/Graphics/SVG/1.1/DTD/svg11.dtd">
<svg version="1.1" id="Layer_1" xmlns="http://www.w3.org/2000/svg" xmlns:xlink="http://www.w3.org/1999/xlink" x="0px" y="0px"
	 viewBox="0 0 25 25" enable-background="new 0 0 25 25" xml:space="preserve">
<g>
	<path fill="#233138" d="M9.288,11.173c-0.009-0.001-0.018-0.003-0.015-0.019c0.015,0,0.03,0,0.045,0c0-0.024,0-0.048,0-0.073
		C9.28,11.074,9.285,11.115,9.243,11.1C9.242,11.133,9.274,11.217,9.288,11.173z"/>
	<path fill="#233138" d="M21.431,10.593c-0.01,0.073,0.038,0.073,0.09,0.073C21.513,10.613,21.464,10.613,21.431,10.593z"/>
	<path fill="#233138" d="M9.265,14.442c0.005,0.008,0.012,0.018,0.019,0.025C9.28,14.454,9.277,14.443,9.265,14.442z"/>
	<path fill="#233138" d="M21.771,10.466c0.064-0.012,0.104-0.055,0.102-0.146c-0.082-0.038-0.054,0.045-0.102,0.019
		c0.014,0.009,0,0.069,0.027,0.108C21.787,10.45,21.771,10.449,21.771,10.466z"/>
	<path fill="#233138" d="M16.061,21.718c0.054,0.009,0.063,0.069,0.091,0.111c1.305-1.116,2.412-2.477,3.315-3.989
		c-0.003-0.002-0.006-0.004-0.008-0.009c0.005-0.004,0.01-0.004,0.017-0.004c1.191-1.999,2.03-3.936,2.498-6.235
		c0.001-0.011,0.001,0.279,0.004,0.279c0,0,0,0,0.003,0c0.002,0,0.003,0,0.004,0c-0.007,0-0.013,0-0.021,0
		c0.012,0-0.003-0.372-0.003-0.405c-0.067-0.033-0.091-0.256-0.091-0.276c0-0.049,0-0.095,0-0.145c0-0.019,0.096-0.022,0.134-0.013
		c0.257-1.342,0.395-2.693,0.395-4.015c0-0.273,0-0.546-0.011-0.813c1-0.889,1.869-1.998,2.554-3.257
		c-0.92,0.5-1.902,0.838-2.939,0.99c1.058-0.78,1.87-2.011,2.254-3.479c-0.989,0.721-2.088,1.244-3.252,1.526
		C20.068,0.763,18.742,0,17.27,0c-1.196,0-2.298,0.505-3.17,1.352c0.263,0.244,0.521,0.624,0.803,0.89
		c-0.292-0.196-0.55-0.58-0.808-0.885c-1.182,1.152-1.941,3.397-1.941,5.394c0,0.236-0.117,1.164-0.096,1.164
		c0.005,0,0.411,0,0.411,0l0,0c0,0-0.276,0-0.278,0c0.001,0,0.002-0.406,0.004-0.392c0.021-0.005,0.047-0.22,0.047-0.253
		c0.016,0.005,0.01-0.071,0.03-0.071c-0.017,0.022-0.041-0.022-0.073-0.019c0.021,0.202,0.051,0.375,0.088,0.569
		C8.034,7.484,4.263,4.968,1.739,1.162C1.298,2.093,1.046,3.167,1.046,4.319c0,2.182,1.397,4.103,2.77,5.231
		C2.977,9.518,1.994,9.231,1.994,8.759c0,0.026,0,0.052,0,0.081c0,3.047,1.269,5.586,3.608,6.165
		c-0.43,0.146-1.127,0.223-1.594,0.223c-0.33,0-0.775-0.041-1.088-0.113c0.025,0.099-0.008,0.192,0.021,0.291
		c0.005-0.002-0.021-0.009-0.02-0.02c0.019,0.026-0.001,0.039-0.018,0.046c0.726,2.332,2.539,4.002,4.68,4.048
		c-0.036,0.037-0.076,0.07-0.113,0.104c-0.011,0.021-0.02,0.048-0.015,0.087c-0.015-0.006-0.03-0.023-0.037-0.041
		c-1.724,1.596-3.872,2.542-6.198,2.542c-0.414,0-0.82-0.028-1.221-0.088c2.264,1.784,4.953,2.822,7.844,2.822
		c3.306,0,6.085-1.178,8.299-3.072C16.114,21.816,16.051,21.785,16.061,21.718z M24.062,4.039c0.021-0.005,0.022,0.017,0.043,0.019
		c0.004,0.046-0.021,0.06-0.06,0.054C24.04,4.075,24.056,4.062,24.062,4.039z M16.453,17.019c0.026-0.062,0.04-0.015,0.104-0.02
		C16.536,17.054,16.478,17.061,16.453,17.019z M16.837,16.909c-0.022-0.004,0.013-0.03-0.017-0.035
		c0.017-0.041,0.103-0.015,0.092,0.035C16.874,16.934,16.849,16.856,16.837,16.909z M16.984,6.363
		c0.021-0.048,0.071-0.022,0.146-0.036C17.081,6.37,17.066,6.353,16.984,6.363z M17.228,20.465c0.039-0.088,0.129-0.201,0.222-0.162
		C17.448,20.445,17.325,20.438,17.228,20.465z M17.278,4.802c0.044-0.04,0.104,0.058,0.135,0.09
		C17.437,4.916,17.312,4.83,17.278,4.802z M17.361,10.499c-0.046,0-0.077-0.055-0.046-0.091
		C17.358,10.405,17.359,10.453,17.361,10.499z M17.286,10.191c0.039,0.002,0.029,0.061,0.029,0.108
		C17.294,10.273,17.26,10.221,17.286,10.191z M17.413,14.514c-0.062,0-0.103-0.029-0.179-0.019
		C17.228,14.488,17.418,14.416,17.413,14.514z M17.404,19.121c0.074,0.046-0.014,0.155-0.058,0.072
		C17.38,19.132,17.439,19.215,17.404,19.121z M17.863,17.743c-0.048,0.003-0.051-0.046-0.06-0.092
		c0.012,0.005,0.017,0.02,0.028,0.02c0.02-0.035,0.057-0.09,0.061,0C17.845,17.634,17.855,17.683,17.863,17.743z M17.278,17.019
		c0.006-0.028,0.026,0.016,0.032-0.02c0.445,0.298,1.005,0.587,1.431,0.966C18.286,17.68,17.746,17.352,17.278,17.019z
		 M17.524,14.438c0.056-0.004,0.059,0.062,0.103,0.074C17.624,14.58,17.539,14.47,17.524,14.438z M17.886,7.144
		c-0.031,0.042-0.075-0.026-0.09,0.054c-0.017-0.006-0.009-0.035-0.029-0.037c0.015-0.042,0.061-0.047,0.103-0.055
		C17.868,7.129,17.873,7.14,17.886,7.144z M18.549,6C18.54,6,18.53,6,18.52,6c0-0.023,0-0.048,0-0.073c0.017,0,0.029,0,0.045,0
		C18.53,5.951,18.592,5.98,18.549,6z M18.623,6.653c-0.08-0.002-0.156-0.169-0.253-0.217C18.456,6.435,18.536,6.598,18.623,6.653z
		 M19.185,14.188c-0.163,0.082-0.379,0.103-0.575,0.146C18.76,14.244,19.015,14.192,19.185,14.188z M18.639,6.708
		c0.062-0.01,0.133,0.125,0.191,0.181C18.775,6.889,18.712,6.744,18.639,6.708z M19.252,16.435c-0.035,0-0.044,0.032-0.089,0.02
		c0.031-0.062,0.051-0.072,0.014-0.146c0.088-0.066,0.01,0.096,0.09,0.037C19.254,16.364,19.247,16.393,19.252,16.435z
		 M19.275,16.675c0.028,0.005,0.038,0.033,0.058,0.053c-0.003,0.037-0.055,0.018-0.058,0.055
		C19.222,16.745,19.269,16.729,19.275,16.675z M18.927,16.253c0.02-0.012,0.064-0.007,0.104,0c-0.007,0.061,0.026,0.078,0.045,0.109
		c-0.008,0.043-0.023-0.022-0.045,0.02c0,0.072,0.118,0,0.118,0.072c-0.019,0.044-0.029,0.096-0.089,0.092
		c0.001-0.099-0.052-0.134-0.104-0.164C18.98,16.32,18.956,16.292,18.927,16.253z M19.113,16.292c0,0.011,0,0.021,0,0.035
		c-0.044,0-0.038-0.049-0.077-0.055c0.018-0.051,0.072,0,0.098,0C19.136,16.287,19.156,16.29,19.113,16.292z M18.778,15.871
		c0.066,0.031,0.104,0.095,0.117,0.183c-0.077-0.042-0.072,0.048-0.16,0.037C18.831,16.051,18.76,15.957,18.778,15.871z
		 M18.564,14.331c-0.15,0.028-0.279,0.078-0.458,0.072C18.228,14.352,18.45,14.334,18.564,14.331z M18.106,7.271
		c0.012-0.027,0.048-0.025,0.076-0.037C18.192,7.296,18.128,7.299,18.106,7.271z M18.142,9.88c-0.018,0.027-0.063,0.048-0.086,0.019
		c0.006-0.012,0.014-0.027,0.014-0.054C18.115,9.832,18.1,9.896,18.142,9.88z M18.096,7.306c-0.045-0.005-0.056-0.067-0.12-0.054
		c-0.008-0.025,0.019-0.093-0.014-0.092C18,7.107,18.051,7.179,18.096,7.143C18.096,7.197,18.096,7.252,18.096,7.306z
		 M17.989,14.423c-0.058,0.041-0.151,0.044-0.223,0.02C17.823,14.409,17.923,14.388,17.989,14.423z M17.7,8.482
		c0.021,0,0.04,0,0.06,0c-0.011,0,0,0.135,0.062,0.127c-0.016,0.095-0.066,0.061-0.12,0.038C17.749,8.596,17.724,8.536,17.7,8.482z
		 M17.757,8.429c0.034-0.006,0.028,0.032,0.072,0.018c0,0.061,0,0.122,0,0.181C17.831,8.552,17.776,8.5,17.757,8.429z
		 M17.827,13.498c0.045,0.089-0.096,0.02-0.089-0.054C17.775,13.439,17.809,13.536,17.827,13.498z M17.872,7.342
		c-0.024,0.031-0.087,0.014-0.134,0.019c-0.003-0.032,0.019-0.038,0.015-0.072c0.03,0.048,0.026,0.054,0.089,0.038
		c0.007-0.058-0.045-0.041-0.029-0.11c0.046-0.014,0.055,0.019,0.088,0.019C17.857,7.254,17.847,7.284,17.872,7.342z M17.767,6.725
		c-0.064,0.002-0.035-0.114-0.073-0.145c0.042-0.015,0.038,0.023,0.073,0.017C17.77,6.674,17.749,6.669,17.767,6.725z
		 M18.853,16.181c-0.027-0.005-0.029,0.02-0.014,0.02c-0.09,0.053-0.009-0.101-0.031-0.127c0.015,0.011,0.028,0.021,0.031,0
		C18.87,16.073,18.845,16.149,18.853,16.181z M19.008,16.8c-0.017-0.004-0.009-0.018,0-0.018c-0.022,0.011-0.11,0.007-0.134-0.074
		c0.003-0.068,0.051-0.081,0.045-0.162c0.045,0.028-0.014,0.081,0,0.129c0.006,0.022,0.023,0.026,0.029,0.053
		c0.021-0.007,0.013-0.044,0.016-0.072c0.017,0.005,0.031,0.02,0.044,0.037c-0.007-0.018-0.008-0.035-0.022-0.039
		c0.02-0.005,0.074-0.016,0.134-0.02c-0.008,0.057-0.056,0.065-0.104,0.072C19.032,16.74,19.032,16.78,19.008,16.8z M19.082,17.364
		c0.027-0.055,0.092,0.005,0.132,0C19.187,17.415,19.122,17.358,19.082,17.364z M19.185,16.837c0.01-0.062,0.057-0.026,0.091-0.016
		C19.255,16.846,19.208,16.868,19.185,16.837z M19.282,17.29c-0.006-0.074,0.021-0.182,0.103-0.201
		c-0.015,0.09,0.039,0.099,0.044,0.164c-0.062,0.011-0.139,0.074-0.191,0.037C19.247,17.255,19.263,17.286,19.282,17.29z
		 M19.467,7.668c-0.027-0.017-0.053-0.034-0.045-0.089C19.455,7.59,19.495,7.633,19.467,7.668z M19.479,9.666
		c-0.038,0.005-0.062-0.005-0.058-0.055C19.46,9.607,19.485,9.62,19.479,9.666z M19.629,14.042c-0.063,0.037-0.235,0.15-0.266,0.055
		C19.474,14.104,19.522,14.037,19.629,14.042z M19.556,9.611c-0.018-0.002-0.014-0.031-0.018-0.054
		c0.013,0.004,0.014-0.008,0.018-0.017c0.021,0.007,0.012,0.057,0.058,0.036C19.668,9.611,19.543,9.572,19.556,9.611z
		 M19.288,17.399c-0.13-0.03,0.04-0.02,0.044-0.018c0.045,0.003,0.25,0.068,0.34,0.072C19.599,17.492,19.403,17.428,19.288,17.399z
		 M19.718,14.042c0.02-0.066,0.109-0.049,0.177-0.055C19.86,14.037,19.766,14.012,19.718,14.042z M19.711,9.446
		c0.03-0.034,0.07-0.056,0.088-0.11C19.832,9.377,19.742,9.487,19.711,9.446z M19.827,9.336c0.018-0.048,0.079-0.002,0.059,0.057
		C19.827,9.421,19.855,9.345,19.827,9.336z M19.917,9.446c0.013-0.065,0.034-0.003,0.088-0.019
		C19.995,9.487,19.948,9.454,19.917,9.446z M19.982,5.6c-0.062-0.008-0.072,0.026-0.117,0c0.019-0.094,0.083-0.042,0.075-0.145
		c0.045-0.017,0.044,0.027,0.072,0.036C20.021,5.546,19.991,5.562,19.982,5.6z M20.064,9.408C20.04,9.389,20.047,9.353,20.033,9.3
		c0.013,0,0.021,0,0.031,0C20.083,9.299,20.083,9.385,20.064,9.408z M20.24,10.789c-0.045,0.026-0.096-0.001-0.103-0.073
		c0.065,0.038,0.082,0.069,0.146,0.038c0.03,0.054-0.024,0.122,0.061,0.126c-0.025,0.049-0.088-0.013-0.073-0.073
		C20.247,10.83,20.212,10.833,20.24,10.789z M20.146,8.105c0.026,0.046,0.102,0.033,0.104,0.11c-0.02-0.026-0.072-0.028-0.074,0.017
		C20.147,8.21,20.163,8.138,20.146,8.105z M20.345,11.079c-0.019-0.023-0.078,0-0.061-0.072
		C20.319,11.013,20.354,11.019,20.345,11.079z M20.358,10.716c-0.032-0.013-0.075-0.015-0.104-0.036
		C20.25,10.679,20.375,10.615,20.358,10.716z M20.47,8.231c-0.027-0.044-0.047-0.114-0.118-0.146c-0.04,0.015,0.047,0.015,0,0.071
		c-0.023,0-0.05,0-0.073,0c0.008-0.056-0.019-0.105,0.014-0.107c-0.069-0.006-0.048-0.169-0.132-0.109
		c0.018-0.092,0.139-0.053,0.191-0.017c-0.001,0.021-0.024,0.015-0.044,0.019c0.043,0.062,0.142,0.023,0.178,0.126
		c-0.031,0.006-0.057-0.004-0.059-0.038C20.395,8.03,20.42,8.097,20.41,8.123c0.049-0.011,0.067,0.014,0.103,0.019
		C20.472,8.176,20.481,8.187,20.47,8.231z M20.986,8.559c-0.027,0.002-0.049,0.011-0.06,0.038c-0.033-0.008-0.011-0.098,0-0.111
		C20.948,8.508,20.994,8.503,20.986,8.559z M21.194,8.849c-0.026,0.006-0.087-0.065-0.06-0.017c0,0.017-0.019,0.013-0.029,0.017
		c0.003-0.015-0.006-0.017-0.016-0.017C21.102,8.789,21.205,8.769,21.194,8.849z M21.217,9.574c0.001-0.027,0.003-0.053-0.016-0.057
		c0.004-0.024,0.037-0.015,0.059-0.017C21.237,9.514,21.266,9.589,21.217,9.574z M21.283,10.647c0-0.019,0-0.037,0-0.054
		c0,0.005,0.02-0.015,0.021-0.037c0.02-0.057,0.017,0.052-0.004,0.054c0.038-0.002,0.053-0.034,0.078,0
		C21.357,10.639,21.327,10.649,21.283,10.647z M21.298,10.228c0.042-0.023,0.037-0.001,0.104,0
		C21.389,10.249,21.294,10.307,21.298,10.228z M21.49,10.81c0.023-0.044-0.019-0.063,0.014-0.09
		c-0.021-0.041-0.087-0.023-0.118-0.054c0.009-0.058,0.053-0.071,0.061-0.126c0.032,0.032,0.079,0.048,0.103,0.089
		c0.036-0.051,0.09-0.083,0.133-0.127c-0.004-0.056-0.072-0.029-0.058,0.038c-0.058-0.017-0.02-0.082,0.027-0.073
		c-0.006-0.062-0.059,0.048-0.043-0.038c0.032-0.042,0.039,0.03,0.072,0.038c0.061-0.067-0.046-0.074-0.043-0.126
		c0.052-0.012,0.161-0.124,0.249-0.038c0.023,0.082,0,0.107,0,0.2c-0.016-0.001-0.024,0.004-0.027,0.019
		c-0.068,0.017-0.072-0.044-0.134-0.036c-0.003,0.09-0.085,0.017-0.029,0.145c0.025-0.003,0.033-0.03,0.029-0.073
		c0.032,0.003,0.031,0.046,0.028,0.091c-0.052,0.023-0.141,0.072-0.189,0.036c-0.029-0.008-0.021,0.084,0.013,0.056
		C21.538,10.75,21.536,10.807,21.49,10.81z M21.564,10.539c-0.036,0.005-0.057-0.004-0.074-0.019
		c0.012-0.017,0.014-0.041,0.014-0.073C21.528,10.471,21.555,10.494,21.564,10.539z M21.534,10.466c0.001-0.09,0.03-0.09,0.09-0.073
		C21.602,10.427,21.59,10.473,21.534,10.466z M21.756,10.104c0.02,0,0.039,0,0.059,0c-0.003,0.032,0.021,0.037,0.017,0.073
		C21.779,10.183,21.745,10.17,21.756,10.104z M22.021,10.864c-0.046,0.014-0.054-0.017-0.089-0.017
		c0.072,0.159-0.172,0.017-0.147,0.144c-0.145-0.001-0.091-0.139-0.207-0.181c0.018-0.055,0.058,0.013,0.074,0.019
		c0.029,0.008,0.021-0.082-0.014-0.055c0.03-0.061,0.066,0.023,0.103,0.019c0.025-0.061,0.039-0.136,0.104-0.146
		c0.051,0.081-0.021,0.145,0.028,0.181c0.046-0.036,0.06-0.055,0.104-0.055c-0.006-0.085-0.048-0.021-0.104-0.054
		c0.01-0.124,0.085,0.019,0.118-0.037c-0.036-0.028-0.058-0.066-0.06-0.09c0.028-0.026,0.069-0.019,0.104,0.017
		C21.978,10.598,22.021,10.778,22.021,10.864z M21.991,10.32c0.021,0.027,0.076,0.016,0.118,0.019
		C22.102,10.4,21.989,10.378,21.991,10.32z M22.102,9.574C22.1,9.589,22.107,9.59,22.118,9.59c-0.026,0.063-0.044-0.041-0.017-0.054
		c0.039-0.013,0.028,0.038,0.061,0.038C22.15,9.628,22.13,9.555,22.102,9.574z M22.176,9.355c-0.044,0.023,0.032,0.093-0.014,0.126
		c-0.029-0.073-0.122-0.069-0.179-0.107c-0.001-0.01,0.091-0.012,0.016-0.038c0.017-0.042,0.059,0.017,0.073-0.038
		c0.05,0,0.099,0,0.146,0c0,0-0.017,0.015-0.028,0.019c-0.004,0.044,0.021,0.058,0.045,0.073
		C22.211,9.454,22.205,9.345,22.176,9.355z M21.369,2.386c0.037,0.008,0.071,0.013,0.062,0.073
		c-0.034,0.006-0.057-0.002-0.073-0.017C21.364,2.427,21.372,2.412,21.369,2.386z M21.062,3.912
		c0.033-0.005,0.016,0.052,0.045,0.054C21.082,4.023,21.018,3.943,21.062,3.912z M20.264,1.587c0.021,0.017,0.047,0.028,0.044,0.073
		c-0.034,0.007-0.032-0.033-0.072-0.019C20.238,1.618,20.26,1.614,20.264,1.587z M19.599,1.806c0.019,0.077-0.049,0.048-0.061,0.09
		C19.5,1.865,19.549,1.791,19.599,1.806z M19.156,2.096c0.018,0.017,0.004,0.034,0.014,0.092c-0.047,0.022-0.011-0.061-0.058-0.038
		C19.108,2.109,19.155,2.13,19.156,2.096z M19.112,2.023c-0.031,0.041-0.089,0.061-0.074,0.111
		c-0.014,0.038-0.009-0.036-0.017-0.092C19.067,2.055,19.067,2.01,19.112,2.023z M22.567,5.382c-1.508-0.225-2.844-0.813-4.119-1.38
		c-0.026,0.005-0.028-0.015-0.03-0.038C19.735,4.521,21.074,5.046,22.567,5.382z M18.379,5.001c0.027,0.027,0.066,0.055,0.062,0.109
		c-0.021,0-0.04,0-0.062,0C18.358,5.11,18.358,5.024,18.379,5.001z M18.196,7.306c0.04,0.028,0.077-0.015,0.116,0.036
		C18.296,7.336,18.185,7.403,18.196,7.306z M18.165,2.423c0.021,0.005,0.022,0.032,0.045,0.036
		c-0.022,0.034-0.088,0.052-0.089-0.017C18.142,2.442,18.163,2.444,18.165,2.423z M18.048,2.042c-0.055,0-0.057-0.063-0.089-0.092
		C17.93,1.922,18.075,1.958,18.048,2.042z M17.648,1.969c0.045,0,0.118,0.055,0.135-0.019C17.822,1.988,17.621,2.104,17.648,1.969z
		 M17.693,2.386c0.003,0.04-0.053,0.01-0.073,0.019c-0.015-0.015-0.009-0.051-0.029-0.055C17.611,2.306,17.655,2.39,17.693,2.386z
		 M17.632,3.638c0.246,0.052,0.437,0.17,0.638,0.273c-0.235-0.032-0.497-0.188-0.737-0.273C17.543,3.585,17.624,3.567,17.632,3.638z
		 M17.493,11.606c0.024,0,0.039-0.013,0.046-0.036c0.024,0.011,0.009,0.042-0.015,0.036c-0.004,0.021,0.004,0.032,0.015,0.036
		c0.003,0.017-0.007,0.019-0.015,0.019c-0.012,0-0.021,0-0.031,0C17.493,11.642,17.493,11.625,17.493,11.606z M17.472,3.549
		c-0.119,0.073-0.322-0.047-0.414-0.127C17.239,3.411,17.34,3.499,17.472,3.549z M17.206,0.594c-0.005,0.054-0.02,0.064,0,0.089
		c-0.003,0.02-0.015,0.008-0.015-0.002c-0.014-0.003-0.015,0.007-0.016,0.02c-0.009-0.03,0.02-0.053-0.016-0.105
		C17.176,0.594,17.191,0.594,17.206,0.594z M17.058,0.536c0.029,0.025-0.016,0.062,0.017,0.108
		C16.994,0.665,17.039,0.552,17.058,0.536z M17.058,3.367c-0.093,0.131-0.274-0.032-0.339-0.11
		C16.814,3.244,16.93,3.358,17.058,3.367z M16.681,13.747c0.062-0.007,0.04,0.087,0.06,0.128c-0.054,0.015-0.02,0.122,0.017,0.162
		C16.605,14.018,16.731,13.877,16.681,13.747z M16.608,13.802c0.025,0.008,0.062,0.008,0.059,0.055
		C16.628,13.862,16.592,13.862,16.608,13.802z M16.57,8.904c-0.03,0-0.019-0.048-0.06-0.035c0.004-0.063,0.041-0.044,0.015-0.109
		C16.57,8.771,16.574,8.832,16.57,8.904z M16.54,2.587c-0.003,0.069-0.087-0.041-0.104-0.073C16.494,2.511,16.494,2.577,16.54,2.587
		z M16.466,17.036c-0.019,0.06-0.029,0.011-0.073,0.037C16.391,17.019,16.443,17.008,16.466,17.036z M16.319,7.2
		c0.072,0.042-0.017,0.153-0.061,0.071C16.295,7.21,16.354,7.292,16.319,7.2z M12.213,6.616c-0.039,0.006-0.038-0.038-0.044-0.074
		c0.018-0.021,0.052-0.021,0.088-0.016C12.228,6.58,12.251,6.584,12.213,6.616z M12.272,6.399c-0.013-0.004-0.014,0.006-0.015,0.017
		c-0.01,0-0.021,0-0.029,0c0.002-0.015-0.006-0.017-0.015-0.017c0-0.013,0-0.024,0-0.038c0.013,0.004,0.014-0.007,0.015-0.019
		c0.009,0,0.019,0,0.029,0c-0.002,0.017,0.005,0.019,0.015,0.019C12.272,6.375,12.272,6.387,12.272,6.399z M2.417,6.399
		c-0.019-0.058,0.048-0.013,0.03-0.073c0.015,0,0.029,0,0.043,0C2.489,6.379,2.467,6.405,2.417,6.399z M3.105,9.683
		C3.143,9.679,3.151,9.71,3.18,9.718C3.167,9.761,3.089,9.736,3.105,9.683z M3.209,11.716c0.055-0.01,0.052,0.057,0.088,0.072
		C3.289,11.85,3.184,11.807,3.209,11.716z M5.004,12.209c-0.001,0.144-0.101,0.026-0.133,0C4.903,12.129,4.935,12.266,5.004,12.209z
		 M4.767,12.137c0.038-0.004,0.046,0.027,0.073,0.038C4.842,12.226,4.75,12.207,4.767,12.137z M2.625,7.332
		c-0.02-0.005-0.012-0.041-0.014-0.069c-0.025,0.007-0.028-0.032-0.03-0.032c0.015,0,0.03,0,0.044,0
		C2.626,7.286,2.642,7.275,2.625,7.332z M2.641,6.725c0.096-0.07,0.235-0.086,0.354-0.127C2.891,6.66,2.769,6.695,2.641,6.725z
		 M3.009,6.598c0.028-0.057,0.115-0.042,0.178-0.055C3.143,6.582,3.083,6.598,3.009,6.598z M3.319,8.688
		C3.325,8.66,3.366,8.67,3.349,8.614c0.03,0.043,0.075-0.035,0.074,0.055C3.358,8.643,3.354,8.731,3.319,8.688z M3.466,8.634
		C3.489,8.589,3.532,8.671,3.57,8.67C3.534,8.731,3.486,8.653,3.466,8.634z M3.732,5.945c-0.094-0.011-0.049-0.197,0-0.235
		C3.731,5.775,3.732,5.84,3.732,5.945z M3.777,5.674c0.024,0,0.05,0,0.074,0c0.012,0.075-0.023,0.093-0.074,0.089
		C3.777,5.734,3.777,5.705,3.777,5.674z M3.984,14.134c0.067-0.092,0.125,0.027,0.178,0c0.006,0.062-0.044,0.054-0.06,0.092
		c-0.055-0.049-0.119-0.087-0.207-0.092c0.011-0.102,0.122-0.081,0.133-0.183c0.07,0.048,0.174,0.054,0.207,0.146
		c-0.047-0.053-0.132-0.011-0.178-0.093c-0.008,0.028-0.068,0.141-0.074,0.056c-0.012,0.003-0.014,0.019-0.03,0.019
		C3.954,14.111,3.965,14.125,3.984,14.134z M4.546,6.399C4.584,6.42,4.588,6.48,4.59,6.544C4.556,6.521,4.562,6.447,4.546,6.399z
		 M4.884,12.391c-0.012,0.007-0.026,0.015-0.029,0.036c-0.031,0.004-0.007-0.063-0.016-0.089c-0.008,0.024-0.057,0.001-0.059,0.036
		c-0.024-0.007-0.013-0.057-0.06-0.036c0.009-0.017,0.018-0.034,0-0.038c0.039-0.035,0.055,0.012,0.133,0
		C4.846,12.356,4.897,12.335,4.884,12.391z M4.958,12.554C4.98,12.6,5.027,12.615,5.033,12.68
		C4.981,12.661,4.919,12.634,4.958,12.554z M3.926,17.054c0.056-0.067,0.106-0.146,0.191-0.18
		C4.062,16.944,4.003,17.01,3.926,17.054z M4.206,17.059c0.036-0.068,0.026,0.074,0.06,0.069
		C4.226,17.196,4.226,17.069,4.206,17.059z M4.738,17.472c-0.05,0.014-0.052-0.063-0.029-0.09
		C4.758,17.364,4.731,17.439,4.738,17.472z M4.819,17.868c-0.095-0.013-0.05-0.197,0-0.236C4.816,17.697,4.818,17.764,4.819,17.868z
		 M4.863,17.687c0-0.03,0-0.062,0-0.092c0.025,0,0.05,0,0.073,0C4.949,17.671,4.916,17.688,4.863,17.687z M7.233,10.032
		c-0.077,0.076,0.051,0.021,0.044,0.107c-0.071,0.013-0.066-0.065-0.134-0.056c-0.003-0.029,0.025-0.047,0-0.052
		C7.167,10.007,7.178,10.063,7.233,10.032z M7.19,9.976c-0.006,0.061-0.084-0.056-0.044,0c-0.003,0.026-0.044,0.007-0.044,0.038
		c0-0.049,0.018-0.12-0.044-0.163C7.098,9.824,7.152,9.936,7.19,9.976z M6.954,9.759c0.015,0,0.03,0,0.043,0
		C6.998,9.787,6.99,9.828,7.013,9.832C6.993,9.877,6.94,9.813,6.954,9.759z M6.717,6.015c0.045,0.034,0.124,0.021,0.111,0.075
		c-0.03,0-0.066,0-0.111,0C6.717,6.089,6.717,6.038,6.717,6.015z M5.638,11.394c-0.039,0.005-0.062-0.007-0.059-0.055
		C5.618,11.333,5.654,11.332,5.638,11.394z M6.636,6.304C6.629,6.267,6.656,6.271,6.68,6.269C6.683,6.254,6.674,6.252,6.666,6.25
		C6.7,6.181,6.687,6.319,6.725,6.304C6.724,6.34,6.675,6.284,6.636,6.304z M6.657,9.903c0.06-0.007-0.02,0.057,0.06,0.038
		c0,0.019,0,0.036,0,0.055C6.67,9.998,6.666,9.948,6.657,9.903z M6.754,12.442c-0.011-0.009-0.023-0.019-0.043-0.019
		C6.7,12.375,6.74,12.388,6.741,12.35C6.771,12.348,6.746,12.415,6.754,12.442z M6.74,6.269c0.062,0.015,0.085,0.015,0.147,0
		c0.004-0.048-0.021-0.06-0.06-0.054c0.004-0.021,0.03-0.013,0.03-0.038c0.06-0.006,0.045,0.08,0.089,0.092
		C6.901,6.328,6.768,6.382,6.74,6.269z M6.99,12.079c0.179,0.114,0.021,0.028-0.119,0.055c0.003-0.021-0.002-0.034-0.014-0.038
		c0.04-0.046,0.168-0.086,0.266-0.089C7.098,12.053,7.029,12.047,6.99,12.079z M7.16,10.284c-0.05-0.017-0.008-0.034-0.016-0.089
		c0.032-0.004,0.048,0.015,0.045,0.055C7.165,10.242,7.162,10.263,7.16,10.284z M7.219,16.747c0.032,0.042,0.043-0.009,0.089,0
		C7.329,16.805,7.198,16.805,7.219,16.747z M7.507,7.483c-0.003-0.046,0.021-0.058,0.06-0.055C7.57,7.479,7.546,7.49,7.507,7.483z
		 M12.154,19.814c-0.058,0.028-0.004-0.076-0.044-0.072C12.13,19.69,12.168,19.765,12.154,19.814z M12.176,22.733
		c-0.026,0.057-0.022-0.079-0.074-0.055C12.132,22.589,12.163,22.694,12.176,22.733z M11.09,10.812
		c-0.028,0.057-0.022-0.082-0.074-0.055C11.046,10.666,11.078,10.774,11.09,10.812z M10.854,10.576
		c-0.015,0.034-0.075-0.028-0.119-0.019C10.76,10.511,10.838,10.55,10.854,10.576z M10.728,10.427
		c-0.041,0.013-0.03-0.038-0.06-0.038c0.04-0.023,0.021-0.05-0.016-0.071C10.694,10.263,10.746,10.348,10.728,10.427z
		 M10.661,20.253c0.021,0,0.042,0,0.044-0.02c0.079,0.013-0.053,0.085,0.029,0.092c-0.006,0.039-0.072,0.006-0.103,0.018
		C10.638,20.308,10.673,20.31,10.661,20.253z M10.478,21.337c0.019-0.022,0.054-0.022,0.073,0c0,0.037-0.041,0.021-0.03,0.071
		C10.5,21.394,10.463,21.394,10.478,21.337z M10.373,22.009c-0.019-0.009-0.023-0.033-0.044-0.035c0.013-0.033,0.049-0.07,0-0.037
		c0-0.024,0.053-0.065,0.044-0.127C10.445,21.849,10.37,21.94,10.373,22.009z M9.568,10.195c-0.027,0.007-0.012,0.069-0.059,0.055
		c0.029-0.069-0.035-0.159-0.059-0.217C9.502,10.069,9.548,10.116,9.568,10.195z M9.346,14.298
		c-0.003,0.029-0.043,0.016-0.056,0.033c0.001,0.006,0,0.013-0.003,0.021c0-0.008,0-0.017,0.003-0.021
		C9.287,14.3,9.224,14.31,9.212,14.26c0.076,0.04,0.066-0.023,0.133-0.034c0.028,0.012-0.008,0.019-0.03,0.017
		C9.317,14.273,9.328,14.289,9.346,14.298z M9.323,14.516c-0.006,0.027-0.038-0.008-0.038,0c0-0.021,0-0.036,0-0.055
		c-0.043-0.002-0.052-0.035-0.065,0.019c0.012,0.038-0.022-0.021-0.003-0.092c0.02,0.014,0.031,0.029,0.045,0.048
		c0.026-0.043,0.095,0.032,0.057,0.061c-0.006,0-0.007,0.002-0.011,0.002C9.312,14.504,9.319,14.509,9.323,14.516z M9.273,12.824
		c0.055-0.005,0.147,0.098,0.207,0.146C9.422,12.98,9.348,12.855,9.273,12.824z M9.391,9.414c0.019-0.023,0.054-0.023,0.074,0
		c-0.001,0.037-0.04,0.023-0.03,0.072C9.414,9.471,9.378,9.471,9.391,9.414z M9.435,9.921C9.404,9.875,9.358,9.845,9.346,9.776
		C9.388,9.806,9.461,9.868,9.435,9.921z M9.242,10.013c0-0.022,0.053-0.065,0.044-0.126c0.071,0.039-0.004,0.132,0,0.197
		c-0.02-0.004-0.023-0.031-0.044-0.035C9.256,10.017,9.292,9.979,9.242,10.013z M9.214,10.395c0.021,0.028,0.077,0.017,0.074-0.038
		c0.011,0.01,0.023,0.021,0.044,0.019c-0.025,0.036,0.001,0.022,0,0.073c-0.044-0.023-0.065,0.011-0.133,0
		C9.207,10.434,9.215,10.418,9.214,10.395z M9.126,11.047c0.062-0.088,0.113-0.013,0.222-0.019c0.012,0.034,0.016,0.064,0.021,0.108
		c0.022-0.007,0.005-0.059,0.05-0.036c0,0.025,0,0.046,0,0.073c-0.044,0.002-0.066-0.005-0.08-0.037
		c-0.037,0.021-0.021,0.079,0.004,0.107c-0.012-0.072,0.083-0.069,0.077,0.038c-0.028,0.002-0.049,0.011-0.059,0.036
		c-0.038-0.067-0.141-0.057-0.146-0.162c-0.013,0.013-0.035,0.019-0.06,0.019c0.036-0.042,0.029-0.067-0.029-0.073
		C9.136,11.086,9.148,11.051,9.126,11.047z M9.14,11.683c0.018-0.022,0.053-0.022,0.089-0.019c-0.01-0.019-0.034-0.019-0.03-0.055
		c0.079-0.022,0.098,0.006,0.163,0.036c-0.002,0.042-0.063,0.007-0.088,0.019c0.001,0.021,0.027,0.015,0.045,0.019
		c-0.04,0.046-0.073,0.042-0.104,0.125c-0.012-0.009-0.024-0.019-0.044-0.017c0.006-0.036,0.068-0.002,0.044-0.074
		c-0.048,0.009-0.088,0.065-0.119,0c-0.032,0.005,0.021,0.049-0.016,0.074c0.013-0.011,0.025-0.02,0.045-0.02
		c0,0.049-0.042,0.047-0.06,0.074c-0.034-0.105-0.081-0.213-0.133-0.328C9.017,11.552,9.167,11.568,9.14,11.683z M8.276,21.899
		c-0.006,0.061-0.084-0.058-0.044,0c-0.003,0.026-0.044,0.009-0.044,0.037c-0.001-0.049,0.018-0.12-0.043-0.164
		C8.184,21.744,8.239,21.859,8.276,21.899z M8.232,22.116c0.033-0.003,0.046,0.018,0.044,0.055
		c-0.025-0.007-0.028,0.015-0.029,0.035C8.197,22.19,8.239,22.173,8.232,22.116z M8.099,21.752c-0.02,0.047-0.071-0.02-0.06-0.071
		c0.014,0,0.03,0,0.043,0C8.085,21.711,8.076,21.748,8.099,21.752z M8.099,15.508c-0.046-0.011-0.043,0.033-0.088,0.02
		C7.998,15.458,8.104,15.418,8.099,15.508z M7.958,13.988c0.027,0.021,0.031,0.069,0.059,0.092
		c-0.025,0.048-0.067-0.037-0.089-0.055C7.931,14.006,7.957,14.012,7.958,13.988z M7.803,21.864c0,0.018,0,0.035,0,0.055
		c-0.046,0.002-0.051-0.048-0.06-0.092C7.806,21.816,7.725,21.882,7.803,21.864z M7.765,13.988c-0.031,0.05-0.087-0.022-0.088-0.071
		C7.729,13.912,7.726,13.979,7.765,13.988z M7.692,13.717c0.047,0.032,0,0.082,0.03,0.145c-0.037-0.02-0.033-0.092-0.06-0.126
		C7.679,13.737,7.689,13.731,7.692,13.717z M7.685,17.687c0.033,0.002,0.007,0.077,0.016,0.109c-0.035-0.03-0.063-0.067-0.119-0.072
		C7.583,17.647,7.659,17.75,7.685,17.687z M7.632,20.198c-0.022-0.044-0.058-0.075-0.06-0.147
		C7.63,20.051,7.649,20.163,7.632,20.198z M6.09,24.133c0,0.145-0.1,0.025-0.133,0C5.988,24.052,6.021,24.189,6.09,24.133z
		 M5.853,24.061c0.038-0.005,0.045,0.025,0.073,0.034C5.927,24.15,5.837,24.13,5.853,24.061z M1.694,22.703
		c0.032,0.002,0.032,0.043,0.029,0.089C1.664,22.797,1.685,22.746,1.694,22.703z M1.68,22.864c-0.002-0.021-0.089-0.021-0.044,0
		c-0.013,0.055-0.022-0.041-0.06-0.017C1.594,22.797,1.691,22.764,1.68,22.864z M1.649,23.104c0.026-0.105-0.082-0.046-0.088-0.109
		c-0.021,0.004-0.013,0.046-0.016,0.072c-0.021-0.055-0.08-0.134-0.043-0.202c0.005,0.13,0.123,0.119,0.177,0.185
		c0.012-0.005,0.015-0.018,0.029-0.018c-0.021-0.022-0.041-0.048-0.06-0.074c0.001-0.033,0.05,0.021,0.089,0
		C1.751,23.058,1.7,23.079,1.649,23.104z M1.783,22.975c0-0.012,0-0.024,0-0.035c0.03,0.03,0.02-0.003,0.059,0
		C1.857,22.983,1.792,23.018,1.783,22.975z M2.07,22.758c-0.044-0.016-0.004,0.023-0.041,0.055c-0.055-0.037-0.035,0.023-0.1,0.018
		c0.01,0.02,0.035,0.02,0.03,0.055c-0.054-0.007-0.054,0.055-0.103,0.055c0.003-0.037,0.099-0.06,0.044-0.107
		c0.06-0.031,0.12-0.057,0.115-0.167c0.012,0.018,0.055,0.022,0.055,0.021C2.07,22.709,2.07,22.733,2.07,22.758z M4.289,22.808
		c0.038-0.03,0.088,0.053,0.104,0.107C4.339,22.899,4.301,22.869,4.289,22.808z M5.357,21.685c0.011,0.06,0.011,0.037,0,0.09
		c-0.039-0.02-0.045-0.057-0.03-0.105c0.021,0,0.042,0.003,0.044-0.02C5.398,21.66,5.382,21.691,5.357,21.685z M5.431,21.522
		c0.042,0.021,0.045,0.09,0.059,0.146C5.45,21.649,5.389,21.588,5.431,21.522z M5.972,24.314c-0.014,0.009-0.027,0.015-0.03,0.035
		c-0.032,0.004-0.007-0.063-0.016-0.09c-0.008,0.023-0.056,0.002-0.059,0.037c-0.024-0.009-0.013-0.06-0.06-0.037
		c0.009-0.018,0.018-0.033,0-0.038c0.039-0.034,0.055,0.012,0.133,0C5.93,24.279,5.983,24.257,5.972,24.314z M6.045,24.477
		c0.022,0.048,0.069,0.059,0.074,0.127C6.067,24.583,6.006,24.558,6.045,24.477z M6.355,24.025c-0.006-0.04,0.01-0.051,0.015-0.072
		c0.021,0.006,0.038,0.023,0.06,0.035C6.417,24.014,6.392,24.025,6.355,24.025z M6.725,23.315c-0.04,0.005-0.063-0.006-0.059-0.057
		C6.704,23.257,6.74,23.255,6.725,23.315z M7.292,20.144c-0.004-0.049,0.083,0.018,0.059-0.058c0.038,0.049,0.083,0.007,0.119,0.072
		c0.04,0.007-0.04-0.069,0.029-0.055c0.013,0.06-0.023,0.058-0.029,0.092c-0.073-0.004-0.113-0.043-0.148,0.038
		C7.299,20.229,7.331,20.165,7.292,20.144z M8.276,22.97c-0.267,0.033-0.661,0.12-0.961,0.109c0.258-0.103,0.626-0.065,0.946-0.145
		C8.277,22.939,8.298,22.968,8.276,22.97z M8.232,22.009c-0.003-0.031,0.025-0.049,0-0.057c0.021-0.021,0.033,0.032,0.088,0
		c-0.077,0.078,0.051,0.021,0.044,0.109C8.293,22.076,8.299,21.998,8.232,22.009z M8.992,21.649c-0.04,0.005-0.063-0.007-0.06-0.055
		c0.014-0.016,0.034-0.02,0.06-0.018C8.992,21.602,8.992,21.625,8.992,21.649z M9.096,14.663c-0.062-0.024-0.043-0.214-0.09-0.275
		c0.005-0.043,0.045-0.042,0.059-0.072c-0.019-0.037-0.071-0.032-0.059-0.108c0.084,0.03,0.123-0.087,0.163,0
		c0.013,0.003,0.014-0.008,0.015-0.02c0.035,0.055-0.084,0.047-0.104,0.055c0.005,0.023,0.026,0.029,0.029,0.057
		c0.015-0.013,0.015-0.043,0.044-0.037c0.026,0.104-0.022,0.109,0,0.219c-0.029-0.013-0.06-0.057-0.029-0.092
		c-0.065,0.075-0.021,0.193,0.009,0.261c0.055-0.023,0.144-0.057,0.186-0.061c-0.052,0.059-0.15,0.059-0.222,0.092
		C9.079,14.681,9.082,14.674,9.096,14.663z M9.221,18.341c0.02-0.032,0.089,0.022,0.089,0.072
		C9.269,18.404,9.262,18.35,9.221,18.341z M9.295,18.269c-0.044-0.015,0.035-0.025,0.015-0.072c0.048,0.018-0.003,0.072,0.06,0.093
		C9.348,18.356,9.298,18.221,9.295,18.269z M9.391,14.751c-0.038-0.024-0.027-0.062-0.015-0.11
		C9.429,14.658,9.385,14.695,9.391,14.751z M9.473,18.249c0-0.035-0.041-0.021-0.03-0.069c0.013-0.005,0.014,0.004,0.015,0.017
		c0.015,0.021,0.027,0.005,0.075,0.018C9.521,18.238,9.5,18.247,9.473,18.249z M9.462,11.336c0-0.019,0-0.036,0-0.054
		c0.045,0.048,0.045-0.023,0.09-0.019C9.556,11.332,9.507,11.318,9.462,11.336z M9.553,14.531c-0.002-0.051,0.036-0.053,0.074-0.054
		C9.614,14.509,9.6,14.541,9.553,14.531z M9.701,13.169c0.059-0.01,0.145,0.104,0.207,0.146C9.849,13.328,9.773,13.204,9.701,13.169
		z M10.285,10.063c0.051-0.015,0.057,0.025,0.104,0.017C10.383,10.14,10.276,10.125,10.285,10.063z M10.418,22.372
		c-0.043-0.026-0.064,0.009-0.133,0c0.007-0.016,0.015-0.028,0.014-0.057c0.021,0.028,0.078,0.02,0.074-0.035
		c0.012,0.009,0.025,0.018,0.044,0.018C10.394,22.335,10.42,22.319,10.418,22.372z M10.521,21.845
		c-0.03-0.046-0.076-0.077-0.088-0.145C10.474,21.729,10.547,21.787,10.521,21.845z M10.595,22.171
		c0.029-0.068-0.034-0.158-0.06-0.219c0.053,0.041,0.099,0.087,0.117,0.164C10.625,22.125,10.643,22.186,10.595,22.171z
		 M10.632,20.616c0-0.026,0.001-0.053-0.015-0.055c0.002-0.046,0.049-0.007,0.06,0c0.007-0.062-0.01-0.086-0.015-0.129
		c-0.045-0.014-0.018,0.072-0.074,0.046c-0.027-0.084,0.059-0.026,0.044-0.081c0.015,0,0.029,0,0.043,0
		c-0.005,0.107,0.058,0.127,0.074,0.208C10.709,20.634,10.689,20.59,10.632,20.616z M10.705,20.36c0.067,0,0.041,0.109,0.06,0.164
		C10.686,20.502,10.746,20.417,10.705,20.36z M10.743,12.006c-0.012-0.023-0.019-0.05-0.015-0.092
		c0.067-0.009,0.083,0.044,0.132,0.054C10.833,11.995,10.791,12.004,10.743,12.006z M10.913,12.245
		c-0.042,0.062-0.029-0.065-0.016-0.09c0.016,0.011,0.016,0.042,0.044,0.036C10.945,12.215,10.867,12.226,10.913,12.245z
		 M10.941,10.757c-0.023-0.026-0.039-0.061-0.044-0.108c0.044,0,0.05,0.047,0.089,0.055C10.984,10.737,10.938,10.715,10.941,10.757z
		 M10.957,12.137c0.084,0.013,0.167-0.096,0.207,0.019C11.109,12.127,10.977,12.247,10.957,12.137z M11.104,11.901
		c0.024,0.043-0.059-0.061-0.043-0.073c0.024-0.041,0.081,0.034,0.118,0.036C11.152,11.905,11.031,11.795,11.104,11.901z
		 M11.385,18.637c-0.038,0.002-0.063-0.007-0.059-0.057C11.364,18.575,11.389,18.589,11.385,18.637z M11.754,21.376
		c-0.046-0.002-0.065-0.055-0.059-0.107c0.015,0,0.029,0,0.044,0C11.729,21.321,11.765,21.321,11.754,21.376z M11.778,13.402
		c0.035,0.01,0.031-0.03,0.073-0.018C11.872,13.444,11.765,13.472,11.778,13.402z M11.821,22.481
		c0.025-0.048,0.104-0.009,0.119,0.018C11.925,22.532,11.864,22.471,11.821,22.481z M11.998,24.167
		c-0.042,0.063-0.029-0.063-0.015-0.089c0.015,0.013,0.016,0.043,0.044,0.037C12.031,24.137,11.952,24.15,11.998,24.167z
		 M12.028,22.681c-0.024-0.026-0.038-0.063-0.044-0.109c0.044,0,0.052,0.048,0.089,0.057C12.07,22.659,12.023,22.637,12.028,22.681z
		 M12.042,24.061c0.084,0.011,0.168-0.097,0.207,0.018C12.195,24.052,12.062,24.17,12.042,24.061z M12.189,23.823
		c0.024,0.044-0.058-0.061-0.043-0.072c0.024-0.041,0.081,0.033,0.119,0.035C12.238,23.828,12.118,23.719,12.189,23.823z
		 M13.254,11.189c0.038,0.002,0.059,0.027,0.059,0.073C13.268,11.269,13.248,11.245,13.254,11.189z M12.316,6.454
		c0.048-0.079,0.059,0.132-0.015,0.109C12.291,6.517,12.367,6.487,12.316,6.454z M12.302,6.908c0.012-0.063-0.028-0.079,0-0.11
		c0.012,0.015,0.003,0.086,0.073,0.072C12.363,6.897,12.338,6.91,12.302,6.908z M12.316,6.381c0.017-0.05,0.017-0.096,0-0.145
		c0.048,0.012,0.022,0.118,0.074,0.126C12.376,6.395,12.338,6.409,12.316,6.381z M12.508,15.132
		c0.055,0.002,0.021,0.106,0.088,0.092C12.55,15.287,12.471,15.171,12.508,15.132z M12.611,15.169
		c-0.025-0.026,0.013-0.092-0.043-0.109c0.004-0.049,0.025,0.026,0.06,0C12.632,15.129,12.642,15.123,12.611,15.169z M12.824,19.32
		c-0.03-0.016-0.044-0.053-0.043-0.107C12.83,19.208,12.852,19.285,12.824,19.32z M13.003,5.779
		c0.041-0.015,0.038,0.024,0.073,0.016C13.075,5.85,12.988,5.844,13.003,5.779z M13.076,5.723c-0.011,0.057-0.062-0.086-0.029-0.09
		c0-0.019-0.019-0.013-0.029-0.019c0.013-0.063,0.075,0.046,0.089-0.017C13.155,5.63,13.047,5.716,13.076,5.723z M13.283,18.904
		c0,0.023,0,0.048,0,0.072c-0.021,0-0.039,0-0.06,0C13.214,18.915,13.25,18.91,13.283,18.904z M13.254,19.051
		c-0.001-0.057,0.074-0.02,0.074-0.072c0.015,0.002,0.01,0.035,0.028,0.035C13.335,19.04,13.299,19.053,13.254,19.051z
		 M13.387,5.688c0-0.017,0.019-0.013,0.029-0.02c-0.004-0.021-0.027-0.015-0.045-0.016c0.009-0.038,0.045-0.036,0.016-0.074
		C13.357,5.519,13.49,5.701,13.387,5.688z M13.513,17.547c-0.047,0.006-0.038-0.049-0.073-0.055
		c0.015-0.031,0.062-0.021,0.087-0.038C13.54,17.507,13.506,17.503,13.513,17.547z M15.787,3.148
		c-0.026-0.019-0.219-0.142-0.266-0.254C15.619,2.968,15.711,3.05,15.787,3.148z M15.854,14.584
		c-0.007,0.057-0.066,0.051-0.104,0.072C15.768,14.612,15.798,14.582,15.854,14.584z M15.314,3.622
		c-0.031,0.025-0.127-0.024-0.119-0.11C15.243,3.539,15.286,3.571,15.314,3.622z M15.013,11.479c0.021,0.001,0.04,0.004,0.043-0.019
		c0.02,0.032,0.049,0.05,0.09,0.056c-0.026,0.022-0.04,0.062-0.09,0.055C15.071,11.501,15.001,11.542,15.013,11.479z M14.938,11.57
		c0.002-0.023,0.027-0.015,0.045-0.019c0.003,0.014-0.007,0.016-0.015,0.019c-0.007,0.042,0.065-0.011,0.044,0.054
		c-0.062-0.019-0.073,0.008-0.134-0.019C14.873,11.531,14.978,11.616,14.938,11.57z M14.976,9.794
		c0.062,0.008,0.064,0.086,0.1,0.125C15.061,9.908,14.962,9.878,14.976,9.794z M14.93,13.372c0.044,0.005,0.046-0.042,0.09-0.035
		c-0.004,0.03-0.025,0.04-0.059,0.035c0.008,0.016,0.018,0.032,0,0.036c0.097-0.004,0.01,0.062,0.088,0.128
		c-0.005,0.021-0.016,0.009-0.016,0c-0.023-0.008-0.027,0.013-0.029,0.033c-0.063-0.024-0.006-0.087-0.09-0.088
		C14.914,13.438,14.94,13.427,14.93,13.372z M15.099,9.681c-0.028,0.05-0.087,0-0.087-0.056c0.022,0,0.049,0,0.073,0
		C15.069,9.681,15.069,9.669,15.099,9.681z M15.064,2.496c-0.067,0.044-0.146-0.051-0.207-0.073
		C14.92,2.382,15.007,2.468,15.064,2.496z M14.754,2.296c-0.038,0.071-0.169-0.009-0.191-0.074
		C14.621,2.18,14.658,2.322,14.754,2.296z M14.707,15.821c-0.005,0.041-0.07,0.009-0.103,0.02c-0.016-0.067,0.051-0.035,0.061-0.072
		C14.704,15.784,14.63,15.843,14.707,15.821z M14.642,18.523c0.074,0,0.01,0.055,0.045,0.092
		C14.68,18.644,14.634,18.571,14.642,18.523z M14.657,18.685c-0.052-0.02-0.062-0.09-0.073-0.161
		C14.649,18.534,14.611,18.621,14.657,18.685z M14.634,15.968c0-0.011,0-0.024,0-0.037c0.025,0,0.05,0,0.073,0
		C14.724,15.992,14.662,15.959,14.634,15.968z M14.562,15.931c0.037,0.002,0.028,0.062,0.028,0.109
		C14.534,16.036,14.549,15.975,14.562,15.931z M14.518,3.24c-0.042,0.004-0.08,0.002-0.074-0.054
		C14.485,3.183,14.524,3.183,14.518,3.24z M14.443,2.205c-0.046-0.022-0.111-0.021-0.103-0.109
		C14.398,2.102,14.444,2.123,14.443,2.205z M14.474,13.807c-0.016,0.076-0.121,0.043-0.179,0.072
		C14.326,13.819,14.388,13.797,14.474,13.807z M14.362,18.757c0.017,0.005,0.024-0.002,0.029-0.015
		c0.03,0.046-0.005,0.061-0.016,0.127C14.345,18.864,14.37,18.79,14.362,18.757z M14.162,2.604c-0.04,0.049-0.08-0.058-0.119-0.073
		C14.07,2.5,14.131,2.583,14.162,2.604z M14.119,6.835c0.029,0.006,0.029,0.049,0.058,0.055c0.008,0.042-0.065-0.011-0.043,0.054
		c-0.03,0.007-0.039-0.014-0.061-0.02c-0.031,0.027,0.017,0.053-0.03,0.073c0.007,0.06,0.046,0.078,0.076,0.108
		C13.98,7.127,14.015,6.848,14.119,6.835z M13.837,2.224c-0.084,0.023-0.094-0.139-0.161-0.162
		C13.739,2.031,13.767,2.201,13.837,2.224z M13.676,14.751c-0.001-0.056,0.091,0.015,0.089-0.038
		C13.849,14.753,13.705,14.797,13.676,14.751z M13.757,21.628c0.028-0.066,0.092-0.095,0.146-0.127
		C13.866,21.558,13.818,21.6,13.757,21.628z M13.897,16.546c0.029,0.055,0.073,0.092,0.072,0.184
		C13.944,16.669,13.886,16.653,13.897,16.546z M13.977,11.005c-0.01-0.011-0.07-0.045-0.058,0.019
		c-0.021-0.015-0.048-0.026-0.045-0.073C13.916,10.96,13.999,10.92,13.977,11.005z M14.021,11.079
		c-0.018-0.059,0.049-0.013,0.03-0.073c0.011,0.017,0.041,0.011,0.044,0.037C14.1,11.097,14.042,11.107,14.021,11.079z
		 M14.134,7.796c0.022-0.004,0.025,0.017,0.043,0.019c-0.011,0.025-0.01,0.07-0.058,0.054C14.111,7.832,14.129,7.822,14.134,7.796z
		 M14.125,21.337c0.218-0.169,0.403-0.32,0.636-0.437C14.569,21.071,14.351,21.207,14.125,21.337z M14.724,14.169
		c-0.013-0.003-0.092-0.004-0.087-0.037C14.703,14.105,14.993,14.197,14.724,14.169z M14.931,13.642
		c-0.064,0.047-0.139,0.085-0.252,0.072c0.123-0.086,0.31-0.093,0.459-0.145C15.127,13.658,14.969,13.646,14.931,13.642z
		 M15.092,13.434c0.018,0,0.03,0,0.045,0c-0.01,0.054,0.016,0.065,0.015,0.108C15.104,13.539,15.104,13.487,15.092,13.434z
		 M15.211,13.39c-0.024-0.024-0.059-0.038-0.061-0.093c0.019,0.005,0.028-0.004,0.03-0.016C15.22,13.282,15.211,13.34,15.211,13.39z
		 M15.109,13.206c0.02-0.05,0.076-0.063,0.132-0.072C15.275,13.121,15.143,13.19,15.109,13.206z M15.159,11.879
		c-0.003-0.021,0.003-0.033,0.016-0.038c-0.068-0.036,0.028-0.009,0.029-0.09c0.053-0.003,0.076,0.026,0.073,0.09
		C15.241,11.858,15.214,11.884,15.159,11.879z M15.366,11.606c0.014,0.059-0.05,0.024-0.045,0.073
		c-0.007,0.041,0.081-0.042,0.09,0.019c-0.015,0.086-0.124-0.032-0.074,0.09c-0.048-0.026-0.076-0.077-0.09-0.146
		C15.319,11.669,15.308,11.597,15.366,11.606c0.005-0.042,0.01-0.084,0.059-0.073c-0.006,0.023-0.019,0.038-0.044,0.038
		c0.024,0.029,0.057-0.009,0.089,0.036C15.46,11.646,15.379,11.623,15.366,11.606z M15.477,13.498
		c0.063-0.062,0.139-0.047,0.222-0.093C15.651,13.484,15.559,13.509,15.477,13.498z M15.67,16.185
		c0.072-0.044,0.109,0.118,0.178,0.145C15.804,16.333,15.726,16.222,15.67,16.185z M15.521,15.222
		c0.001-0.014,0.024-0.033,0.062-0.049c0.013-0.046-0.009-0.062,0.011-0.096c0.047,0,0.021,0.061,0.021,0.083
		c0.131-0.046,0.347-0.066,0.319,0.023C15.86,15.129,15.703,15.252,15.521,15.222z M15.921,17.036c0.003-0.028,0.109-0.072,0.104,0
		C15.957,17.004,15.959,17.059,15.921,17.036z"/>
</g>
</svg>
