<?xml version="1.0" encoding="utf-8"?>
<!-- Generator: Adobe Illustrator 15.1.0, SVG Export Plug-In . SVG Version: 6.00 Build 0)  -->
<!DOCTYPE svg PUBLIC "-//W3C//DTD SVG 1.1//EN" "http://www.w3.org/Graphics/SVG/1.1/DTD/svg11.dtd">
<svg version="1.1" id="Layer_1" xmlns="http://www.w3.org/2000/svg" xmlns:xlink="http://www.w3.org/1999/xlink" x="0px" y="0px"
	 viewBox="0 0 693.72 167.75" enable-background="new 0 0 693.72 167.75" xml:space="preserve">
<g>
	<g>
		<path fill="#233138" d="M27.84,110.38c-2.19,0.16-4.12-1.5-4.29-3.69L22.02,86.3c-0.16-2.19-0.94-4.34-1.72-4.77
			s-2.7-1.53-2.6-1.48c0.1,0.05,0.78,0,1.46,0.35c0.68,0.35,2.38-0.5,2.21-2.7l-4.6-61.38c-0.16-2.19-1.71-3.88-3.43-3.75
			s-5.96,0.67-5.61,0.9c0.35,0.23,0.74,0.85,0.22,0.74c-0.52-0.11-2.2-1.06-3.36-0.97s-4.22,0.35-4.23,0.37
			c0,0.03-0.07,0.09-0.14,0.1c-0.07,0-0.1,1.78,0.08,3.97L8.6,122.99c0.17,2.19,2.11,3.85,4.3,3.68l19.97-1.5
			c2.19-0.16,3.87-0.47,3.72-0.69c-0.15-0.22-0.08-0.67-0.03-0.34c0.05,0.33,0.71,0.65,0.69,0.66c-0.02,0.02,1.58-0.07,3.6-0.21
			s7.21-2.32,7.06-4.51l-0.49-7.09c-0.15-2.19-2.07-3.86-4.27-3.71L27.84,110.38z M3.5,16.27c1.07-0.1,0.6,1.07,1.14,1.4
			C4.03,18.32,3.2,17.17,3.5,16.27z M4.07,48.79c0,0.26-0.15,0.38-0.32,0.27s-0.31-0.71-0.38-0.69c-0.07,0.02-0.08,0,0-0.22
			C3.45,47.92,4.07,48.53,4.07,48.79z M4.62,41.32c0.01,0.25-0.23,0.34-0.54,0.21S3.63,40.6,3.79,40.6
			C3.94,40.6,4.61,41.08,4.62,41.32z M6.5,26.68c0.23,0.2,0.35,0.48,0.27,0.62c-0.08,0.14-0.44,0.5-0.82,0.3
			C5.57,27.39,6.27,26.48,6.5,26.68z M5.3,80.57c-0.04-0.61,0.73-0.72,1.02-0.41C6.06,80.8,5.9,80.27,5.3,80.57z M6.12,79.96
			c0.39-0.68,0.55-0.16,1.43-0.2C7.25,80.34,6.46,80.44,6.12,79.96z M19.36,51.85c-0.87-0.01-1.42-0.34-2.44-0.2
			C16.8,51.56,19.43,50.75,19.36,51.85z M17.84,48.7c-0.06-0.47,0.04-0.79,0.21-0.72c0.18,0.07,0.67,0.3,0.49,0.54
			c-0.18,0.24,0.55,0.39,0.46,0.53C18.91,49.2,17.89,49.17,17.84,48.7z M17.14,38.28c0.17,0.12,0.23,0.35,0.12,0.53
			s-0.31,0.68-0.58,0.47C16.41,39.07,16.97,38.17,17.14,38.28z M11.47,48.79c-1.11-0.02-1.04-1.02-1.14-1.87
			C10.74,47.51,11.81,47.57,11.47,48.79z M10.9,55.81c-0.95,0.16-1.04-0.39-1.14-0.94C10.65,54.76,11.03,55.07,10.9,55.81z
			 M11.67,78.87c-0.14-0.07-0.22-0.21-0.17-0.31c0.05-0.1,0.01-0.26,0.39-0.31C12.27,78.2,11.81,78.94,11.67,78.87z M11.75,42.24
			c0.04-0.58-0.15-0.97-0.57-1.17C11.99,40.1,13.5,42.41,11.75,42.24z M14,20.9c0.33,0.29,0.43,0.35,0.22,0.13
			c-0.21-0.21-1.1-0.42-1.16-0.25c-0.07,0.16-0.28,0.46-0.42,0.24C12.5,20.8,13.67,20.61,14,20.9z M16.31,70.54
			c-0.73-0.03-0.57-0.78-0.57-1.4C16.65,69.07,16.77,70.17,16.31,70.54z M16.88,55.1c1.06,0.06,1.66,0.51,1.42,1.64
			C16.95,56.91,17.05,55.9,16.88,55.1z M27.4,114.52c-1.02,0.14-0.87-0.69-0.85-1.4C27.57,112.98,27.41,113.81,27.4,114.52z
			 M42.77,115.22c-0.96,0.06-1.47-0.87-0.85-1.4C42.2,114.32,43.38,114.69,42.77,115.22z M47.28,120.13
			c0.17,0.35,0.17,0.42-0.02,0.16c-0.19-0.26-1.04-0.62-0.98-0.71S47.1,119.78,47.28,120.13z"/>
	</g>
	<g>
		<g>
			<path fill="#233138" d="M70.02,70.18c-0.14-2.2-0.3-3.99-0.34-3.99c-0.05,0-0.25-0.25-0.34-0.57c-0.1-0.31-0.87-0.86-0.75-1.11
				s0.12-1.14,0.18-1.06s0.26,0.37,0.37,0.43s0.41-1.09,0.31-2.6s-0.84-5.95-1.43-6.36c-0.59-0.41-0.09-0.74,0.07-0.74
				c0.16,0,0.55,0.22,0.52,0.49c-0.03,0.27,0.4-0.4,0.33-1.67c-0.07-1.27-0.45-4.64-0.67-4.75s-0.4-0.51-0.4-0.64
				s0.09-0.51,0.2-0.57s0.39-1.92,0.25-4.12l-1.5-23.35c-0.14-2.2-0.35-4.07-0.46-4.17s-0.71,0.05-0.57-0.09s0.13-0.85,0.26-0.76
				c0.13,0.08,0.39-0.67,0.32-1.75c-0.07-1.08-1.04-3.87-2.01-3.8c-0.97,0.06-3.56,0.37-3.59,0.54c-0.03,0.17-0.15,0.49-0.24,0.3
				s-1.34-0.5-2.37-0.43c-1.03,0.07-3.73,0.25-3.73,0.27s-0.11,0.06-0.25,0.07c-0.14,0.01-0.44,0.19-0.59,0.16S52.61,9.77,52,9.81
				s-2.18,0.53-2.15,1.01c0.03,0.47,0.28,1.71,0.49,1.7s0.04,0.47-0.05,0.46c-0.09-0.01-0.27,0.37-0.24,0.88s0.2,1.67,0.29,1.42
				c0.09-0.25,0.65-0.72,0.97-0.53c0.32,0.19,0.9-0.05,0.98,0.31c0.08,0.36,1.13,0.68,0.96,0.88c-0.17,0.2-0.83,0.59-1.18,0.32
				s-1.77,1.34-1.63,3.54l0.34,4.99c0.15,2.2,0.48,4.24,0.73,4.54s-0.24,1.21-0.26,1.22c-0.02,0,0.04,1.8,0.19,4l0.5,7.46
				c0.15,2.2,0.39,3.99,0.54,3.98c0.15-0.01,0.54-0.05,0.53-0.09s0.05-0.11,0.12-0.08c0.08,0.04,0.29,0.13,0.32,0.13
				s0.1,0,0.09,0.01s0.16,0.19,0.41,0.38s0.42,0.78,0.02,0.74s-1.03-0.82-1.18-0.8s-0.5,1.1-0.41,2.37
				c0.09,1.27,0.36,4.67,0.42,4.74c0.06,0.08,0.25,0.29,0.32,0.26c0.07-0.03,0.01-0.02-0.15,0.2c-0.17,0.21,0.56,0.37,0.53,0.43
				s-0.3,0.08-0.39,0.02c-0.09-0.06-0.23,1.61-0.08,3.81l0.61,9.09c0.15,2.2,0.48,3.99,0.74,3.99c0.26,0,0.47,0.15,0.47,0.34
				s-0.15,0.61-0.34,0.55s-0.36,1.74-0.22,3.94l0.37,5.54c0.14,2.2,2.01,4.37,4.16,4.84l8.6,2.12c2.12,0.61,3.73-0.7,3.58-2.89
				L70.02,70.18z M51.02,21.19c1.17,0.05,1.08,1.14,1.14,2.11C51.17,22.98,50.5,22.06,51.02,21.19z M67.21,61.28
				c0.01,0.08,0.15,0.19,0.3,0.26c0.16,0.06,0.34,0.01,0.4,0.17c0.06,0.16-0.11,0.55-0.44,0.44C67.15,62.04,67.2,61.21,67.21,61.28z
				 M67.52,70.08c-0.77-0.23-1.37-0.59-1.42-1.4C66.81,68.2,67.87,68.95,67.52,70.08z M66.95,23.06c-0.89,0.03-0.98-0.6-1.14-1.17
				C66.63,21.92,67.16,22.18,66.95,23.06z M66.07,29.24c0.17,0.07,0.31,0.31,0.31,0.52c0,0.21-0.28,0.66-0.63,0.51
				C65.41,30.13,65.89,29.17,66.07,29.24z M64.67,20.02c-0.68-0.3-1.16-0.76-1.14-1.64C64.37,18.55,64.73,19.11,64.67,20.02z
				 M62.68,32.65c0.16,0,0.29,0.18,0.29,0.39s-0.13,0.61-0.29,0.4C62.51,33.23,62.53,32.65,62.68,32.65z M61.15,40.72
				c0.06-0.71,0.34-1.06,0.62-0.78s1.23,0.76,0.91,0.88C62.36,40.96,61.09,41.44,61.15,40.72z M55.85,49.72
				c0.79-0.1,0.27,0.87,0.85,0.94C56.16,51.46,55.54,50.4,55.85,49.72z M54.93,40.86c-0.75-0.01-1.38-0.33-1.41-0.69
				s0.46-0.52,0.62,0.04C54.3,40.75,55.68,40.87,54.93,40.86z M56.65,58.33c-0.13,0.28-0.48,0.3-0.79,0.03
				c-0.3-0.26-0.37-1.25-0.11-1.08S56.78,58.05,56.65,58.33z M56.42,42.71c0.68,0.3,1.16,0.76,1.14,1.64
				C56.55,44.32,56.42,43.57,56.42,42.71z M57.53,14.9c0.33-0.27,0.76-0.4,0.96-0.27c0.2,0.12,2.11,0.4,2.34,0.59
				c0.23,0.19-0.39,1.01-1.04,0.67S57.19,15.18,57.53,14.9z M58.44,30.18c-0.32-0.19-0.58-0.54-0.57-0.79
				c0.01-0.25,0.4-0.52,0.56-0.27S58.76,30.37,58.44,30.18z M59.54,22.91c-0.15,0.21-0.47,0.13-0.71-0.17
				c-0.24-0.3-0.21-1.55,0.05-1.55s1.15,0.07,1.4,0.17S59.69,22.71,59.54,22.91z M60.42,54.15c-0.17-0.25-0.19-0.3-0.04-0.12
				s1.1,0.22,1.02,0.32C61.31,54.46,60.59,54.4,60.42,54.15z M60.97,86.68c-0.4-0.35-1.05-1.01-0.57-1.4
				C61.08,85.41,61.59,86.19,60.97,86.68z M61.54,79.43c-1.03,0.22-0.4-0.92-0.57-1.4C61.7,78.06,61.54,78.81,61.54,79.43z
				 M62.64,47.84c-0.29,0.26-0.95,0.19-1.46-0.16s0.03-1.14,0.31-0.73C61.77,47.35,62.93,47.58,62.64,47.84z M62.97,65.87
				c-0.62-0.03-0.61-0.59-0.57-1.17C63.38,64.53,63.42,65.52,62.97,65.87z M64.39,51.6c-1.39,0.13-0.29-1.78-1.42-1.87
				C63.66,49.1,65.44,50.79,64.39,51.6z M64.96,44.58c-0.56-0.16-0.76-0.62-0.85-1.17C64.99,43.3,65.02,43.91,64.96,44.58z
				 M64.54,37.04c-0.08-0.36-0.02-0.75,0.15-0.87c0.17-0.12,0.83-0.08,0.83,0.12S64.63,37.4,64.54,37.04z M68.71,79.64
				c0.12,0.27-0.38-0.1-1.12-0.81c-0.74-0.72-1.68-3.43-1.55-2.94c0.13,0.49,1.81,0.94,1.52,1.47S68.59,79.37,68.71,79.64z"/>
		</g>
		<g>
			<path fill="#233138" d="M72.92,116.1c0-0.12-0.11-2.01-0.25-4.21l-0.63-9.86c-0.14-2.2-0.52-4.16-0.84-4.36
				c-0.32-0.2-0.9-0.54-0.62-0.47c0.28,0.07,1.07,0.39,1.04,0.36s-0.09-0.14-0.06-0.19c0.04-0.04,0.11-1.22,0.02-2.57
				c-0.08-1.34-2.06-5.32-4.19-5.85l-8.57-2.02c-2.15-0.47-3.87-0.27-3.82,0.43c0.05,0.71,0.27,2.6,0.39,2.65
				c0.12,0.04,0.33,0.13,0.22,0.12c-0.12-0.01-0.33,1.35-0.21,3.09c0.12,1.73,0.45,6.34,0.49,6.38c0.04,0.04,0.06,1.81,0.21,4.01
				l1.07,15.85c0.15,2.2,2.06,3.87,4.26,3.73l7.93-0.52c2.2-0.14,3.94-1.14,3.87-2.22S72.92,116.21,72.92,116.1z M58.87,108.42
				c-0.25,0.14-0.46,0.04-0.46-0.22s0.1-0.88,0.23-0.81S59.12,108.29,58.87,108.42z M60.43,93.96c-0.01,0.25-0.22,0.26-0.45,0.02
				c-0.24-0.24-0.54-0.9-0.34-0.81S60.44,93.71,60.43,93.96z M63.25,104c0.86,0.15,1.1,0.81,1.14,1.64
				C63.55,105.46,63.19,104.9,63.25,104z M65.6,94.83c-0.07-0.56,1.51,0.44,2.04,0.61C66.96,96.04,66.45,94.73,65.6,94.83z"/>
		</g>
	</g>
	<g>
		<g>
			<polygon fill="#233138" points="76.4,8.25 76.4,8.25 76.39,8.25 			"/>
		</g>
		<g>
			<path fill="#233138" d="M78.63,8.17c0.04-0.03,0.03-0.06-0.03-0.06c-0.06,0-0.21,0.03-0.2,0.05C78.4,8.19,78.59,8.21,78.63,8.17z
				"/>
		</g>
		<g>
			<path fill="#233138" d="M112.04,75.78c-0.12-2.2-0.3-4.04-0.39-4.1s-0.34-0.5-0.37-0.86c-0.03-0.36-0.12-1.21,0.01-1.2
				c0.13,0.01,0.33-1.72,0.21-3.92l-2.17-40.21c-0.12-2.2,0.78-4.05,2-4.11c1.22-0.06,4.44-0.35,4.43-0.5
				c-0.01-0.15,0.24-0.36,0.37-0.31c0.13,0.04,0.91,0.4,0.92,0.43c0.01,0.02,1.17,0.03,2.57-0.05c1.41-0.07,5.08-1.05,5.03-2.01
				c-0.05-0.96-0.27-3.54-0.39-3.6s-0.32-0.43-0.24-0.68c0.08-0.25,0.17-0.46,0.22-0.46s0.11-1.29,0.03-2.87
				c-0.08-1.58-2.09-5.63-4.28-5.51L86.84,7.64c-2.2,0.13-3.95,0.25-3.9,0.28c0.05,0.03,0.08,0.21-0.04,0.32s-0.09,0.76,0.02,0.74
				c0.11-0.02,0.21-0.03,0.16,0.18s0.03,0.78-0.04,0.76s-0.19,0.08-0.17,0.29c0.03,0.21-0.12,0.64-0.33,0.58s-1.39-0.05-2.04,0
				c-0.66,0.06-1.13,1.18-1.47,0.75c-0.35-0.43-1.87-1.19-1.45-1.11c0,0,0,0,0.24,0.06c0.4,0.08,0.4,0.08,0.4,0.08
				c-0.33-0.38-0.39-0.63-0.13-0.56c0.26,0.07,1.07-0.27,1.22-0.69c0.14-0.42,1.11-0.5,1.03-0.06s0.73,1.09,0.95,0.92
				c0.22-0.17,0.88-0.36,0.7-0.43c-0.18-0.07-0.84-0.43-0.52-0.38c0.32,0.06,0.89-0.66,0.69-0.84c-0.2-0.18-0.8-0.58-1.25-0.56
				c-0.45,0.03-1.64,0.15-1.64,0.22c0,0.07-0.45,0.44-0.98,0.66s-1.74,0.21-1.83,0.47s0.26,0.21,0.14,0.28
				c-0.12,0.07-0.26,2.12-0.12,4.31l0.33,5.43c0.13,2.2,0.91,3.95,1.71,3.91c0.81-0.05,2.94-0.29,2.95-0.42
				c0.01-0.14,0.15-0.4,0.33-0.31s1.37,0.46,2.48,0.39s4.05-0.24,4.06-0.24c0.01,0,0.7-0.04,1.52-0.09
				c0.82-0.05,3.08,1.62,3.21,3.82l3.1,53.63c0.13,2.2,0.33,4.15,0.46,4.34s0.16,0.84,0.09,0.77c-0.07-0.08-0.16,1.54-0.04,3.74
				l0.84,14.57c0.13,2.2,0.31,4.03,0.4,4.07c0.09,0.04,0.23,0.16,0.15,0.18c-0.08,0.03-0.2,1.82-0.08,4.01l0.3,5.15
				c0.13,2.2,2.03,3.89,4.22,3.77l7.93-0.44c2.2-0.12,3.9-2.02,3.78-4.21L112.04,75.78z M119.67,10.94
				c-0.05-0.54,0.14-0.71,0.41-0.38c0.27,0.33,1.69,0.81,1.58,1.11C121.57,11.97,119.72,11.48,119.67,10.94z M117.37,7.88
				c-0.03-0.4,0.07-0.73,0.22-0.73c0.16,0,0.57,0.25,0.57,0.55S117.4,8.28,117.37,7.88z M112.36,10.97
				c0.06-0.43,0.19-0.53,0.28-0.23c0.09,0.3,0.88,0.84,1.13,0.83c0.25-0.01,0.26-0.22,0.07,0.05
				C113.66,11.9,112.3,11.4,112.36,10.97z M80.04,21.19c-0.53-0.42-1.04-0.86-0.85-1.87C80.5,19.53,79.91,20.74,80.04,21.19z
				 M79.91,13.71c-0.09-0.52-0.03-0.95,0.12-0.95c0.16,0,0.5,0.27,0.4,0.6C80.35,13.7,80,14.23,79.91,13.71z M83.09,15.82
				c0.13,0.32,0.08,0.58-0.1,0.58c-0.19,0-0.69-0.15-0.7-0.34C82.27,15.87,82.96,15.51,83.09,15.82z M83.24,14.54
				c0.16,0.35,0.13,0.52-0.06,0.37s-1.08-0.25-1.08-0.37c0-0.13-0.07-0.4-0.13-0.18s-1.12-0.04-1.12-0.34s0.37-1.15,0.83-1.22
				C82.14,12.73,83.08,14.2,83.24,14.54z M88.84,17.61c0.1,0.12-0.12,0.25-0.48,0.29s-0.73-0.22-0.7,0.09s-0.91,0.19-0.71-0.14
				s0.79-1.17,0.96-1.07S88.74,17.48,88.84,17.61z M88.86,16.27c0.88-0.02,0.85,0.71,0.85,1.4C89.1,17.48,88.7,17.1,88.86,16.27z
				 M89.98,10.71c-0.31-0.16-0.56-0.46-0.56-0.67c0-0.21,0.17-0.78,0.38-0.78s0.98,0.14,1.24,0.31
				C91.31,9.73,90.29,10.87,89.98,10.71z M106.95,21.49c-0.36,0.32-0.86,0.5-1.22,0.82C105.3,22,106.3,21.4,106.95,21.49z
				 M103.65,39.2c-0.89-0.11-1.42-1.29-0.85-1.87C103.86,37.31,103.62,38.37,103.65,39.2z M100.57,28.03
				c-0.18-0.46-0.46-0.84-0.61-0.84c-0.15,0-0.6-0.16-0.67-0.36s0.04-0.75,0.2-0.61s0.92,0.22,0.9,0.3
				c-0.02,0.08,0.38,0.75,0.81,1.05c0.43,0.3,0.9,1.58,0.76,1.59S100.75,28.5,100.57,28.03z M100.68,35.11
				c-0.08,0.45-0.24,0.67-0.33,0.49c-0.1-0.17-0.82-0.28-0.65-0.44S100.76,34.66,100.68,35.11z M101.95,44.81
				c1.02-0.14,0.87,0.69,0.85,1.4C102.19,46.02,101.79,45.64,101.95,44.81z M103.41,109.36c-0.67-0.01-0.78-0.58-0.82-1.22
				C103.18,108.23,103.18,108.91,103.41,109.36z M103.67,31.42c-0.17,0.29-0.41,0.19-0.54-0.22c-0.13-0.41,0.34-1.07,0.46-1
				S103.84,31.12,103.67,31.42z M104.22,23.06c0.49,0.37,0.62,1.05,0.57,1.87C103.56,25.15,103.83,23.45,104.22,23.06z
				 M104.32,20.59c-0.12-0.29,0.03-0.38,0.34-0.2c0.31,0.18,1.15-0.43,1.26-0.31c0.1,0.12,0.06,0.68-0.14,0.78
				S104.44,20.88,104.32,20.59z M105.36,9.49c0.42,0.43,0.55,1.11,0.57,1.87C104.65,11.06,104.79,10.26,105.36,9.49z M104.21,18.25
				c0.14-0.02,0.19-0.26,0.12-0.54s0.02-0.51,0.18-0.51s0.51-0.15,0.43-0.34s-0.1-0.65,0.06-0.67c0.16-0.02,0.31-0.72,0.29-1.26
				s-0.9-1.56-0.8-1.62c0.1-0.05,0.56-0.09,0.71-0.04c0.16,0.05,0.88,1.28,0.82,1.48c-0.06,0.2,0.23,0.93,0.13,1.27
				c-0.1,0.34-0.49,1.36-0.56,1.29c-0.07-0.07-0.23-0.04-0.2,0.22c0.03,0.26,0.63,0.48,0.41,0.6s-0.34,0.86-0.55,0.74
				s-0.72-0.43-0.83-0.27S104.07,18.26,104.21,18.25z M103.7,20.2c0.11,0.15,0.05,0.15-0.14,0.01s-0.94-0.13-0.75-0.36
				C102.99,19.63,103.58,20.05,103.7,20.2z M101.66,13.47c0.91-0.21,0.59,0.61,1.14,0.7C102.47,14.79,101.29,14.19,101.66,13.47z
				 M103.08,22.12c-1.42,0-2.08-0.63-1.99-1.87C103.12,19.93,104.22,21.14,103.08,22.12z M101.84,26.09
				c0.24-0.06,0.44,0.18,0.46,0.54s0.99,0.58,0.74,0.59s-0.48,0.4-0.62,0.17c-0.14-0.23-1.01-1.02-1.58-1.29s-1.51-0.94-1.12-0.7
				C100.12,25.64,101.6,26.15,101.84,26.09z M98.66,25.65c0.19,0.25,0.21,0.57,0.04,0.7s-1.29,0.1-1.24-0.26
				c0.04-0.37-0.04-1.32,0-1.03s0.2,0.85,0.3,0.78c0.1-0.07,0.3-0.26,0.14-0.39c-0.17-0.14,0.25-1.25,0.43-1.25
				C98.52,24.19,98.47,25.39,98.66,25.65z M98.25,55.34c0.72,0.06,1.18,0.69,0.57,1.17C98.19,56.47,98.21,55.92,98.25,55.34z
				 M96.77,17.71c-0.29-0.53-0.39-1.08-0.23-1.21c0.16-0.13,0.55-0.35,0.88,0.08S97.06,18.24,96.77,17.71z M99.88,21.3
				c0.08,0.11,0.22,0.18,0.31,0.16s0.19-0.03-0.14-0.11s-0.75-0.5-0.65-0.55C99.5,20.75,99.8,21.19,99.88,21.3z M96.03,10.02
				C96,9.73,96.17,9.49,96.41,9.5s1.49,0.4,1.47,0.89s1.97,0.17,1.97,0.35c0,0,0,0,0,0.16c0,0.16,0,0.16,0,0.16
				c0,0.17-0.45,0.29-1,0.25S96.05,10.3,96.03,10.02z M95.97,22.59c0.26,0.72,1.19,0.89,1.14,1.87
				C96.05,24.43,95.34,23.28,95.97,22.59z M95.6,27.53c-0.14,0.04-0.26,0.17-0.26,0.28s-0.01,0.24-0.03,0.03s-0.33-0.46-0.28-0.5
				c0.06-0.03,0.2,0,0.32-0.07S95.75,27.48,95.6,27.53z M96.07,28.3c-0.06-0.05,0.08-0.1,0.33-0.11s0.58-0.56,0.84-0.52
				c0.26,0.03,0.47,0.36,0.14,0.37S96.13,28.35,96.07,28.3z M97.58,70.99c0.05,0.14-0.08,0.17-0.3,0.06
				c-0.22-0.11-0.57-0.39-0.36-0.54S97.53,70.85,97.58,70.99z M97.95,78.52c-0.46-0.01-1.08-0.08-1.37-0.17s-0.19-2.16-0.04-2.16
				s0.62,0.5,0.69,1.12C97.3,77.92,98.41,78.53,97.95,78.52z M99.1,88.32c-0.81-0.03-0.52-0.98-0.57-1.64
				C99.69,86.46,99.52,87.95,99.1,88.32z M99.72,80.88c-0.03,0.37-0.19,0.4-0.37,0.07c-0.18-0.32-0.41-1.17-0.26-1.03
				C99.23,80.05,99.74,80.51,99.72,80.88z M98.82,41.07c0.85,0.31,1.09,1.13,1.42,1.87C99.69,43.3,99.07,41.73,98.82,41.07z
				 M101.8,60.07c-0.08,0.1-0.53-0.17-1.01-0.6s-0.11-1.31,0.1-1.01S101.88,59.96,101.8,60.07z M102.23,52.53
				c-1.35,0.26-1.16-0.76-1.14-1.64C102.13,50.9,102.34,51.58,102.23,52.53z M102.59,113.23c1.02-0.52,1.07-0.03,2.04-0.2
				C105.41,113.86,102.75,113.83,102.59,113.23z M104.72,109.12c0.07,0.25-0.06,0.17-0.28-0.18c-0.22-0.34-0.45-1.52-0.24-1.65
				c0.21-0.13,0.5-0.34,0.33-0.04C104.36,107.55,104.65,108.87,104.72,109.12z M106.06,110.1c0,0.15-0.2,0.23-0.45,0.17
				c-0.25-0.05-0.25-0.72-0.1-0.72S106.06,109.95,106.06,110.1z M107.12,23.32c-0.21-0.11-0.41-0.31-0.46-0.45
				c-0.05-0.14,0.05-0.51,0.26-0.46C107.13,22.46,107.33,23.43,107.12,23.32z M107.38,18.33c-0.23-0.16-0.37-0.52-0.3-0.79
				s0.33-0.92,0.38-0.9c0.05,0.02,0.13,0.21,0.15,0.26c0.02,0.05,0.08,0.18-0.02,0.26c-0.1,0.08-0.36,0.4-0.27,0.58
				S107.61,18.49,107.38,18.33z M108.21,50.66c0.23,0.51,1.07,0.52,1.14,1.17C108.71,51.62,107.34,51.4,108.21,50.66z M109.26,60.18
				c-0.11,0.17-0.33,0.13-0.48-0.09c-0.15-0.22-0.18-0.96-0.05-0.89S109.37,60.02,109.26,60.18z"/>
		</g>
	</g>
	<g>
		<path fill="#233138" d="M165.1,112.63c0.25-0.01,0.4-1.42,0.33-3.13c-0.07-1.71-0.3-6.09-0.35-5.95s-0.93-0.06-1.42-0.39
			c-0.49-0.33-0.24-2,0.13-1.74c0.37,0.26,0.82,1.32,0.9,1.21c0.08-0.11,0.37-2.06,0.27-4.26l-1.92-45.52
			c-0.09-2.2-0.43-4.17-0.74-4.37c-0.31-0.21-0.23-0.87-0.11-0.59c0.12,0.28,0.6-0.98,0.51-3.18l-0.92-21.75
			c-0.09-2.2,0.05-4,0.33-4.02s0.94-0.26,0.87-0.52c-0.06-0.26,0.41-0.84,0.39-0.65c-0.02,0.19-0.02,0.48,0.28,0.62
			s2.96,0.36,5.16,0.27l4.44-0.18c2.2-0.09,3.95-1.27,3.9-2.63c-0.05-1.36-0.31-5.12-0.46-5.33c-0.15-0.21-0.13-1.04-0.05-1.03
			c0.08,0.01,0.23-0.88,0.18-2.04c-0.04-1.16-1.04-4.19-2.12-4.14s-3.91,0.18-3.91,0.21c0,0.03-0.09,0.09-0.2,0.08
			s-2.17-0.03-4.37,0.06l-11.95,0.5c-2.2,0.09-3.88,0.29-3.75,0.44c0.14,0.15,0.14,0.59-0.11,0.5c-0.26-0.09-2.19-0.68-4.38-0.58
			l-13.24,0.62c-2.2,0.1-3.91,1.99-3.8,4.19l0.35,7.1c0.11,2.2,2,3.91,4.19,3.8l7.8-0.37c2.2-0.1,4.06,1.26,4.14,3.03
			c0.08,1.77,0.39,6.78,0.5,7.21c0.11,0.43,1.49,0.51,1.13,0.61c-0.36,0.1-1.24,0.66-1.19,1.88c0.06,1.22,0.23,4.45,0.27,4.46
			s0.12,0.06,0.09,0.09c-0.03,0.04-0.08,1.36-0.01,2.9s0.29,5.69,0.34,5.8s-0.01,1.46,0.05,2.75s0.22,4.68,0.22,4.67
			s0.16,0.15,0.34,0.39c0.17,0.24,0.38,0.92,0.2,0.88c-0.19-0.04-0.41,1.54-0.31,3.73l2.47,53.91c0.1,2.2,0.26,3.98,0.35,3.97
			s0.05-0.13,0.1,0.17s0.24,0.81,0.13,0.71s-0.36-0.05-0.35,0.38c0.01,0.42,0.05,0.76,0.05,0.76s0.04-0.09,0.08-0.21
			c0.04-0.12,0.11-0.46,0.24-0.36c0.12,0.1,1.4,0.51,3,0.44c1.6-0.07,5.8-0.31,5.77-0.37c-0.03-0.06,0.07-0.2,0.2-0.13
			c0.13,0.06,0.67,0.21,0.9,0.2c0.23-0.01,0.88-0.12,0.92-0.23s0.24-0.42,0.31-0.33c0.07,0.09,0.47,0.48,0.95,0.46
			c0.47-0.02,1.74-0.11,1.75-0.16c0.01-0.04,0.12-0.17,0.24-0.15s0.51,0.19,0.74,0.18s0.8-0.72,0.76-1.57s-0.33-3.08-0.58-3.11
			C164.86,112.83,164.85,112.65,165.1,112.63z M164.54,95.34c-0.8,0.03-0.82-0.57-0.85-1.17C164.57,94.06,164.6,94.67,164.54,95.34z
			 M170.71,13.96c0.63,0.68-0.71,0.66-1.02,0.2C169.09,13.58,170.63,14.62,170.71,13.96z M169.95,9.72c0.16,0,0.38,0.2,0.5,0.45
			c0.12,0.25-0.19,1.02-0.51,0.81S169.79,9.72,169.95,9.72z M169.09,16.43c0-0.21,0.13-0.39,0.28-0.39s0.57,0.28,0.57,0.63
			S169.09,16.64,169.09,16.43z M165.55,5.86c0.38,0.45,0.54,0.67,0.35,0.5c-0.19-0.18-1.27-0.11-1.17-0.35
			C164.83,5.77,165.16,5.41,165.55,5.86z M133.48,8.82c-0.45-0.27-0.8-0.16-0.78,0.26c0.01,0.42,1.48,0.73,1.59,1.12
			C134.4,10.58,133.93,9.1,133.48,8.82z M135.17,18.82c0.03,0.4-0.17,0.78-0.46,0.85s-1.15,0.06-1.1-0.01
			c0.05-0.07,0.46-0.41,0.43-0.78S135.14,18.42,135.17,18.82z M134.95,10.66c0.41,0.29,0.54,0.8,0.57,1.4
			C134.61,12.13,134.48,11.04,134.95,10.66z M138.65,14.87c1.21-0.14,0.89,0.99,1.42,1.4C139.62,16.7,138.44,15.75,138.65,14.87z
			 M139.57,9.16c-0.2,0.18-0.32,0.24-0.27,0.12c0.05-0.12,0.06-0.9,0.24-0.83C139.71,8.51,139.77,8.98,139.57,9.16z M141.76,19.85
			c-0.46-0.04-0.71-0.24-0.56-0.45c0.15-0.21,0.14-0.81,0.3-0.56S142.22,19.88,141.76,19.85z M142.76,11.92
			c0.55,0.85,0.79,1.24,0.53,0.86c-0.26-0.38-1.89-0.62-1.67-1.08s-0.8-0.55-0.57-0.82C141.29,10.61,142.21,11.07,142.76,11.92z
			 M161.51,53.38c0.26,0.05,0.85,0.37,1.31,0.72c0.46,0.34-0.64,1.32-1.1,0.83C161.27,54.44,161.25,53.33,161.51,53.38z
			 M161.16,67.26c-0.12,0.04-0.26-0.04-0.31-0.18c-0.05-0.14,0.08-0.52,0.33-0.47C161.43,66.65,161.28,67.22,161.16,67.26z
			 M161.06,104.06c-0.63,0.09-0.73-0.51-0.41-0.82C161.01,103.43,161.44,103.7,161.06,104.06z M160.11,30.6
			c-0.07-0.29-0.01-0.49,0.13-0.45c0.14,0.04,1.09,0.04,0.99,0.18C161.14,30.46,160.18,30.88,160.11,30.6z M157.79,97.88
			c0.05,0.11-0.08,0.34-0.28,0.51c-0.21,0.17-0.75,0.16-0.37-0.02c0.38-0.18,0.35-1.04,0.86-1.21s0.87-1.48,0.87-1.42
			c0,0.06,0.99,0.22,0.99,0.37s-0.07,0.61-0.15,0.69c-0.08,0.08-0.78,0.53-0.95,0.61C158.59,97.5,157.73,97.77,157.79,97.88z
			 M156.1,27.42c-0.37-0.34-0.58-0.9-0.46-1.25c0.12-0.35-0.79-0.68-0.79-0.85c0-0.17,0.6-0.45,1.33-0.23
			c0.73,0.21,1.4,1.94,1.59,1.94s0.87,0.06,0.62,0.11C158.15,27.19,156.47,27.76,156.1,27.42z M155.03,37.99
			C156.06,36.79,156.65,39.19,155.03,37.99L155.03,37.99z M156.86,25.37c-0.03-0.51,0.32-0.63,0.41-1.02
			C157.67,24.44,157.63,25.78,156.86,25.37z M158.86,58.61c0-0.39,0-0.78,0-1.17C159.86,57.4,159.86,58.65,158.86,58.61z M159,45
			c0.07-0.36,0.25-0.7,0.39-0.75c0.14-0.05,0.59,0.04,0.59,0.25C159.99,44.71,158.93,45.36,159,45z M157.69,5.18
			c0.01-0.08,0.11-0.14,0.21-0.14s0.35,0.16,0.31,0.35s0.1,0.95-0.2,0.82C157.7,6.07,157.68,5.26,157.69,5.18z M157.49,12.47
			c0.12-0.35,0.37-0.4,0.54-0.1c0.17,0.3,0.98,0.61,0.47,0.58s-0.82,0.7-0.87,0.64S157.36,12.82,157.49,12.47z M155.91,19.53
			c0.21-0.38,0.67-0.28,1.01,0.2c0.34,0.48,1.66-0.23,2.02-0.01c0.36,0.22,0.29,1.25-0.3,1.26c-0.59,0.01-0.49-0.66-0.65-0.3
			s-0.04,0.21-0.46-0.17C157.11,20.12,155.69,19.9,155.91,19.53z M154.27,9.15c0.02-0.2,0.19-0.18,0.39,0.04
			c0.2,0.23,0.34,0.92,0.14,0.82S154.25,9.35,154.27,9.15z M154.3,62.36c-0.62-0.03-0.61-0.59-0.57-1.17
			C154.45,61.24,154.91,61.88,154.3,62.36z M154.62,97.07c-0.82,0.03-0.54-0.52-0.41-1.02C154.66,96.08,154.65,96.56,154.62,97.07z
			 M153.44,29.84c0.49,0.33,0.98,1.27,0.57,1.64C153.43,31.25,153.4,30.58,153.44,29.84z M153.24,46.05c0.11-0.17,0.33-0.3,0.49-0.3
			s0.51,0.27,0.45,0.6S153.13,46.22,153.24,46.05z M153.41,97.49c0.33,0.21,0.31,0.33-0.03,0.26s-0.06,0.02-0.14-0.11
			S153.09,97.28,153.41,97.49z M150.6,13.47c-0.82-0.26-1.06-1-1.14-1.87C150.57,11.62,150.5,12.61,150.6,13.47z M148.87,19.48
			c0.01-0.35,0.15-0.64,0.3-0.64c0.16,0,0.57,0.17,0.57,0.39S148.86,19.84,148.87,19.48z M146.62,8.55c0.94,0.01,1.09,0.67,1.14,1.4
			C146.54,10.17,146.54,9.4,146.62,8.55z M147.75,48.09c-0.91-0.42-0.72-1.04-0.57-1.87C147.96,46.75,148.07,47.12,147.75,48.09z
			 M147.29,18.44c0.31-0.49,1.02,0.32,1.02,0.81C147.73,19.22,147.75,18.59,147.29,18.44z M148.77,33.56
			c-0.09,0.14-0.3,0.12-0.47-0.04c-0.17-0.16-0.15-0.83-0.02-0.76S148.85,33.42,148.77,33.56z M149.68,26.82
			c-0.28,0.12-0.75-0.18-1.04-0.66s0.79-0.61,0.76-0.42c-0.04,0.19,0.63,0.92,0.98,0.74s0.21-0.36,0.52-0.33
			C151.21,26.18,149.95,26.71,149.68,26.82z M150.88,64.46c0.56,0.16,0.76,0.62,0.85,1.17C150.37,66.04,150.83,65.54,150.88,64.46z
			 M154.3,100.28c-0.38,0.14-0.95,0.14-1.27,0.01c-0.31-0.13-0.69-0.86-0.74-0.72c-0.05,0.14-0.37,0.22-0.67-0.18
			c-0.31-0.41,0.32-1.2,0.78-0.84c0.46,0.36,1.65,1.34,1.71,1.28s0.18-0.22,0.02-0.36s-0.37-0.5-0.19-0.44
			C154.13,99.09,154.68,100.14,154.3,100.28z M155.15,48.32c-0.73-0.03-0.57-0.78-0.57-1.4C155.42,46.91,155.54,48,155.15,48.32z
			 M155.95,99.16c-0.28-0.03-0.51-0.12-0.51-0.19s0.06-0.28,0.13-0.28C155.63,98.68,156.23,99.19,155.95,99.16z M158.47,117.01
			c-0.1,0.12-0.33,0.15-0.51,0.07c-0.18-0.08-0.18-0.71-0.06-0.77C158.03,116.25,158.57,116.89,158.47,117.01z M161.86,117.33
			c0-0.39,0-0.78,0-1.17C163.86,116.21,163.86,117.97,161.86,117.33z M163.34,113c-0.09-0.25-0.2-0.33-0.25-0.2
			c-0.05,0.14-1.18,0.4-2.48,0.2c-1.3-0.2-2.8-1.13-0.89-1.21C161.63,111.71,163.42,113.25,163.34,113z"/>
	</g>
	<g>
		<path fill="#233138" d="M209.9,100.76c-2.2,0.07-4.06-1.67-4.13-3.87l-1.05-32.21c-0.07-2.2-0.26-4.15-0.43-4.34
			s-0.13-1-0.03-0.98c0.09,0.02,0.23-1.69,0.16-3.89L203,11.92c-0.07-2.2-0.27-4.13-0.43-4.29c-0.17-0.16-0.11-0.93-0.02-0.92
			c0.09,0.01,0.26-0.59,0.23-1.41c-0.03-0.82-1.9-2.91-4.09-2.83l-8.52,0.29c-2.2,0.08-3.93,1.94-3.85,4.14l0.35,9.68
			c0.08,2.2,0.22,3.98,0.3,3.97c0.08-0.02,0.25,0.1,0.15,0.27s-0.12,0.86-0.15,0.87s-0.04,1.82,0.04,4.02l1.43,39.45
			c0.08,2.2,0.22,4.02,0.32,4.05s0.37,0.08,0.32,0.12c-0.05,0.04-0.42,1.99-0.34,4.19l1.42,39.05c0.08,2.2,1.94,3.94,4.14,3.86
			l31.34-1c2.2-0.07,3.95-1.92,3.89-4.12l-0.19-7.11c-0.06-2.2-1.91-3.95-4.11-3.88L209.9,100.76z M203.8,67.04
			c0.59,0.14,1.08,0.36,0.85,1.17C203.78,68.24,203.38,67.38,203.8,67.04z M200.84,5.06c0.06,0.51,0.18,0.8,0.26,0.65
			s0.46-0.24,0.15-0.29s-0.05-0.63,0.25-0.36c0.3,0.27,0.09,1.13-0.52,0.82S200.78,4.55,200.84,5.06z M197.83,30.78
			c0.79,0.06,0.1,1.32,1.14,1.17C198.53,32.98,197.62,31.67,197.83,30.78z M198.42,38.52c0.3-0.01,0.45,0.28,0.34,0.64
			c-0.11,0.37,0.35,0.92,0.53,0.85s0.78,0.14,0.73,0.44c-0.05,0.3-0.97,0.62-1.57,0.34S198.12,38.53,198.42,38.52z M197.26,45.75
			c0.61,0.2,1.01,0.58,0.85,1.4C197.5,46.95,197.11,46.58,197.26,45.75z M190.71,31.24c1.25,1.39,2.69,2.62,3.41,4.45
			C192.82,34.35,191.43,33.08,190.71,31.24z M192.91,48.85c0.2,0.09,0.36,0.35,0.36,0.56c0,0.21-0.05,0.54-0.11,0.24
			S192.71,48.75,192.91,48.85z M192.23,58.43c-0.85,0.24-0.36-0.86-0.82-1.02C191.72,56.92,192.24,57.93,192.23,58.43z M194.7,28.91
			c-0.88,0.49-1.37-1.02-0.57-1.64C195.47,27.39,193.83,28.6,194.7,28.91z M194.05,57.2c0.12-0.22,0.38-0.15,0.58,0.16
			s-0.05,1.36-0.16,1.21S193.93,57.42,194.05,57.2z M194.7,21.89c-0.73-0.03-0.57-0.78-0.57-1.4
			C195.16,20.26,194.53,21.41,194.7,21.89z M193.68,4.03c0.25,0.17,0.43,0.47,0.4,0.66s-0.14,1.29-0.73,1S193.43,3.85,193.68,4.03z
			 M192.14,9.96c0.16,0,0.45,0.17,0.65,0.39s-0.26,1.22-0.48,0.9C192.08,10.92,191.98,9.96,192.14,9.96z M191.81,17.23
			c0.33,0.12,0.55,0.37,0.48,0.57s-0.15,0.88-0.48,0.69C191.47,18.3,191.48,17.12,191.81,17.23z M190.72,24.7
			c0.15,0,0.26-0.05,0.23-0.11s-0.02-0.09,0.23-0.05c0.25,0.04,0.79,0.03,0.58,0.16s-0.57,0.61-0.69,0.5S190.56,24.7,190.72,24.7z
			 M188.84,32.7c0.5-0.74,0.37,0.84,0.82,0.82C189.13,34.29,189.12,32.84,188.84,32.7z M190.43,38.26c1,0.08,0.74,0.61,0.57,1.17
			C190.01,39.6,189.98,38.61,190.43,38.26z M191.35,61.02c0.03-0.64-0.02-1.21-0.13-1.25s-0.03-0.28,0.46-0.49
			c0.49-0.2,0.62,0.38,0.46,0.38c-0.16,0.01-0.49-0.02-0.7,0.21c0,0,0,0-0.03,0.38C191.35,61.02,191.35,61.02,191.35,61.02z
			 M192.52,63.54c0.1,0.25,0.03,0.09-0.16-0.35c-0.19-0.44-0.74-1.33-0.68-1.08C191.74,62.36,192.42,63.29,192.52,63.54z
			 M192.82,57.7c0.01-0.27,0.28-0.47,0.59-0.44c0.32,0.03,0.1,0.61-0.08,0.43S192.81,57.97,192.82,57.7z M193.56,109.84
			c0.65,0.32,0.67,1.17,1.42,1.4C194.17,111.97,193.34,110.73,193.56,109.84z M195.55,7.62c-0.64-0.19-0.94-1.57,0.29-1.4
			C195.84,6.77,195.35,6.9,195.55,7.62z M196.4,59.08c0.43,0.27,1.16,0.29,1.42,0.7C197.79,61.11,195.75,60.37,196.4,59.08z
			 M197.52,107.32c0.28-0.53,1.25-0.04,1.63,0C198.91,108.16,198.14,107.3,197.52,107.32z M200.1,63.99c0,0.26-0.23,0.34-0.51,0.19
			s-0.21-1.12-0.06-1.12C199.69,63.06,200.1,63.74,200.1,63.99z M199.54,48.79c1.19-0.12,1.13,0.79,1.42,1.4
			C199.76,50.32,199.83,49.4,199.54,48.79z M201.1,12.05c-0.08,0.26-0.41,0.28-0.74,0.04s-1.72-0.6-1.78-0.73
			c-0.06-0.12,0.67-0.36,1.01,0.06S201.17,11.79,201.1,12.05z M202.47,13.48c0.26,0.38,0.32,0.73,0.12,0.78
			c-0.2,0.05-0.7-0.06-0.59-0.3S202.21,13.1,202.47,13.48z M202.47,96.19c-0.21,0-0.34-0.34-0.29-0.75s-0.1-1.11,0.23-0.8
			C202.76,94.94,202.68,96.19,202.47,96.19z M203.52,82.47c-0.73-0.03-0.56-0.78-0.57-1.4C203.86,81,203.98,82.09,203.52,82.47z
			 M203.99,75.68c-0.1,0.13-0.35,0-0.56-0.28c-0.21-0.29,0.38-0.84,0.73-0.78C204.5,74.68,204.09,75.55,203.99,75.68z M205,84.51
			c-0.15,0.08-0.24,0.22-0.2,0.33c0.04,0.11-0.21,0.67-0.38,0.49c-0.17-0.18,0.03-0.88,0.19-0.87
			C204.77,84.46,205.16,84.43,205,84.51z M217.86,111.51c-0.07,0.37-0.22,0.62-0.35,0.55s-0.62-0.29-0.62-0.5
			C216.89,111.34,217.93,111.14,217.86,111.51z M218.03,104.7c-0.76-0.08-0.96-0.61-1.14-1.17
			C218.08,103.5,218.44,103.98,218.03,104.7z M224.99,105.16c-0.39-0.25-0.62-0.57-0.53-0.71c0.1-0.13,0.3-0.53,0.54-0.34
			C225.23,104.3,225.38,105.41,224.99,105.16z M226.28,105.16c0.42,0.2,0.61,0.59,0.57,1.17C226,106.38,225.84,105.5,226.28,105.16z
			"/>
	</g>
	<g>
		<g>
			<path fill="#233138" d="M260.11,5.68c-0.01,0.03-0.02,0.06-0.03,0.09C260.1,5.74,260.11,5.71,260.11,5.68z"/>
		</g>
		<g>
			<path fill="#233138" d="M275.04,99.19c-1.54,0.03-2.83,0.12-2.87,0.21c-0.04,0.09-0.21,0.32-0.37,0.25s-2.24-0.35-4.44-0.31
				l-9.33,0.18c-2.2,0.04-4.04-1.72-4.08-3.92l-0.57-26.6c-0.05-2.2,1.71-4.04,3.91-4.08l15.52-0.29c2.2-0.04,3.95-1.79,3.88-3.89
				c-0.06-2.1-0.32-7.61-0.5-7.56s-0.32-0.07-0.32-0.24c0-0.17,0.11-0.58,0.25-0.53s0.39-0.42,0.4-0.97s-1.8-1.96-4-1.92
				l-15.57,0.29c-2.2,0.04-4.04-1.72-4.08-3.92l-0.45-21.49c-0.05-2.2-0.2-3.96-0.35-3.91c-0.15,0.05-0.85-0.1-0.99-0.24
				c-0.14-0.14,0.12-0.88,0.29-0.83s0.95-0.35,0.93-0.99s1.75-2.36,3.95-2.4l15.56-0.29c2.2-0.04,4-0.22,4-0.4
				c0-0.18,0.42-0.37,0.59-0.27s0.5,0.58,0.92,0.57s1.51-1.83,1.47-4.03l-0.07-4.53c-0.03-2.2-0.12-3.9-0.2-3.79
				c-0.08,0.12-0.25,0.19-0.36-0.02c-0.11-0.21-0.18-0.79,0.04-0.78c0.22,0.01,0.45-0.51,0.44-0.83s-1.82-1.13-4.02-1.1l-13.15,0.23
				c-2.2,0.04-4.27,0.12-4.6,0.17c-0.33,0.05-0.7,0.23-0.61,0.32c0.1,0.09,0.28,0.34,0.33,0.22c0.06-0.13,0.44,0.1,0.35,0.44
				s-0.01,1.72-0.21,1.58s-0.18-0.1-0.2,0.52c-0.01,0.62,0.11,1.26-0.18,0.65c-0.29-0.62-1.29-1.97-1.27-2.01s0.07-0.29,0.08-0.47
				c0.01-0.19,0.16-0.67,0.17-0.67s-0.04-0.06-0.13-0.14s-0.21-0.47-0.26-0.47c-0.05,0-0.2,0.03-0.2,0.05
				c0,0.03-0.11,0.09-0.24,0.08s-2.16-0.08-4.36-0.03l-10.74,0.25c-2.2,0.05-3.95,1.89-3.9,4.09l0.99,39.41
				c0.06,2.2,0.23,3.94,0.38,3.86c0.16-0.08,0.65,0.07,0.47,0.27c-0.18,0.2-0.34,0.97-0.45,0.89s-0.26,0.68-0.23,2
				s0.39,4.63,0.71,4.4c0,0,0,0,0.28-0.22c1.5-1.16,1.5-1.16,1.5-1.16c1.64-1.27,2.25-1.63,1.34-0.81s-3.66,4.71-3.6,6.91
				l1.27,50.14c0.06,2.2,1.9,3.96,4.1,3.91l34.6-0.7c2.2-0.04,3.97-1.87,3.94-4.07l-0.11-7.11
				C280.64,100.9,276.57,99.16,275.04,99.19z M260.42,14.32c0,0.17,0.02,0.17,0.05,0.01c0.03-0.17-1.47-0.54-1.47-0.71
				c0-0.17,0.14-0.46,0.31-0.26C259.48,13.57,260.42,14.15,260.42,14.32z M270.1,9.96c1.24,0.35,0.58,0.89,0.85,2.11
				C270.38,11.63,269.35,10.74,270.1,9.96z M275.09,14.46c-0.4,0.1-0.73,0.04-0.73-0.13c0-0.17,0.17-0.69,0.38-0.78
				S275.49,14.36,275.09,14.46z M274.06,6.47c-0.15-0.27-0.09-0.32,0.12-0.1c0.21,0.22,1.51,0.16,1.4,0.56
				c-0.11,0.4,0.2,0.77-0.16,0.59C275.07,7.36,274.21,6.75,274.06,6.47z M270.95,3.17c-0.9,1.25,0.69,1.88-1.14,1.17
				C269.83,3.66,269.91,3.02,270.95,3.17z M267.53,6.84c0-0.08,0.13-0.22,0.3-0.3c0.17-0.08,0.68,0.23,0.48,0.61
				C268.12,7.54,267.53,6.92,267.53,6.84z M265.99,11.26c0.38-0.07,0.57,0.21,0.42,0.64s0.97,0.75,0.77,0.89
				c-0.2,0.14-1.24,0.11-1.45-0.01C265.51,12.64,265.61,11.33,265.99,11.26z M262.7,2.47c0.85,0.24,0.56,1.41,0.85,2.11
				C262.72,4.33,262.63,3.46,262.7,2.47z M262.05,9.7c0.2-0.12,0.43-0.32,0.51-0.46c0.08-0.13,0.7,0.26,0.7,0.56
				s-0.14,1.03-0.3,0.95C262.8,10.67,261.86,9.81,262.05,9.7z M259.75,5.79c0.37-0.28,0.62-0.46,0.56-0.39s-0.07,0.27,0.03,0.35
				c0.11,0.08,0.23,0.41,0.37,0.46c0.14,0.05,0.23,0.22-0.17,0.2c-0.4-0.02-1.72,0.25-1.75,0.27s-0.06-0.01-0.04-0.01
				S259.39,6.07,259.75,5.79z M259.34,1.35c0.21-0.23,0.36-0.38,0.33-0.32c-0.03,0.06-0.31,0.21-0.27,0.36
				c0.04,0.14,0.2,0.38,0.03,0.43c-0.17,0.05-0.47,0.33-0.47,0.37c0,0.04-0.05,0.12-0.04,0.07s-0.16-0.19-0.41-0.25
				C258.27,1.94,259.12,1.58,259.34,1.35z M257.98,3.48c-0.04-0.4,0.14-0.51,0.4-0.25c0.27,0.26,0.88,0.94,0.81,0.92
				c-0.07-0.02-0.48-0.05-0.48-0.16c0-0.11-0.14-0.5-0.32-0.6S258.02,3.87,257.98,3.48z M255.02,9.02c0.73,0.26,0.56,1.26,0.57,2.11
				C254.93,10.64,254.51,9.83,255.02,9.02z M253.2,12.63c0.21,0.2,0.61,0.74,0.88,1.19s-0.95,1.43-1.52,1.04
				C251.99,14.47,252.99,12.42,253.2,12.63z M238.8,6.45c1.2-0.36,0.04,1.21,0.85,1.17C238.77,8.63,237.99,6.89,238.8,6.45z
				 M237.12,13.36c-0.17-0.07-0.31-0.31-0.31-0.52s0.11-0.79,0.25-0.81s0.37,0.01,0.44,0.27S237.29,13.44,237.12,13.36z
				 M238.51,51.83c-0.78-0.22-0.65-1.18-0.85-1.87C238.4,50.2,238.59,50.91,238.51,51.83z M239.08,45.05
				c-1.25,0.2-1.02-1.52-0.28-1.64C239.43,43.51,238.91,44.56,239.08,45.05z M239.41,37.06c-0.02,0.27-0.28,0.34-0.57,0.16
				s-0.2-1.07-0.04-1.07S239.43,36.79,239.41,37.06z M239.94,23.29c0,0.26-0.18,0.37-0.39,0.24s-0.33-1.18-0.18-1.18
				C239.52,22.36,239.94,23.03,239.94,23.29z M239.37,15.1c0.56,0.16,0.76,0.62,0.85,1.17C239.77,15.96,238.6,15.73,239.37,15.1z
				 M239.68,9.94c-0.17-0.25-0.18-0.65-0.01-0.9c0.16-0.25,0.31-0.84,0.37-0.43C240.09,9.02,239.85,10.18,239.68,9.94z
				 M241.07,105.4c-0.58-0.17-1.16-0.7-0.57-1.17C241.46,103.99,240.95,104.96,241.07,105.4z M250.72,47.52
				c0.17-0.07,0.15,0.17-0.05,0.55c-0.2,0.38,0.4,0.81,0.08,0.65C250.44,48.55,250.55,47.59,250.72,47.52z M250.21,61.1
				c0.3,0.05,0.57,0.34,0.6,0.66c0.03,0.32-0.12,0.85-0.54,0.6C249.84,62.11,249.91,61.06,250.21,61.1z M247.33,8.32
				c1.16-0.22,0.99,1.27,0.57,1.64C247.32,9.73,247.29,9.06,247.33,8.32z M247.33,14.87c0.86,0.01,0.83,1.66-0.29,1.4
				C247.01,15.7,247.01,15.15,247.33,14.87z M244.29,5.11c0.11-0.17,0.26-0.07,0.34,0.21c0.08,0.28,0.6,0.59,0.47,0.5
				C244.96,5.73,244.18,5.28,244.29,5.11z M243.87,12.34c0.34-0.02,0.86,0,1.17,0.05s0,0.81-0.36,0.76
				C244.32,13.11,243.54,12.36,243.87,12.34z M244.16,26.16c0.5-0.03,0.73,0.13,0.52,0.37c-0.21,0.24-0.19,0.96-0.55,0.65
				S243.66,26.2,244.16,26.16z M243.77,48.66c0.08,0.33-0.12,0.39-0.44,0.14c-0.32-0.25-0.58-1.19-0.27-1.19
				C243.38,47.62,243.69,48.34,243.77,48.66z M243.3,34.24c-0.13-0.11-0.09-0.25,0.09-0.31s0.33-0.44,0.43-0.27
				C243.92,33.83,243.44,34.35,243.3,34.24z M242.99,62.37c-0.43-0.01-0.89-0.17-1.02-0.36c-0.13-0.19,0.26-0.99,0.62-0.9
				C242.96,61.19,243.42,62.38,242.99,62.37z M244.49,63.99c-0.99-0.28-0.79-0.8-0.28-1.4C244.83,62.62,244.32,63.58,244.49,63.99z
				 M244.77,71.71c0.69,0.21,0.75,0.94,0.85,1.64C244.49,73.5,244.81,72.46,244.77,71.71z M245.88,37.58
				c0.02-0.4,0.16-0.67,0.33-0.61c0.17,0.06,0.83,0.02,0.82,0.18S245.87,37.98,245.88,37.58z M249.21,105.54
				c-0.1,0.31-0.41,0.37-0.7,0.13s-1.67-0.32-1.58-0.37s0.42-0.4,0.45-0.72s0.48-0.89,0.8-0.67S249.31,105.23,249.21,105.54z
				 M249.58,99.37c0.17,0.48-0.11,0.63-0.63,0.33c-0.52-0.3-0.53-1.88-0.23-1.72C249.02,98.15,249.41,98.89,249.58,99.37z
				 M251.39,71.3c-0.2,0.23-0.9,0.08-1.57-0.33c-0.67-0.41-0.08-1.92,0.07-1.75s0.79,0.58,0.71,0.81S251.58,71.08,251.39,71.3z
				 M252.25,50.6c-0.2-0.1-0.37-0.35-0.37-0.56s0.05-0.54,0.11-0.24S252.45,50.7,252.25,50.6z M273.61,63.3
				c-0.05,0.12-0.24,0.13-0.41,0.01s-1.11-0.13-1.11-0.25c0-0.13,0.17-0.54,0.38-0.62C272.68,62.35,273.66,63.18,273.61,63.3z
				 M275.79,58.61c1.03-0.22,0.4,0.92,0.57,1.4C275.49,60.05,275.55,58.8,275.79,58.61z M272.62,55.62c0.02-0.41,0.22-0.55,0.45-0.3
				c0.23,0.24,1.2,0.65,1.08,0.85c-0.12,0.2-0.04,0.94,0.34,1.1c0.38,0.16-0.29,0.84-1.19,0.23c0,0,0,0,1.07,0.18
				c-1.11-0.18-1.11-0.18-1.11-0.18C272.45,56.95,272.59,56.03,272.62,55.62z M271.17,61.21c0.04-0.14,0.59-0.26,1.23-0.27
				c0.64-0.01,0.67,0.97,0.11,1C271.95,61.96,271.13,61.35,271.17,61.21z M265.54,55.1c0.75,0.08,0.26,1.19,0.85,1.4
				C265.36,57.11,265.16,55.55,265.54,55.1z M260.8,50.98c0.26-0.04,0.38,0.08,0.27,0.28s0.16,0.86,0.11,0.64
				S260.55,51.02,260.8,50.98z M253.88,52.06c-0.93-0.02-0.61-1.06-0.85-1.64C254.13,50.16,254.61,51.6,253.88,52.06z
				 M273.61,101.04c-0.21,0.08-0.46,0-0.55-0.19s-0.51-0.49-0.28-0.65C273.01,100.03,273.83,100.96,273.61,101.04z"/>
		</g>
		<g>
			<path fill="#233138" d="M255.79,1.98c-0.01,0.03,0,0.04,0.02,0.02c0.02-0.01,0.05-0.08,0.04-0.09
				C255.83,1.91,255.79,1.96,255.79,1.98z"/>
		</g>
	</g>
	<g>
		<path fill="#233138" d="M383.06,5.67c0.3-0.35,0.57-0.63,0.58-0.63s0.06-0.74,0.07-1.64s-0.07-3.28-0.2-3.28
			c-0.12,0-0.46,0-0.46,0c0,0-0.01,0.01-0.02,0c-0.01,0-0.86,0-1.88,0.01c-1.02,0.01-3.75,0.02-3.78,0.03
			c-0.03,0.01-0.18,1.02-0.39,1.02s-0.78-0.18-0.8-0.4s-1.35-0.68-3.07-0.7c-1.71-0.02-6.82,1.65-7.54,3.73L360,19.96
			c-0.72,2.08-1.24,3.86-1.16,3.95s0.48,0.23,0.34,0.41c-0.14,0.17-1.39,1.85-2.09,3.94l-2.85,8.16c-0.72,2.08-1.23,3.78-1.14,3.78
			s0.17,0.21-0.05,0.47c-0.22,0.26,0.66,0.68,0.64,0.99c-0.03,0.3-0.82,0.3-0.83,0.07c-0.02-0.23-0.46,0.38-0.91,1.7
			c-0.45,1.32-2.2,3.07-2.91,0.99l-5.66-16.66c-0.71-2.08-1.35-3.84-1.43-3.9c-0.07-0.06-0.13-0.32-0.1-0.31
			c0.03,0.01-0.48-1.65-1.19-3.74l-5.51-16.04c-0.72-2.08-3.1-3.77-5.3-3.77l-8.86,0.04c-2.2,0.01-3.99,1.82-3.97,4.02l0.2,29.16
			c0.02,2.2,0.05,4,0.08,3.99c0.03-0.01,0.08,0.08,0.07,0.21c-0.01,0.13-0.11,1.09-0.11,1.93c0.01,0.84,0.42,3.03,0.92,3.02
			c0.49-0.01,1.09,0.14,0.67,0.19s-1.56,1.93-1.54,4.13l0.43,63.11c0.02,2.2,1.83,3.99,4.03,3.98l7.28-0.04
			c2.2-0.01,3.99-1.82,3.99-4.02l-0.16-48.55c-0.01-2.2-0.08-4.03-0.16-4.06c-0.08-0.03-0.24-0.17-0.15-0.22
			c0.08-0.05,0.29-1.94,0.28-4.14l-0.04-12.53c-0.01-2.2,0.57-2.3,1.29-0.22l7.36,21.4c0.71,2.08,1.32,3.78,1.35,3.78
			c0.03,0,0.06,0.06,0.06,0.14c0,0.09,0.6,2.01,1.33,4.08l4.38,13.04c0.77,2.06,1.47,3.75,1.56,3.75s0.91-1.7,1.63-3.78L366.39,40
			c0.73-2.08,1.32-1.97,1.31,0.23l-0.33,69.51c-0.01,2.2,1.19,4.01,2.66,4.02c1.47,0.01,5.35,0.01,5.35-0.03s0.09-0.12,0.21-0.09
			s1.4,0.17,2.65,0.17c1.25,0.01,4.58-1.77,4.59-3.97l0.83-99.42C383.67,8.23,382.76,6.02,383.06,5.67z M338.09,19.08
			c0.9,0.12,0.46,1.34,1.14,1.64C338.65,21.26,337.86,19.99,338.09,19.08z M338.83,34.21c-0.09,0.17-0.41,0.21-0.72,0.08
			c-0.3-0.13-0.16-0.88,0.02-0.81S338.92,34.04,338.83,34.21z M338.09,26.1c1.36,0.17,0.66,0.92,0.29,1.64
			C337.43,27.39,337.54,26.69,338.09,26.1z M335.82,10.43c-0.38-0.46-0.79-0.91-1.99-0.7C333.93,9.07,337.54,8.95,335.82,10.43z
			 M334.4,22.83c0.16-0.13,0.41-0.24,0.57-0.24c0.16,0,0.66,0.14,0.77,0.3c0.11,0.17-0.05,0.79-0.22,0.7S334.24,22.96,334.4,22.83z
			 M334.47,30.14c0.12-0.16,0.4-0.08,0.64,0.18c0.24,0.26,0.52-0.05,0.29,0.19S334.35,30.3,334.47,30.14z M334.96,16.27
			c1.05-0.08,0.86,0.85,1.14,1.4C335.57,17.34,334.84,17.15,334.96,16.27z M335.25,8.55c-0.65-0.17-1.45-0.21-1.99-0.47
			C333.4,8.1,335.36,7.38,335.25,8.55z M329.55,4.48c0.16-0.46,0.39-0.67,0.51-0.47c0.12,0.2,0.46,0.66,0.61,0.47
			s1.1,0.17,1.03,0.53c-0.08,0.37-0.41,1.28-0.73,1.08s-0.26-0.98-0.6-1.18C330.03,4.72,329.39,4.94,329.55,4.48z M320.45,8.32
			c0.96-0.24,0.44,0.73,0.57,1.17C319.88,9.52,320.27,8.89,320.45,8.32z M318.86,86.68c0-0.31,0-0.62,0-0.94
			C319.86,85.56,319.86,86.87,318.86,86.68z M319.88,65.16c0,0.26-0.12,0.32-0.27,0.15c-0.15-0.18-1.08-0.27-1-0.41
			c0.08-0.14,0.3-0.67,0.51-0.67S319.88,64.91,319.88,65.16z M319.03,57.44c0.79-0.1,0.27,0.87,0.85,0.94
			C319.46,59.07,318.13,57.92,319.03,57.44z M320.26,44.45c-0.21,0.14-0.8,0.17-1.32,0.07s-1.14-0.29-0.55,0.05
			c0.59,0.34,1.05-1.38,1.21-1.38S320.47,44.3,320.26,44.45z M319.58,23.23c-0.3-0.1-0.51-0.56-0.46-1.03
			c0.05-0.47-0.76-0.84-0.53-0.91s0.71-0.37,1.04-0.13c0.33,0.25,1.72,0.71,1.76,0.98C321.44,22.41,319.88,23.33,319.58,23.23z
			 M320.86,53.23c0-0.31,0-0.62,0-0.94C321.86,52.11,321.86,53.42,320.86,53.23z M322.16,53.47c0.88-0.02,0.85,0.71,0.85,1.4
			C322.06,54.96,322.54,53.86,322.16,53.47z M323.64,33.06c-0.19,0.42-0.48,0.69-0.64,0.61c-0.17-0.08-0.64-0.25-0.4-0.43
			C322.84,33.05,323.83,32.64,323.64,33.06z M323.38,19.3c-0.2,0.13-0.48,0.09-0.61-0.1c-0.13-0.19,0.04-0.92,0.14-0.74
			S323.58,19.17,323.38,19.3z M323.58,13c-0.85-0.4-0.32-0.85-0.29-1.64C324.12,11.37,323.97,12.68,323.58,13z M323.54,6.87
			c-0.29-0.49-0.43-1.09-0.32-1.35s0.73-0.76,1.18-0.52c0.45,0.23,1.18,1.06,0.82,1.16C324.87,6.26,323.82,7.36,323.54,6.87z
			 M325.64,36.03c-0.66-0.45-1.06-1.15-0.9-1.57s1.63-0.37,1.22-0.33c-0.42,0.04-0.03,1.13,0.41,1.17S326.3,36.48,325.64,36.03z
			 M326.88,58.48c-0.09-0.05,0.03-0.15,0.27-0.22c0.24-0.07,1.16-0.12,1.03,0.15C328.04,58.68,326.97,58.53,326.88,58.48z
			 M327.21,51.75c-0.27-0.08-0.43-0.34-0.34-0.57s0.24-0.77,0.38-0.5S327.48,51.84,327.21,51.75z M327.57,45.28
			c-0.4-0.35-1.05-1.01-0.57-1.4C328.03,43.66,327.39,44.8,327.57,45.28z M325.4,100.14c-0.37-0.2-0.61-0.44-0.53-0.55
			c0.08-0.1,0.32-0.38,0.55-0.23S325.77,100.33,325.4,100.14z M326.45,87.15c-0.32-0.12-0.44-0.39-0.27-0.59s0.45-0.86,0.7-0.64
			S326.77,87.27,326.45,87.15z M328.86,60.95c-1,0.18-1-1.12,0-0.94C328.86,60.33,328.86,60.64,328.86,60.95z M330.13,69.61
			c-1.18,0.07-0.53-1.64,0.57-1.17C330.54,68.85,330.55,69.41,330.13,69.61z M329.56,61.19c0.26-0.74,1.78,1.58,0,1.17
			C329.72,62.21,330.22,61.25,329.56,61.19z M330.35,40.36c-0.12,0.52-0.15,0.46-0.06-0.13c0.09-0.59-1.61-1.04-1.64-1.61
			c-0.03-0.58-1.33-1.26-1.3-1.51s-0.02-0.45,0.39-0.41s0.56,0.82,0.76,0.77c0.2-0.05,0.4,0.04,0.3,0.56
			c-0.1,0.52,1.56,0.79,1.5,0.92C330.24,39.07,330.47,39.84,330.35,40.36z M332.04,21.29c-0.76-0.05-0.57-0.72-0.41-1.22
			C332.16,20.09,332.04,20.75,332.04,21.29z M332.92,19.18c-0.37-0.07-0.52-0.22-0.33-0.33s0.37-0.43,0.23-0.2
			C332.7,18.88,333.29,19.25,332.92,19.18z M333.27,20.62c-0.34-0.08-0.61-0.2-0.61-0.27s0.15-0.27,0.34-0.27
			C333.18,20.07,333.61,20.69,333.27,20.62z M336.34,37.8c-0.44,0.25-1.25,0.47-1.78,0.48c-0.54,0.01-0.31-0.76,0.2-0.52
			C335.27,38.01,336.78,37.55,336.34,37.8z M336.1,39.67c-0.29-0.66-0.32-1,0.85-0.94C337.04,39.34,336.85,39.74,336.1,39.67z
			 M337.53,41.54c-0.06-0.67-0.04-1.28,0.85-1.17C338.12,40.78,338.39,41.62,337.53,41.54z M338.66,42.24
			c0.69,0.15,1.11-0.83,1.99-1.17C340.63,41.95,339.53,42.78,338.66,42.24z M343.38,59.41c-0.09,0.33-0.54,0.49-1,0.35
			c-0.46-0.14-0.43-1.11-0.23-0.77C342.35,59.34,343.47,59.08,343.38,59.41z M343.24,30.99c0.14,0.14-0.06-0.04-0.46-0.4
			s-1.12-1.21-0.92-0.92C342.05,29.96,343.1,30.85,343.24,30.99z M348.09,59.82c-0.34,0.11-0.22,0,0.26-0.25
			c0.48-0.25,1.15-1.16,1.18-0.84C349.56,59.04,348.43,59.71,348.09,59.82z M350.53,73.6c-0.11,0.12-0.39,0.13-0.62,0.02
			s-0.92-0.28-0.46-0.58S350.64,73.47,350.53,73.6z M350.61,74.05c0.8,0.04,0.36,1.11,1.42,0.94
			C351.58,76.19,349.99,74.44,350.61,74.05z M352.04,47.07c0,0.17-0.28,0.29-0.61,0.27c-0.34-0.02-0.39-0.72-0.23-0.8
			C351.36,46.46,352.04,46.9,352.04,47.07z M353.46,56.51c-0.69-0.21-0.75-0.94-0.85-1.64C353.67,55.16,353.7,55.61,353.46,56.51z
			 M358.29,60.49c-1.15-0.06-0.84-1.05-0.28-1.4C358.92,58.75,358.73,60.48,358.29,60.49z M366,9.98c0.14-0.14,0.48-0.03,0.75,0.26
			c0.27,0.28-0.29,0.66-0.39,0.66S365.86,10.12,366,9.98z M360.86,49.72c0-0.47,0-0.94,0-1.4
			C360.86,48.52,361.86,49.67,360.86,49.72z M360.85,27.74c-0.16-0.52-0.04-0.8,0.25-0.64c0.29,0.17,0.74-0.03,0.9,0.31
			C362.17,27.75,361.01,28.25,360.85,27.74z M363.18,28.38c-0.34-0.23-0.59-0.6-0.57-0.84c0.02-0.24,0.82-0.07,0.84,0.17
			C363.47,27.95,363.51,28.6,363.18,28.38z M365.52,17.14c0.57-0.09,0.94-0.03,0.84,0.14s-0.39,0.78-0.75,0.69
			S364.95,17.24,365.52,17.14z M366.52,31.77c-0.45,0.35-0.81,0.21-0.79-0.31s-1-0.82-1.14-1.28c-0.14-0.45,1.1-0.09,1.44,0.23
			C366.35,30.73,366.97,31.42,366.52,31.77z M381.34,10.19c0.56,0.18,1.02,0.82,0.57,1.17C380.77,11.39,381.16,10.76,381.34,10.19z
			 M373.38,2.94c0.59,0.21,0.87,0.69,0.85,1.4C373.21,4.48,373.36,3.65,373.38,2.94z M367.97,71.25c0.47-0.55-0.15-2,1.14-1.87
			C369.6,69.95,369.07,71.25,367.97,71.25z M369.31,35.62c-0.11,0.17-0.33,0.13-0.48-0.09s-0.18-0.96-0.04-0.9
			S369.42,35.45,369.31,35.62z M369.86,7.02c0,0.46-0.13,0.79-0.28,0.73s-1.04-0.28-0.98-0.74s0.69-0.83,0.89-0.83
			S369.86,6.56,369.86,7.02z M374.11,74.38c-0.09,0.33-0.25,0.46-0.35,0.29s-0.74-0.18-0.49-0.23
			C373.53,74.39,374.2,74.05,374.11,74.38z M372.89,60.97c-0.83-0.14-1.38-0.61-1.23-1.04c0.15-0.43,0.76-1.22,0.98-0.82
			S373.72,61.12,372.89,60.97z M374.36,19.08c-0.38-0.77-0.46-1.42-0.16-1.43c0.29-0.01,0.37,0.16,0.07,0.89
			C373.97,19.27,374.74,19.85,374.36,19.08z M375.68,49.47c0.14-0.5,0.43-0.91,0.64-0.91s0.87,0.41,1.01,0.91
			S375.54,49.97,375.68,49.47z M376.71,28.84c-0.12,0.16-0.31,0.24-0.44,0.17s-0.5-0.29-0.36-0.52
			C376.06,28.28,376.83,28.68,376.71,28.84z M376.01,70.22c0.43,0.05,0.55,0.31,0.27,0.58s0.31,0.52,0.09,0.33
			C376.15,70.94,375.59,70.17,376.01,70.22z M376.5,92.77c-0.89,0.11-0.91-0.5-0.85-1.17C376.73,91.39,376.99,92.37,376.5,92.77z
			 M375.94,78.5c-0.39-1.02,0.68-0.85,0.85-1.4C377.46,77.44,377.11,78.9,375.94,78.5z M377.36,57.44c-0.92,0.95-2.09-2.33,0-1.87
			C377.29,56.01,376.62,57.12,377.36,57.44z M377.45,7.59c-0.15,0.27-0.35,0.43-0.43,0.35c-0.09-0.08-1.16-0.3-1.16-0.56
			c0-0.26-0.19-0.92-0.42-0.89c-0.23,0.03-0.18,0.42-0.09,0.14c0.09-0.28,0.31-1.06,0.79-0.99S377.6,7.32,377.45,7.59z
			 M381.34,81.93c0,0.17-0.21,0.24-0.47,0.15s-0.26-0.77-0.1-0.77C380.93,81.3,381.34,81.76,381.34,81.93z M381.64,60.9
			c-0.01,0.16-0.07,0.12-0.13-0.09c-0.06-0.21-0.96-0.21-0.88-0.35c0.08-0.15,0.3-0.67,0.51-0.67S381.65,60.74,381.64,60.9z
			 M380.77,52.77c0.75-0.07,0.93,0.32,0.85,0.94C380.88,53.77,380.69,53.38,380.77,52.77z M382.57,48.1
			c-0.36,0.25-0.99,0.2-1.4-0.11c-0.41-0.31-0.22-2,0-1.99c0.22,0.01,0.29,0.09,0.08,0.51c-0.2,0.42,0.83,1.35,1.05,1.37
			C382.53,47.88,382.93,47.85,382.57,48.1z M382.48,12.76c0.95-0.16,1.04,0.39,1.14,0.94C382.66,13.86,382.58,13.31,382.48,12.76z"
			/>
	</g>
	<g>
		<g>
			<path fill="#233138" d="M422.71,0.58c0.76-0.14,0.96-0.27,0.44-0.27s-1.95,0.09-2.03,0.25C421.04,0.71,421.96,0.72,422.71,0.58z"
				/>
		</g>
		<g>
			<path fill="#233138" d="M410.12,24.6c-0.11,0.5-0.22,1.01-0.33,1.51C410.27,25.67,410.47,25.14,410.12,24.6z"/>
		</g>
		<g>
			<path fill="#233138" d="M441.68,53.97c-0.32-0.41-0.47-0.75-0.33-0.76c0.14-0.01,0.48-0.11,0.68,0.01s0.27-1.17-0.12-3.34
				l-7.21-39.95c-0.39-2.16-0.76-3.97-0.81-4.01c-0.05-0.04-0.16-0.19-0.12-0.23c0.04-0.04,0-0.89-0.17-1.82s-1.21-3.39-1.94-3.4
				c-0.73-0.01-2.56,0.08-2.45,0.24c0.11,0.16,0.01,0.7-0.24,0.53s-0.98-0.84-1.42-0.85s-1.44,0.04-1.26,0.12
				c0.18,0.08-0.52,0.64-1.41,0.85s-4.09,0.02-4.08-0.01c0.01-0.03,0.02-0.24-0.04-0.41c-0.06-0.17-0.96-0.68-1.9-0.7
				c-0.94-0.02-3.63,0.98-3.91,2.24c-0.28,1.27-0.81,4.64-0.58,4.7c0.24,0.05,0.74,0.42,0.64,0.67c-0.1,0.25-0.07,1.01-0.39,0.8
				c-0.32-0.21-0.58-1.25-0.62-1.25c-0.03,0.01-0.47,1.54-0.91,3.4c-0.43,1.87-1.49,7.39-1.39,7.39s0.28,0.09,0.17,0.19
				s-0.63,1.01-0.86,2.01c-0.23,0.99-0.63,3.8-0.39,3.8s0.94,0.33,1.03,0.73s1.08,0.8,0.86,0.92c-0.21,0.12-0.49,0.81-0.87,0.65
				s-2.29,1.58-2.75,3.73l-17,79.8c-0.46,2.15,0.97,3.93,3.17,3.96l7.61,0.09c2.2,0.03,4.34-1.71,4.76-3.87l2.04-10.48
				c0.42-2.16,0.7-3.92,0.62-3.91c-0.08,0.01-0.21-0.11-0.07-0.25c0.14-0.14,0.09-0.9,0.17-0.89c0.08,0.01,0.43-0.86,0.64-1.93
				c0.21-1.07,2.56-3.86,4.76-3.82l13.59,0.24c2.2,0.04,4.28,1.85,4.63,4.02l2.79,17.53c0.34,2.17,2.43,3.99,4.62,4.04l8.1,0.18
				c2.2,0.05,3.69-1.68,3.31-3.84l-9.1-51.89C443.18,57.02,442,54.38,441.68,53.97z M406.95,42.24c1.11,0.28-0.29,1.16,0.57,1.64
				C406.89,44.45,406.34,42.83,406.95,42.24z M404.04,75.09c0.35,0.07,0.57,0.21,0.49,0.32c-0.08,0.1-0.24,0.46-0.37,0.39
				S403.69,75.02,404.04,75.09z M404.87,110.7c-0.11,0.27-0.37,0.49-0.57,0.49c-0.21,0-1.05-0.25-1.41-0.56s-0.41-2-0.31-2.18
				c0.1-0.17,1.18,0.18,1.1,0.51c-0.08,0.32-0.31,1.03-0.17,0.95S404.97,110.43,404.87,110.7z M407.52,87.15
				c-0.59-0.21-0.87-0.69-0.85-1.4C407.68,85.61,407.53,86.44,407.52,87.15z M407.97,79.43c-0.25,0.39-0.52,0.5-0.59,0.27
				c-0.07-0.24-0.44-0.51-0.09-0.53C407.64,79.16,408.22,79.05,407.97,79.43z M411.52,61.83c-0.33,0.03-0.47-0.05-0.33-0.19
				c0.14-0.14,0.08-0.71,0.14-0.46C411.39,61.42,411.85,61.79,411.52,61.83z M413.21,14.64c-0.72-0.02-0.67-0.87-0.29-1.17
				C413.42,13.68,413.66,14.29,413.21,14.64z M435.04,21.36c-0.3,0.59-1.08,0.69-1.43,0.2C434,20.88,434.17,21.4,435.04,21.36z
				 M430.56,2.47c-0.96,0.08-0.47-1.01-0.85-1.4C430.57,1.06,430.42,1.89,430.56,2.47z M429.93,29.74
				c-0.12-0.07-0.11-0.17,0.04-0.23s0.6,0.04,0.6,0.25c0,0.21-0.13,0.78-0.29,0.78c-0.16,0-0.52-0.1-0.46-0.22
				C429.88,30.2,430.05,29.81,429.93,29.74z M428.86,6.45c0.78-0.23,0.83,1.31,0.57,1.17C428.47,7.86,428.98,6.89,428.86,6.45z
				 M426.81,32.6c0.03-0.36,0.19-0.39,0.36-0.05c0.17,0.33,1.37,0.89,1.32,1.28S426.79,32.97,426.81,32.6z M426.28,21.76
				c0.04-0.34,1.51-0.82,1.43,0C426.79,21.37,426.8,22.02,426.28,21.76z M428.29,49.65c0-0.21,0.13-0.39,0.28-0.39
				s0.58,0.29,0.58,0.64C429.17,50.25,428.29,49.86,428.29,49.65z M425.91,18.9c0.05-0.39,0.23-0.71,0.38-0.71s0.53,0.11,0.47,0.24
				c-0.05,0.13,0.14,0.34,0.54,0.08c0.4-0.26,1.44,0.42,1.31,0.74s-0.48,1.38-1.01,1.24C427.08,20.33,425.86,19.3,425.91,18.9z
				 M425.26,13.82c-0.6,0.05-1.66-1.19-2.44-1.63C423.83,11.72,424.35,13.51,425.26,13.82z M422.11,8.16
				c0.11-0.17,0.34-0.14,0.51,0.06s0.15,0.98,0.02,0.92S422,8.32,422.11,8.16z M420.88,12.52c0.16-0.12,0.36-0.11,0.44,0.04
				c0.08,0.15,0.7,0.44,0.7,0.73c-0.01,0.29,0.75,0.86,0.61,1.12s-0.28,1.11-0.59,0.77c-0.31-0.34-0.18-0.73-0.4-0.66
				s-0.68,0.12-0.94-0.14C420.45,14.13,420.72,12.65,420.88,12.52z M419.47,32.88c1,0.28,0.79,0.8,0.29,1.4
				C419.12,34.26,419.63,33.29,419.47,32.88z M420.04,26.72c0,0.17-0.21,0.24-0.47,0.15s-0.26-0.77-0.1-0.77
				S420.04,26.55,420.04,26.72z M419.42,40.41c0.34-0.15,0.67-0.14,0.73,0.02s-0.05,0.6-0.31,0.54
				C419.58,40.91,419.08,40.56,419.42,40.41z M419.74,11.86c0.32,0.24,0.47,0.52,0.33,0.62c-0.14,0.1-0.33,0.29-0.35,0
				C419.7,12.2,419.42,11.62,419.74,11.86z M418.04,17.83c0-0.09,0.21-0.16,0.47-0.16s0.68,0.23,0.35,0.5
				C418.54,18.46,418.04,17.92,418.04,17.83z M414.03,14.97c0.02-0.31,0.16-0.57,0.31-0.57s0.45,0.11,0.31,0.25
				S414.02,15.28,414.03,14.97z M414.06,21.65c0.84-0.01,0.96,1.08,0.57,1.4C413.9,23.03,414.06,22.27,414.06,21.65z M428.34,76.15
				c-0.18,0.26-0.56,0.38-0.84,0.27s-1.15-0.1-0.74-0.18S428.52,75.88,428.34,76.15z M418.3,74.48c-2.2-0.04-3.64-1.83-3.21-3.99
				l2.57-12.8c0.44-2.16,0.42-4.03-0.03-4.17c-0.45-0.14-0.12-0.94-0.08-0.88c0.04,0.07,0.05,0.05,0.2-0.02
				c0.15-0.08,1.09-0.77,1.24-1.51s0.46-2.74,0.36-2.82s-0.28-0.32-0.07-0.44c0.21-0.13,0.47-0.71,0.48-0.7
				c0.01,0,0.38-1.76,0.81-3.92l2.1-10.41c0.43-2.16,1.08-2.15,1.44,0.02l2.9,17.5c0.36,2.17,0.78,3.98,0.93,4.01
				c0.15,0.03,0.54,0.23,0.43,0.46s-0.25,2.3,0.11,4.47l1.89,11.47c0.36,2.17-1.15,3.91-3.35,3.87L418.3,74.48z M430.39,37.27
				c-0.22,0.16-0.4,0.12-0.4-0.1s0.14-0.72,0.3-0.64C430.46,36.61,430.61,37.11,430.39,37.27z M430.42,10.14
				c-0.39-0.49-0.64-1.21-0.56-1.61c0.09-0.4,1.02-0.12,0.72,0.56S430.81,10.63,430.42,10.14z M432.8,22.17
				c-0.04-0.61,0.73-0.72,1.02-0.41C433.56,22.4,433.4,21.87,432.8,22.17z M434.73,26.56c0.21-0.13,0.52-0.16,0.68-0.08
				c0.16,0.08,0.11,0.62-0.1,0.71S434.52,26.69,434.73,26.56z M434.59,54.87c0.13-0.13,0.4-0.15,0.61-0.04
				c0.2,0.11,0.42,0.03,0.35,0.3S434.46,55,434.59,54.87z M435.48,62.66c-0.2,0.22-0.51,0.16-0.69-0.14
				c-0.18-0.3-0.01-1.27,0.28-1.21C435.36,61.36,435.68,62.43,435.48,62.66z M436.64,50.13c-0.37,0.29-0.64,0.32-0.6,0.08
				s-0.11-0.36,0.18-0.2C436.51,50.18,437.01,49.85,436.64,50.13z M437.66,37.06c0.01-0.5-0.11-0.79-0.26-0.66
				c-0.15,0.13-0.86,0.02-1.2-0.51c-0.34-0.53-1.07-1.83-0.71-1.82c0.36,0.01,1.92-0.1,1.96,0.08c0.03,0.18,0.17,0.31-0.1,0.24
				c-0.27-0.07-0.49,0.08-0.49,0.29c0,0.21,0.25,0.69,0.54,0.59c0.3-0.1,1.16,0.16,1,0.69C438.25,36.49,437.66,37.55,437.66,37.06z
				 M439.2,73.28c-0.21,0.17-0.4,0.17-0.41,0.01c-0.02-0.16,0.16-0.87,0.32-0.87S439.41,73.11,439.2,73.28z M442.45,90.32
				c-0.44-0.2-0.76-0.56-0.72-0.81c0.04-0.25-0.14-0.53,0.12-0.57s0.71-0.26,1.12,0.18C443.37,89.56,442.88,90.52,442.45,90.32z
				 M443.65,63.53c-1.1-0.5-1.19-1.83-1.99-2.57C443.57,60.22,444.41,62.54,443.65,63.53z"/>
		</g>
	</g>
	<g>
		<g>
			<path fill="#233138" d="M498.7,24.7c0.19,0.31,0.37,0.64,0.54,0.98C499.44,25.25,499.38,24.82,498.7,24.7z"/>
		</g>
		<g>
			<path fill="#233138" d="M510.93,14.2c0.19,0,0.27-0.08,0.19-0.19s-0.33-0.25-0.37-0.09C510.72,14.08,510.75,14.2,510.93,14.2z"/>
		</g>
		<g>
			<path fill="#233138" d="M511.96,15.88c-0.01,0.22-0.68-0.13-1.48-0.76s-0.47-2.39-1.14-3.12c-0.67-0.73-2.9-2.16-3.25-1.81
				c-0.35,0.35-1.04,0.17-0.78,0.09c0.27-0.08,0.24-0.96,0.43-0.89c0.19,0.08-0.68-0.73-2.63-1.74c0,0-10.16-5.28-19.25-5.56
				c-2.9-0.09-4.7-0.14-4.7-0.14c-2.2-0.06-3.99,0.04-3.98,0.22c0.01,0.18-0.45,0.43-0.71,0.3c-0.26-0.13-1.69-0.7-3.4-0.75
				s-6.24,0.33-6.25,0.94c-0.02,0.61,0.11,2.38,0.32,2.56c0.21,0.18,1.04,0.15,0.74,0.27s-1.16,0.99-1.19,2.27
				c-0.03,1.28-0.07,4.6-0.01,4.53c0.06-0.08,0.32-0.15,0.3-0.06s0.69,0.8,1.15,0.84c0.46,0.04,0.84-0.17,0.82,0.27
				s-1.1,0.76-1.48,0.68c-0.37-0.08-0.96,0.43-0.99,1.77c-0.04,1.34,0.36,4.77,0.96,4.64c0.6-0.13,0.68,0.46,0.3,0.39
				c-0.38-0.07-1.45,1.65-1.5,3.57c-0.05,1.92-0.01,7.1,0.2,7.24s0.58,0.43,0.37,0.33s-0.82,1.41-0.87,3.61l-2.02,75.66
				c-0.06,2.2,1.69,4.05,3.89,4.11l8.1,0.23c2.2,0.07,4.05-1.68,4.12-3.88l1.02-33.42c0.07-2.2,1.4-3.96,2.97-3.91
				c0,0,0,0,1.42,0.04c0.66,0.02,0.66,0.02,0.66,0.02c0.81-0.06,2.05,1.59,2.75,3.68l11.44,34.49c0.69,2.09,3.05,3.86,5.25,3.94
				l9.23,0.35c2.2,0.08,3.44-1.56,2.76-3.65l-13.07-39.81c-0.69-2.09,0.2-4.85,1.99-6.14l5.95-5.89c1.37-1.72,2.35-3.17,2.19-3.21
				c-0.16-0.05-0.19-0.58-0.02-0.66c0.17-0.08,1.47-1.81,2.28-3.85c0,0,2.71-6.83,2.99-13.83c0.01-0.38,0.03-0.76,0.04-1.14
				c0.4-9.86-4.15-19.85-4.15-19.85C512.78,16.87,511.97,15.66,511.96,15.88z M511.33,104.72c0.17-0.03,0.05,0.15-0.27,0.39
				c-0.31,0.24-0.01,0.8-0.21,0.57C510.64,105.45,511.16,104.74,511.33,104.72z M509.6,105.89c-0.49-0.19-0.54-0.82-0.61-1.43
				C509.51,104.62,509.69,105.12,509.6,105.89z M511.02,21.9c0-0.08,0.07-0.18,0.17-0.24c0.09-0.06,0.46,0.07,0.47,0.29
				s0.26,0.35,0.11,0.24C511.62,22.08,511.02,21.97,511.02,21.9z M506.53,10.43c0.5,0.21,0.63,0.73,0.57,1.4
				C505.92,11.75,506.32,11.03,506.53,10.43z M502.41,20.82c0.08-0.35,0.35-0.63,0.61-0.63s0.69,0.05,0.37,0.11s0.06,1.04,0.48,1.11
				s0.84,0,0.7,0.22s-0.3,0.88-0.63,0.74C503.61,22.22,502.33,21.17,502.41,20.82z M506.13,33.38c-0.35,0.34-1.61-0.15-2.04-0.41
				C504.55,32.53,505.42,33.39,506.13,33.38z M498.42,10.15c-0.08,0.28-0.22,0.26-0.32-0.05s-0.76-0.69-0.5-0.78
				S498.5,9.87,498.42,10.15z M496.18,8.02c-0.25-0.09-0.24-0.22,0.04-0.3c0.28-0.07,1-0.06,0.76,0
				C496.73,7.77,496.44,8.11,496.18,8.02z M492.02,11.59c-0.58-0.17-1.16-0.7-0.57-1.17C492.29,10.38,492.45,11.26,492.02,11.59z
				 M491.09,3.78c-0.12-0.33-0.08-0.61,0.07-0.61c0.16,0,0.72,0.25,0.9,0.56S491.21,4.12,491.09,3.78z M489.15,14.14
				c0.33,0.27,0.49,0.59,0.38,0.7s-0.79,0.29-1.33,0.04C487.66,14.65,488.82,13.87,489.15,14.14z M487.64,5.71
				c0.37,0.15,0.51,0.48,0.32,0.72s0.24,0.41,0.11,0.33s-0.86-0.04-0.82-0.29C487.29,6.22,487.27,5.56,487.64,5.71z M486.33,7.38
				c1.01-0.46,1.03,0.3,2.28,0.23C488.46,7.94,486.04,8.19,486.33,7.38z M484.33,2.71c0.01,0.55-0.49,0.69-0.28,1.4
				C482.23,4.38,483.12,2.56,484.33,2.71z M483.48,9.96c0.86-0.36,0.75,1.21,0.28,1.17C482.6,11.23,483.88,10.63,483.48,9.96z
				 M472.52,19.32c-0.27,0.29-0.91,0.54-1.22,0.2C471.42,18.85,472.07,19.23,472.52,19.32z M472.17,18.09
				c0.19-0.22,0.47-0.3,0.62-0.19c0.15,0.11,0.37,0.45,0.16,0.5C472.75,18.45,471.98,18.3,472.17,18.09z M474.09,20.25
				c-0.04,0.9-1.11,0.96-2.28,0.94C471.98,20.39,472.75,20.08,474.09,20.25z M473.34,25.63c0.61,0.04,0.76,0.07,0.76,0.07
				c2.16,0.41,2.27,0.62,0.24,0.46c0,0,0,0-1.6-0.32C470.93,25.48,473.26,25.63,473.34,25.63z M475.45,2.73
				c0.19-0.27,0.46-0.43,0.58-0.37s0.63,0.54,0.64,1.06C476.67,3.94,475.25,3,475.45,2.73z M475.52,23.53
				c-1.45,0.09-2.01-1.51-1.42-2.34C474.28,22.38,476.4,21.95,475.52,23.53z M474.95,16.27c-0.94-0.01-1.09-0.67-1.14-1.4
				C474.58,15.01,474.92,15.51,474.95,16.27z M472.1,13.7c0.83,0.21,0.87,0.21,1.71,0C474.06,14.44,471.66,14.9,472.1,13.7z
				 M472.79,7.28c-0.06-0.07-0.44,0.02-0.84,0.21c-0.4,0.19-0.91-0.27-0.47-0.47C471.91,6.83,472.85,7.36,472.79,7.28z M471.91,5.19
				c0.42,0.05,0.61,0.15,0.43,0.21s-0.53,0.63-0.87,0.68C471.12,6.14,471.5,5.13,471.91,5.19z M463.97,65.15
				c0.79-0.11,0.18,1.18,0.81,1.22C464.34,66.93,463.75,65.93,463.97,65.15z M464.99,34.99c0.99,0.19,1.09-0.35,1.99-0.23
				C466.71,35.49,465.36,36.09,464.99,34.99z M465.27,75.46c0.25,0.97,1.47,1.13,1.99,1.87C465.68,77.46,465.27,76.63,465.27,75.46z
				 M467.26,92.53c-0.89,0.11-0.91-0.5-0.85-1.17C467.3,91.26,467.32,91.86,467.26,92.53z M467.4,63.74
				c-0.23,0.27-0.49,0.33-0.58,0.15s-0.63-0.39-0.55-0.43c0.08-0.04,0.26,0.02,0.4-0.04S467.63,63.47,467.4,63.74z M467.78,18.57
				c-0.42-0.26-0.61-0.69-0.42-0.95s0.23-1.16,0.18-0.92c-0.05,0.25,0.16,1.05,0.26,1.14c0.1,0.09,0.27,0.37,0.33,0.27
				s0.08-0.46,0.06-0.45s0.02-0.22,0.14-0.51c0.12-0.29,0.65-0.65,0.67-0.36s-0.33,1.05-0.08,1.38c0.25,0.33-0.1,0.9-0.13,0.84
				S468.2,18.84,467.78,18.57z M468.33,101.21c-0.27,0.12-0.5,0.07-0.5-0.1c0-0.17,0.25-0.62,0.55-0.6S468.61,101.09,468.33,101.21z
				 M468.4,10.27c-0.31,0.22-0.59,0.19-0.61-0.06s-0.05-0.81-0.52-0.64c-0.47,0.17-0.19-0.91,0.27-0.78
				C468.01,8.93,468.71,10.05,468.4,10.27z M470.39,103.29c-0.93-0.02-1.04-1.41-0.57-1.87
				C470.21,101.89,470.81,102.88,470.39,103.29z M469.87,25.43c0.4-0.58,1.27,0.07,1.83,0C471.3,26.02,470.44,25.36,469.87,25.43z
				 M471.67,27.61c0.08-0.32,0.54-0.71,1.02-0.86c0.48-0.16,0.72,0.28,0.93,0.14c0.21-0.14,0.62,0.54,0.45,0.81
				c-0.17,0.27-0.61,0.49-1.02,0.49S471.59,27.93,471.67,27.61z M474.29,35.04c0.21-0.03,0.31,0.06,0.22,0.21
				c-0.08,0.14-0.3,0.6-0.5,0.51c-0.2-0.09-0.98-0.18-0.88-0.32S474.08,35.07,474.29,35.04z M472.97,42.98
				c-0.48-0.15-0.59-0.4-0.25-0.54c0.34-0.15,1.39-0.34,1.41-0.22S473.45,43.13,472.97,42.98z M474.66,63.53
				c-0.61,0.87-1.4,0.15-1.99-0.23C473.14,62.62,474.21,63.4,474.66,63.53z M473.81,78.03c0.04-0.51,0.72-0.5,1.42-0.47
				C475.27,78.5,474.5,78.18,473.81,78.03z M476.37,46.45c-0.3-0.87,0.6-0.75,0.85-1.17C477.48,45.21,477.47,46.86,476.37,46.45z
				 M477.51,74.21c-0.16,0.3-0.12,0.34,0.08,0.1s-0.23-0.59-0.06-0.71C477.69,73.48,477.67,73.91,477.51,74.21z M482.04,64.32
				c-0.15,0.08-0.43,0-0.62-0.17s-0.33-0.69-0.13-0.78C481.49,63.27,482.19,64.24,482.04,64.32z M488.76,72.02
				c-0.19,0.14-0.46,0.06-0.59-0.18s-0.06-0.96,0.07-0.67C488.37,71.45,488.95,71.88,488.76,72.02z M489.17,63.29
				c1.3,0.31,0.3,1.13,0.85,1.87C488.64,65.28,488.88,63.93,489.17,63.29z M496.04,64.92c-0.18,0.01-0.2-0.27-0.04-0.62
				c0.15-0.34,1.08-0.73,1.35-0.38C497.62,64.27,496.22,64.91,496.04,64.92z M497.26,71.73c-0.38-0.01-0.52-0.12-0.31-0.25
				c0.21-0.13,0.51-0.6,0.57-0.47S497.64,71.75,497.26,71.73z M499.31,66.71c-0.25,0.05-0.61,0-0.79-0.11s-0.07-0.73,0.13-0.73
				C498.87,65.87,499.56,66.66,499.31,66.71z M500.35,94.91c-0.67,0.24-1.43,0.25-1.68,0.03c-0.25-0.22,0.06-1.54,0.27-1.62
				s1.02,0.24,0.99,0.64S501.02,94.67,500.35,94.91z M482.4,59.91c-0.93-0.03-0.93-0.03-0.93-0.03c-1.03-0.03-1.81-1.79-1.75-3.91
				c0.06-2.12,0.09-8.03-0.08-8.41c-0.17-0.39,0.19-1.09,0.23-1.08c0.05,0.02,0.16-0.93,0.2-2.19s-1.08-5.17-2.57-5.92
				c-1.49-0.75-4.16-2.27-2.65-1.68c1.51,0.59,5.4,1.33,5.45-0.21c0.05-1.54-0.32-5.84-0.93-6.13s-1.69-0.72-1.11-0.56
				c0.59,0.16,2.22,0.52,2.23,0.16c0.01-0.36,0.01-1.3-0.02-1.3c-0.03,0-0.11-0.03-0.08-0.08c0.03-0.06,0.15-0.34,0.15-0.54
				c0.01-0.2-0.32-0.8-0.73-0.89c0,0,0,0-0.39-0.08c-1.94-0.4-1.94-0.4-1.94-0.4c1.7,0.13,3.12-0.62,3.15-1.68
				c0.03-1.05-0.11-3.82-0.39-3.81s-1.34-0.54-1.69-1.21s1.4-0.67,1.3-0.36c-0.1,0.31,0.06,0.57,0.24,0.57s0.69-0.49,0.71-1.08
				c0.02-0.6,0.76-2.15,1.62-2.12c0,0,0,0,0.78,0.02c4.33,0.13,7.52,1.53,7.52,1.53c2.02,0.88,3.65,1.54,3.62,1.47
				c-0.02-0.07,0.05-0.29,0.22-0.37s0.81,0.05,0.78,0.23s-0.1,0.9,0.01,0.99c0.12,0.09,0.64,0.29,0.91,0.21
				c0.27-0.08,0.55-0.15,0.55,0.09c0,0.24-0.04,1.02,0.17,1.26s0.89,0.74,1.04,0.53c0.16-0.21,0.81-0.27,0.86,0.12
				s1.63,1.17,1.64,1.75c0.01,0.58-0.92,1.89-0.52,2.93s1.5,4.38,2.02,4.56c0.51,0.18,1.41,0.55,0.91,0.4s-1.65,1.26-1.45,3.43
				c0,0,0,0-0.08,2.31c-0.01,0.32-0.02,0.65-0.03,0.97c-0.01,0.33-0.01,0.33-0.01,0.33c-0.03,0.34-0.01,0.65,0.05,0.67
				c0.06,0.03,0.15,0.09,0.1,0.09c-0.06,0-0.91,1.65-1.77,3.67C499.78,44.18,492.98,60.24,482.4,59.91z M503.08,41.52
				c1.57,0.27,2.63,1.04,4.07,1.43C506,43.08,503.99,42.31,503.08,41.52z M507.35,43.36c0.35-0.87,1.33,0.36,2.24,0.2
				C509,44.14,508.16,43.24,507.35,43.36z M514.78,39.43c0.36,0.41,0.96,0.61,0.85,1.4C514.61,40.97,514.77,40.14,514.78,39.43z
				 M511.92,29.01c0.79-0.06,1.33,0.13,1.21,0.41c-0.12,0.29-1,0.8-1.45,0.7S511.13,29.07,511.92,29.01z"/>
		</g>
	</g>
	<g>
		<g>
			<path fill="#233138" d="M544.55,4.55c0.11-0.08,0.05-0.16-0.13-0.17c-0.18-0.01-0.66,0-0.65,0.05S544.44,4.64,544.55,4.55z"/>
		</g>
		<g>
			<path fill="#233138" d="M566.24,67.08c0-0.02-0.51-1.77-1.13-3.88l-1.48-5.01c-0.62-2.11-0.32-5.45,0.67-7.41l7.81-15.51
				c0.99-1.96,1.53-3.56,1.2-3.55c-0.33,0.01-1.53-0.35-1.41-0.49c0.12-0.14,0.74-0.1,0.87-0.24c0.13-0.14,0.46-0.63,0.68-0.56
				c0.22,0.07,0.4,0.27,0.4,0.47c0,0.19,0.38,0,0.83-0.88c0.46-0.87,1.33-3.24,0.96-3.32c-0.37-0.08-0.76-0.53-0.64-0.73
				s0.52-0.61,0.72-0.36c0.2,0.25,1.69-0.83,2.69-2.79l2.81-5.52c1-1.96,1.86-3.75,1.92-3.97c0.05-0.23,0.92-1.57,1.49-2.71
				c0.58-1.14,1.65-4.16,1.07-4.19c-0.57-0.03-2.19,0.12-2.32,0.4s-0.68,0.4-0.63-0.08c0.05-0.48-1.91-0.34-1.91-0.39
				c0-0.05-0.7-0.21-1.55-0.26c-0.85-0.04-3.17,0.11-3.2,0.45c-0.03,0.34-0.23,0.84-0.58,0.55c-0.35-0.28-0.42-1.23-0.58-1.24
				s-0.62,0-0.63,0.04c-0.01,0.04-0.2,0.07-0.34,0.06c-0.14,0-1.15-0.22-2.17-0.27s-3.73-0.18-3.74-0.17s0.06,0.35,0.15,0.72
				c0.1,0.37-1.32,1.81-1.96,3.22c-0.65,1.41-2.3,5.12-2.24,5.13c0.07,0,0.18,0.46,0.09,0.99s1.08,0.61,0.81,0.81
				s-1.05,0.61-1.22,0.38s-1.18,0.82-2.1,2.82l-3.42,7.45c-0.92,2-1.45,3.54-1.19,3.41c0.27-0.12,0.72-0.8,1.05-0.72
				c0.32,0.08,1.02,0.49,0.9,0.69c-0.12,0.2-0.7,0.79-1.13,0.77c-0.43-0.02-2.2,1.46-3.11,3.46l-8.53,18.78
				c-0.91,2-1.57,1.85-1.47-0.35l0.99-21.81c0.1-2.2,0.13-3.99,0.07-3.98c-0.06,0.01-0.22-0.19-0.17-0.38
				c0.05-0.19,0.41-2.36,0.5-4.56l0.63-13.87c0.1-2.2-0.07-4.04-0.37-4.08s-1.24,0.09-1.41,0.33s0.43,1.45,0.28,1.45
				c-0.16,0-0.91-0.29-1.32-0.64s-2.32-1.41-4.52-1.49l-4.99-0.21c-2.2-0.08-4.07,1.66-4.16,3.85l-3.03,72.91
				c-0.09,2.2,0.02,3.93,0.24,3.84c0.22-0.08,0.2-0.64,0.35-0.45s0.9,0.29,1.08,0.06c0.18-0.23,1-0.41,0.88-0.92
				c-0.12-0.52-1.37-1.37-1.32-1.95c0.05-0.58,1.58-0.83,2.12-0.41c0.55,0.42,0.82,2.48,0.8,2.22c-0.02-0.26-0.79-0.11-0.55,0.43
				c0.24,0.53,0.87,2.17,0.72,2.01c-0.15-0.15-0.8-0.19-1.1,0.24c-0.3,0.43,0,2.16-0.17,2.02c-0.17-0.14-0.66-0.47-0.69-0.42
				s-0.21,0.56-0.33,1.03c-0.12,0.47-0.17,2.17-0.5,2.28c-0.33,0.11-0.29-0.39-0.64-1.37c-0.35-0.99-1.17-2.29-1.26-0.09
				l-1.01,24.28c-0.09,2.2,1.63,4.07,3.83,4.17l8.09,0.35c2.2,0.1,4.08-1.62,4.18-3.82l1.09-24.14c0.1-2.2,0.94-5.63,1.87-7.62
				l3.17-6.77c0.93-1.99,2.22-1.9,2.86,0.21l6.91,22.81c0.63,2.11,1.29,3.9,1.44,3.98c0.16,0.08,0.17,0.63,0.11,0.59
				c-0.05-0.04,0.29,1.59,0.93,3.69l2.54,8.49c0.63,2.11,2.95,3.92,5.14,4.04l9.72,0.51c2.2,0.12,3.49-1.51,2.88-3.63L567.4,70.99
				C566.78,68.88,566.24,67.1,566.24,67.08z M579.08,9.01c0-0.38,0.28-0.53,0.62-0.34c0.34,0.19,1.57,0.24,1.46,0.96
				C581.06,10.35,579.08,9.39,579.08,9.01z M571.4,29.84c0.16-0.55,1.1-0.97,1.71-0.47C572.73,30.21,572.17,29.45,571.4,29.84z
				 M572.38,9.96c-0.38-0.26-0.53-0.5-0.33-0.55s0.55-0.28,0.63-0.15c0.08,0.13-0.07,0.28,0.03,0.33
				C572.81,9.63,572.77,10.21,572.38,9.96z M571.37,16.87c0.02-0.2,0.33-0.38,0.7-0.39s1.47,0.15,0.96,0.3
				C572.51,16.92,571.35,17.07,571.37,16.87z M567.89,12.15c0.36-0.17,0.56-0.09,0.44,0.19s-0.19,0.99-0.34,0.81
				C567.84,12.97,567.53,12.32,567.89,12.15z M567.98,11.59c-1.02,0.02-0.79,1.07-1.99,0.94C565.48,10.96,567.79,9.95,567.98,11.59z
				 M566.28,23.29c-0.18,0.79-1.36,0.75-2.56,0.7C564.31,23.1,565.08,22.88,566.28,23.29z M529.26,83.78
				c-0.06-0.5-0.11-0.82-0.13-0.72s-0.1,0.26,0,0.31S529.31,84.28,529.26,83.78z M529.94,53.46c-0.2,0.13-0.47,0.19-0.6,0.12
				s-0.62-0.22-0.62-0.35c0-0.13,0.25-0.58,0.56-0.72S530.15,53.33,529.94,53.46z M545.63,19.49c0.25-0.23,0.46-0.24,0.48-0.02
				c0.02,0.22-0.57,1-0.87,0.99c-0.3-0.01-0.81-0.24-0.73-0.28C544.59,20.15,545.39,19.72,545.63,19.49z M544.84,18.62
				c-0.11,0.13-0.47,0.21-0.8,0.19c-0.34-0.02-0.33-0.71-0.09-0.77C544.19,17.98,544.95,18.49,544.84,18.62z M543.55,11.57
				c-0.02-0.24,0.23-0.29,0.56-0.1c0.32,0.19,0.67-0.21,0.46-0.04S543.57,11.81,543.55,11.57z M542.42,15.66
				c0.44-0.05,0.44,0.13-0.01,0.4c-0.45,0.27-1.95,0.1-1.84-0.33s0.73-1.19,0.81-1.02C541.47,14.87,541.98,15.7,542.42,15.66z
				 M540.22,8.18c-0.09-0.31,0.24-0.53,0.74-0.49c0.5,0.04,1.9,0.41,1.9,0.71c0,0.3-0.39,1.16-0.87,1.24S540.31,8.48,540.22,8.18z
				 M539.19,33.86c-0.28,0.36-0.58,0.54-0.66,0.39c-0.08-0.15-0.55-0.39-0.36-0.62C538.36,33.41,539.47,33.5,539.19,33.86z
				 M538.39,11.59c-0.17,0.48,0.46,1.62-0.57,1.4C536.68,13.06,537.18,11.09,538.39,11.59z M536.77,38.8
				c0.11-0.29,0.34-0.49,0.5-0.43c0.16,0.06,0.56-0.15,0.92,0.08c0.35,0.23,1.55,0.94,1.44,1.46c-0.11,0.51-0.9,1.35-1.2,0.99
				S536.65,39.09,536.77,38.8z M538.28,74.07c-0.09-0.01-0.03,0.1,0.15,0.25c0.17,0.15,0.6,0.44,0.32,0.73
				c-0.27,0.29-1.16-0.23-1.09-0.43S538.37,74.08,538.28,74.07z M538.01,67.82c-0.42,0.08-0.77,0.06-0.79-0.05s0.33-0.48,1.04-0.74
				C538.97,66.76,538.43,67.73,538.01,67.82z M536.95,73.02c0.01,0.31-0.03,0.4-0.1,0.2s-0.85-0.28-0.65-0.5
				C536.4,72.49,536.94,72.71,536.95,73.02z M536.57,46.55c-0.09-0.05,0.02-0.26,0.25-0.45s1.28-0.14,1.26,0.1s-0.43,0.72-0.64,0.72
				C537.24,46.92,536.66,46.6,536.57,46.55z M538.39,55.81c-0.43-0.22,0.68-1.14,1.42-1.17C539.96,55.53,538.81,55.37,538.39,55.81z
				 M537.26,44.34c-0.19,0.62-2.3,1.52-2.28,0.23C535.83,44.27,535.97,44.51,537.26,44.34z M535.95,50.92
				c0.5,0.11,0.91,0.35,0.91,0.52c0,0.17-0.23,0.46-0.51,0.26C536.07,51.5,535.45,50.81,535.95,50.92z M534.59,37.65
				c-0.1-0.18-0.05-0.35,0.1-0.4s0.43-0.3,0.61-0.19C535.48,37.17,534.69,37.82,534.59,37.65z M534.87,22.52
				c0.06,0.17,0.22,0.29,0.36,0.27c0.14-0.01,0.18-0.08,0.02,0.08c-0.16,0.16-0.24,0.78-0.55,0.64c-0.31-0.13-0.53-0.99-0.47-1.07
				S534.81,22.36,534.87,22.52z M531.57,110.78c-1.59-0.03-0.59-1.39,0-1.64C532.27,109.37,531.17,110.04,531.57,110.78z
				 M533.35,16.37c-0.2-0.05-0.18-0.11,0.03-0.13c0.22-0.02,0.23-0.67,0.65-0.67C534.46,15.57,533.55,16.42,533.35,16.37z
				 M535.9,66.58c-1.13-0.14-1.73-0.36-1.32-0.49c0.41-0.14,1.08-0.61,0.87-0.52c-0.21,0.09-0.58-0.32-0.35-0.21
				s-0.03-0.9-0.27-0.91c-0.24-0.01-0.68-0.54-0.29-0.65c0.39-0.11,1.77,0.06,2.01,0.46S537.04,66.71,535.9,66.58z M536.74,88.06
				c-0.34,0.02-0.58-0.29-0.52-0.68c0.06-0.39,0.31-1.57,0.47-1.51s0.11,0.2,0.25,0.3c0.14,0.1,0.55,0.39,0.5,0.52
				C537.39,86.8,537.09,88.04,536.74,88.06z M536.48,104.26c0.15-0.46,0.18-1.04,0.41-1.43C537.24,103,537.02,104.31,536.48,104.26z
				 M536.4,94.87c-0.13-0.73,0.61-0.75,1.42-0.7C537.57,94.58,537.3,94.98,536.4,94.87z M537.5,102.63
				c0.77-0.03,0.96,0.53,1.02,1.22C538.15,103.48,537.72,103.17,537.5,102.63z M539.72,96.39c-0.26,0.11-0.76,0.11-1.12,0
				c-0.36-0.11-0.43-1.2-0.02-1.2C539,95.19,539.98,96.28,539.72,96.39z M542.58,49.97c-0.11,0.12-0.48,0.12-0.83,0
				s-1.08-0.16-0.73-0.34C541.37,49.44,542.69,49.85,542.58,49.97z M542.04,30.66c-0.29-0.07-0.58-0.5-0.64-0.97s0.03-1.53-0.08-1.3
				c-0.11,0.23,0.4,1.36,0.63,1.25c0.24-0.11,1.67,0.06,1.46,0.18S542.33,30.73,542.04,30.66z M544.94,72.8
				c0,0.17-0.23,0.37-0.5,0.45c-0.28,0.07-1.09-0.01-0.94-0.15c0.14-0.14,0.15-0.88,0.3-0.83C543.94,72.31,544.94,72.63,544.94,72.8
				z M546.07,60.95c-0.16,0.13-0.53,0.16-0.83,0.07s-0.34-0.88-0.03-1.02S546.23,60.82,546.07,60.95z M552.05,67.04
				c-0.63-0.03-0.12-0.99-0.29-1.4C552.97,65.55,552.02,66.64,552.05,67.04z M553.19,62.71c-0.64,0.09-0.91-0.18-0.82-0.81
				C553.01,61.8,553.28,62.07,553.19,62.71z M560.11,102.43c0.03-0.45,0.51-0.44,1.02-0.41
				C560.98,102.44,560.52,102.85,560.11,102.43z M560.17,80.86c-0.71-0.01-1.21-0.12-1.12-0.23s0.21-0.29,0.67-0.34
				C560.19,80.24,560.88,80.87,560.17,80.86z M562.12,27.5c-0.37,0.38-0.91,0.66-1.2,0.6c-0.29-0.05-0.43-0.61-0.21-0.89
				C560.93,26.92,562.49,27.12,562.12,27.5z M570.71,83.69c-0.38-0.71-1.23-0.94-1.43-1.83C569.75,82.47,570.57,82.74,570.71,83.69z
				"/>
		</g>
	</g>
	<g>
		<g>
			<path fill="#233138" d="M595.36,17.02c-0.01,0.12-0.01,0.25-0.02,0.37C595.51,17.22,595.52,17.09,595.36,17.02z"/>
		</g>
		<g>
			<path fill="#233138" d="M608.34,75.84c0.13-2.2,2.04-3.88,4.23-3.75l15.5,0.97c2.2,0.14,4.11-1.54,4.25-3.73l0.47-7.09
				c0.14-2.2-1.53-4.11-3.73-4.25l-15.58-0.98c-2.2-0.14-3.88-2.04-3.75-4.24l0.96-15.89c0.13-2.2,0.2-3.99,0.16-3.99
				s-0.15-0.08-0.1-0.16c0.04-0.08,0.3-1.7,0.4-3.42s2.17-6.17,4.37-6.03l18.59,1.18c2.2,0.14,4.11-1.54,4.26-3.73l0.47-7.1
				c0.15-2.2-1.53-4.11-3.73-4.25l-24.46-1.52c-2.2-0.13-4.08-0.11-4.18,0.04c-0.1,0.16-0.65,0.1-0.67,0
				c-0.02-0.1-1.5-0.42-3.3-0.53c-1.81-0.11-6.64,1-6.74,2.7s-0.08,6.45,0.24,6.79s0.52,1.18,0.28,1.05s-1.04,1.35-1.16,3.55
				l-1.62,28.75c-0.12,2.2,0.78,4.13,2.01,4.3s3.37,0.43,2.2,0.39c-1.17-0.04-4.56,1.45-4.68,3.64l-1.44,25.59
				c-0.12,2.2-0.04,4.01,0.18,4.03s1,0.06,1.02,0.4s-0.5,0.63-0.72,0.63s-0.83,0.77-0.88,1.72s0.48,3.74,1.3,4.2
				c0.82,0.46,2.21,1.45,1.41,1.1c-0.81-0.35-3.03,0.48-3.15,2.68l-0.99,17.64c-0.12,2.2,1.57,4.1,3.77,4.23l34.56,2.13
				c2.2,0.14,4.11-1.54,4.26-3.74l0.47-7.09c0.15-2.2-1.53-4.11-3.73-4.25l-18.57-1.17c-2.2-0.14-3.88-2.04-3.75-4.24L608.34,75.84z
				 M625.1,118.99c0.04-0.14,0.23-0.17,0.44-0.06c0.2,0.11,0.41,0.01,0.32,0.27C625.76,119.46,625.07,119.13,625.1,118.99z
				 M609.81,18.85c-0.11-0.88,1.29-1.21,1.99-0.7C611.38,19.08,610.7,18.58,609.81,18.85z M632.69,11.38
				c-0.07-0.26,0.02-0.69,0.19-0.93c0.17-0.25,1.16,0.04,0.87,0.4c-0.29,0.36,0.11,1.4,0.29,1.33s0.46-0.09,0.03-0.06
				S632.75,11.64,632.69,11.38z M633.85,17.34c0.71,0.04,1.47,0.47,1.71,0.96c0.23,0.49-0.52,1.89-0.99,1.89s-1.42-0.34-1.08-0.77
				S633.14,17.31,633.85,17.34z M626.2,17.9c0.38-0.25,0.83-0.22,1,0.07c0.17,0.29,0.13,1.25-0.38,1.41
				C626.32,19.53,625.82,18.14,626.2,17.9z M622.16,13.87c-0.07-0.22-0.05-0.28,0.03-0.13c0.08,0.15,0.69,0.47,0.68,0.8
				S622.22,14.08,622.16,13.87z M620.33,13.47c0-0.13,0.17-0.3,0.38-0.39s0.92,0.03,0.78,0.17c-0.14,0.14-0.17,0.86-0.35,0.79
				C620.97,13.97,620.33,13.59,620.33,13.47z M617.08,9.54c0.54-0.03,1.2,0.52,1.48,1.21s-1.48,1.05-1.28,0.74
				c0.2-0.31-0.22-1.25-0.4-1.18S616.55,9.58,617.08,9.54z M612.4,12.01c0.3-0.23,0.58-0.36,0.62-0.29
				c0.04,0.06,0.05,0.17,0.21,0.23c0.16,0.06,0.23,0.11,0.17,0.39c-0.06,0.28-0.19,1.13-0.57,1.14
				C612.44,13.49,612.1,12.23,612.4,12.01z M609.74,10.64c-0.12-0.25-0.16-0.38-0.1-0.31c0.06,0.08,0.7,0.43,1.34,0.55
				c0.64,0.12,0.71-0.07,0.57,0.41C611.39,11.77,609.85,10.89,609.74,10.64z M608.1,34.99c1.02,0.17,0.4,1.1,0,1.4
				C607.24,36.1,608.41,35.59,608.1,34.99z M606.84,13.6c0.07-0.08,0.11,0.13,0.1,0.46s-0.27,0.68-0.28,0.52
				C606.66,14.42,606.78,13.68,606.84,13.6z M599.28,14.64c-0.95-0.09-0.32-1.24,0.57-1.17C599.56,13.77,599.57,14.33,599.28,14.64z
				 M593.68,104.66c0.11-0.11,0.27,0.01,0.37,0.26c0.1,0.26,1.08,0.12,0.89,0.25C594.74,105.32,593.57,104.77,593.68,104.66z
				 M593.02,118.5c-0.31,0-0.32-0.43-0.01-0.95c0.31-0.52,1.33-0.3,1.19-0.11C594.06,117.63,593.33,118.5,593.02,118.5z
				 M595.81,119.75c-0.28,0.34-0.58,0.47-0.67,0.28s-0.51-0.42-0.28-0.49C595.08,119.47,596.09,119.41,595.81,119.75z M597.19,97.54
				c0.51-0.27,2.77,1.14,4.07,1.43C600.04,99.17,598.36,98.07,597.19,97.54z M604,37.19c-0.09,0.33-0.3,0.7-0.47,0.82
				s-0.85-0.12-0.54-0.29C603.3,37.55,604.09,36.86,604,37.19z M604.97,13.08c0-0.17,0.26-0.31,0.57-0.31s1,0.13,0.84,0.28
				C606.22,13.2,604.97,13.25,604.97,13.08z M606.5,34.21c0.26-0.09,0.36-0.03,0.22,0.14c-0.13,0.17,0.22,0.45,0.19,0.51
				c-0.03,0.06-0.31,0.12-0.42,0.12S606.24,34.3,606.5,34.21z"/>
		</g>
	</g>
	<g>
		<path fill="#233138" d="M688.5,13.68c-0.25,0.01-0.41-0.04-0.34-0.11s-0.69-0.16-0.7-0.24c-0.01-0.08-1.77-0.35-3.96-0.51
			l-33.58-2.45c-2.2-0.15-4.11,1.51-4.26,3.71l-0.48,7.09c-0.15,2.2,1.53,4.11,3.72,4.26l7.79,0.54c2.2,0.15,3.86,2.08,3.71,4.27
			l-0.46,6.41c-0.16,2.19-0.23,3.96-0.17,3.92c0.06-0.04,0.19-0.2,0.26-0.17s0.18,0.24,0.21,0.3s0.14,0.23,0.03,0.35
			c-0.11,0.13-0.79,2.04-0.94,4.24l-5.38,75.34c-0.16,2.2,1.51,4.12,3.7,4.28l7.92,0.58c2.19,0.16,4.12-1.5,4.29-3.69l5.14-68.46
			c0.17-2.19,0.22-3.99,0.11-3.99c-0.1,0-0.39-0.36-0.34-0.66c0.05-0.3,0.51-0.85,0.54-0.85c0.03,0,0.18-0.92,0.27-2.05
			c0.09-1.13,0.3-4.3,0.26-4.41s-0.31,0.8-0.68,0.8c-0.36,0-1.21-0.23-1.07-0.52c0.14-0.29,0.08-1.29,0.14-1.24s0.52,0.35,0.95,0.44
			c0.43,0.09,0.67-0.21,0.69-0.21c0.02,0,0.22-1.77,0.39-3.97l0.39-5.23c0.16-2.19,2.09-3.85,4.29-3.69l7.62,0.58
			c2.19,0.17,4.13-1.49,4.3-3.68l0.56-7.09c0.17-2.19-0.4-4.04-1.28-4.11C691.25,13.41,688.75,13.66,688.5,13.68z M649.71,20.17
			c-0.2-0.08-0.37-0.41-0.39-0.73c-0.02-0.32-0.4-1.59-0.23-1.67c0.17-0.08,0.76-0.05,0.66,0s-0.33,0.33-0.25,0.57
			c0.08,0.23,0.26,0.94,0.41,0.88c0.15-0.05,0.39-0.21,0.51,0S649.91,20.25,649.71,20.17z M649.43,12.48
			c-0.51,0.03-1.04-0.24-1.19-0.6s0.23-1.29,0.19-1.11c-0.04,0.19,0.66,0.99,1.04,0.91C649.84,11.61,649.94,12.45,649.43,12.48z
			 M653.05,16.04c-0.24-0.75,0.25-0.89,0.57-1.17C654.26,15.04,653.76,16.2,653.05,16.04z M657.47,20.13
			c-0.55,0.06-0.72-0.01-0.39-0.17c0.33-0.15,0.98-0.81,1.17-0.71C658.45,19.35,658.01,20.07,657.47,20.13z M659.18,15.35
			c-0.24-0.39-0.32-0.76-0.18-0.81s0.61,0.06,0.63,0.3C659.65,15.08,659.43,15.75,659.18,15.35z M665.98,33.9
			c-0.22,0.21-0.31,0.26-0.19,0.1s0.43-0.67,0.18-0.98c-0.25-0.31-1.57-0.55-1.25-0.77C665.03,32.04,666.21,33.69,665.98,33.9z
			 M668.48,48.38c0.12,0.35,0.04,0.59-0.18,0.51c-0.22-0.07-1.3,0.03-1.3-0.1c0-0.13,0.41-0.35,0.9-0.2S668.36,48.02,668.48,48.38z
			 M673.82,39.67c-0.91-0.46,1.49-0.88,1.71-0.47C675.58,39.86,673.78,39,673.82,39.67z M676.88,16.6c-0.43,0.21-0.9,0.13-1.06-0.17
			s-1.1-1.04-1.05-1.25s0.69-0.27,0.96,0.08C676,15.6,677.3,16.39,676.88,16.6z M682.34,25.57c0,0.15-0.2,0.25-0.44,0.23
			c-0.24-0.02-0.27-0.62-0.15-0.68C681.88,25.06,682.34,25.42,682.34,25.57z M682.14,20.6c-0.35,0.23-0.88,0.19-1.17-0.07
			s-0.94,0.21-1-0.09c-0.05-0.3-0.35-1.62-0.21-1.68c0.14-0.06,0.48-0.29,0.68-0.21c0.2,0.09,0.94,0.19,0.81,0.33
			c-0.13,0.15-0.82,0.32-0.72,0.47c0.1,0.15,0.23,0.52,0.38,0.28c0.15-0.24,0.52-0.44,0.78-0.44S682.49,20.37,682.14,20.6z
			 M692.32,15.81c1.21-0.07,0.29,1.25,0.29,1.64C691.62,17.1,692.24,16.2,692.32,15.81z M690.58,16.12c-0.3-0.3-0.37-0.62-0.16-0.7
			c0.21-0.08,0.83,0.12,0.56,0.36C690.72,16.01,690.88,16.42,690.58,16.12z"/>
	</g>
</g>
<g>
	<g>
		<path fill="#233138" d="M279.25,139.12c1.63,0,2.93-1.25,2.93-2.88c0-1.63-1.3-2.93-2.93-2.93c-1.63,0-2.88,1.3-2.88,2.93
			C276.37,137.88,277.62,139.12,279.25,139.12z"/>
		<g>
			<path fill="#233138" d="M278.63,142.78h-0.4c0.06,0.13,0.12,0.25,0.2,0.36L278.63,142.78z"/>
			<path fill="#233138" d="M203.85,147.73c0.16-0.12,0.32-0.24,0.47-0.35C204.09,147.44,203.95,147.56,203.85,147.73z"/>
			<path fill="#233138" d="M343.86,156.8l-0.34,0.38c-1.96,2.27-3.88,4.28-5.59,5.65c0.06,0.14,0.12,0.28,0.16,0.43
				c-0.17-0.02-0.34-0.09-0.5-0.16c-1.3,0.99-2.46,1.58-3.38,1.58c-1.1,0-1.73-0.77-0.58-2.74l7.2-12.62
				c2.16-3.79,0.1-6.53-2.69-6.53c-2.16,0-4.42,0.61-6.91,3.21l1.87-3.8h-4.99l-7.83,14.08l-0.33,0.64
				c-0.2,0.23-0.34,0.53-0.53,0.75c0.41,0.28,0.44,1.05-0.56,0.91c0-0.05,0-0.1,0-0.15c-3,3.52-6.2,6.18-8.16,6.18
				c-1.1,0-1.75-1.06-0.6-3.02l8.04-14.4h-2.83c0.19-2-1.97-4.72-5.23-4.72c-1.38,0-3.05,0.72-4.63,1.77
				c0.44,0.46,0.2,1.54,1.36,1.41c-0.35,0.71-0.98-0.22-1.71,0.04c-0.03-0.43-0.04-0.83,0.1-1.13c-1.39,0.97-2.7,2.31-3.67,3.98
				l-4.79,8.27c0,0-0.01,0-0.01,0l-0.34,0.39c-2.56,2.97-5.62,5.49-8.44,6.71c0.23,0.4,0.22,1,0.36,1.47
				c-0.62-0.23-1.09-0.64-1.09-1.19c-0.89,0.31-1.75,0.49-2.54,0.49c-3.07,0-4.9-1.92-2.59-5.95l5.14-8.93
				c2.88-4.95,7.97-4.58,4.99,0.6l-0.72,0.79h0.63c0,0-0.01,0-0.01,0c0.21,0,0.41,0,0.62,0c-0.01,0-0.01,0-0.01,0h2.85l0.72-0.79
				c2.69-4.61,0.1-7.84-3.98-7.84c-1.33,0-2.57,0.33-3.71,0.78c0,0.07,0,0.17-0.01,0.24c-0.13-0.01-0.22-0.02-0.31-0.07
				c-2.18,0.94-3.99,2.66-5.34,4.99l-4.84,8.32l-0.3-0.18c-2.18,2.53-4.32,4.55-6.16,5.55c0.33,0,0.67,0,1,0
				c-0.22,1-0.3,1.06-0.28,1.47c-0.3-0.28-1.16,0.16-1.2-0.33c-1.01,0.68-1.92,1.21-2.67,1.21c-1.1,0-1.73-0.94-0.58-2.91l9.76-17.2
				c-0.07,0.02-0.14,0.05-0.23,0.08c0.02-0.29,0.03-0.57-0.2-0.6c0.03-0.46,0.56-0.14,0.76-0.03l0.07-0.41
				c0.04-0.41-0.06-1.27-0.14-1.27h-0.55c-0.08,0-0.19,0.24-0.54,0.11c-0.02-0.04-0.02-0.11-0.03-0.11h-3.18l-0.15,0.56
				c0,0.18,0.01,0.51,0.03,0.71c-0.09-0.04-0.18-0.01-0.27-0.06l-7.42,13.12c0,0,0,0.14,0,0.14l-0.34,0.46
				c-3.6,4.18-7.1,7.52-9.31,7.52c-1.1,0-1.73-0.75-0.58-2.72l4.99-8.73c1.73-3.03,0.91-4.8-0.72-6.76l-2.78-3.36
				c-0.29-0.37-0.46-0.75-0.49-1.14c-0.05-0.06-0.1-0.12-0.14-0.2c-0.23-0.66,0.4-0.61,0.28-1.17c0.1,0,0.2-0.01,0.3-0.01
				c0.1-0.12,0.21-0.25,0.34-0.37l-2.59-2.83c-2.83,2.54-3.07,5.38-1.3,7.68l0.43,0.58c-2.21,3.12-5.18,7.35-8.45,11.19h0
				l-0.33,0.38c-3.6,4.18-8.21,7.49-11.71,7.49c-3.07,0-4.9-1.92-2.59-5.95l0.48-0.86c3.22,1.34,9.27,0.72,13.01-5.76l0.72-1.25
				c1.32-2.26,1.36-4.24,0.59-5.67c0,0.02,0.01,0.05,0.01,0.07c-0.9,0.12-0.88-0.52-0.86-1.16c-0.91-0.83-2.21-1.3-3.72-1.3
				c-4.03,0-7.25,2.11-9.36,5.76l-4.84,8.3l-0.29,0.34c-3.6,4.18-7.1,7.49-9.31,7.49c-1.1,0-1.73-0.77-0.58-2.74l7.2-12.62
				c1.69-2.97,0.79-5.29-1.02-6.15c-0.5,0.2,0.18,0.89-0.83,0.67c0.16-0.34-0.33-1.64,0.28-1.64c0.17,0,0.34,0,0.51,0
				c-0.49,0-1.04,0.12-1.63,0.12c-2.69,0-5.62,2.06-8.93,6.29c1.73-3.5-0.29-5.93-2.93-5.93c-2.59,0-5.42,1.2-8.59,5.19l2.98-5.66
				h-4.99l-7.83,14.08l-0.33,0.64c-3.6,4.18-7.11,7.62-9.31,7.62c-1.1,0-1.73-1.02-0.58-2.99l8.07-14.36h-2.83
				c0.19-2-1.97-4.72-5.23-4.72c-2.69,0-6.43,2.27-8.54,5.92l-7.01,12.17c-2.11,3.7-0.62,7.14,3.41,7.14c2.02,0,4.51-1.28,6.91-3.24
				c0.24,1.92,1.78,3.27,4.32,3.27c2.03,0,4.2-1.6,6.38-3.25l-1.29,1.7h5.04l5.81-9.54c3.38-4.73,6.1-7.45,8.09-9
				c-0.39-0.32-0.71-0.95-0.26-1.3c0.38,0.25,1.1,0.26,1.14,0.77c2.77-1.81,3.66-0.79,2.3,1.57l-10.32,17.51h5.09l0.17,0
				c-0.02-0.06-0.05,0.02-0.09-0.04c0.06,0.03,0.09,0.14,0.15,0.17l5.39-9.13c9.41-13.3,13.87-12.1,11.47-7.97l-6.48,11.35
				c-2.11,3.7-0.62,7.14,3.41,7.14c2.97,0,6.26-2.27,9.42-5.34c0.24,3.11,2.52,5.37,6.52,5.37c5.67,0,11.17-4.41,15.17-9.21
				c0,0,0,0,0,0c3-2.79,4.51-5.28,8.49-10.7l0.79,0.82c0.14,0.18,0.26,0.38,0.36,0.57c-0.02-0.07-0.06-0.14-0.06-0.23
				c0.74-0.42,0.86,0.1,1.71-0.23c-0.56,0.44-0.09,0.86,0,1.4c0.38-0.57,0.86,0.42,1.14-0.23c0.41,0.2-0.42,1.35-1.14,1.4
				c0.11-1.13-1.09-1.2-1.54-1.88c0.25,0.63,0.28,1.32-0.12,2.02l-2.25,3.95c0.17-0.07,0.62-0.12,0.62-0.11c0,0.27,0,0.54,0,0.81
				c0,0.05-0.75-0.05-0.8-0.39l-2.81,4.9c-2.11,3.7-0.61,7.11,3.42,7.11c2.52,0,5.28-1.65,7.99-4.03c-0.07,2.31,1.5,4.03,4.36,4.03
				c2.97,0,6.27-2.29,9.42-5.36c0.24,3.11,2.76,5.36,6.76,5.36c3.61,0,7.2-1.8,10.4-4.34c-0.23,2.47,1.35,4.34,4.34,4.34
				c2.02,0,4.51-1.3,6.91-3.26c0.24,1.92,1.78,3.26,4.32,3.26c2.03,0,4.2-1.61,6.38-3.25l-1.29,1.7h5.04l7.44-12.76
				c4.01-5.02,7.14-6.72,8.14-6.96c0-0.1,0-1.28,0-1.28c1,0,1.15,0,1.53,0c-0.11,1-0.21,0.76-0.25,0.94
				c0.48,0.39,0.39,1.62-0.34,2.86l-6.48,11.47c-2.11,3.7-0.62,7.2,3.41,7.2c2.24,0,4.66-1.27,7.07-3.22
				c-0.27-0.09-0.56-0.11-0.84-0.02c-0.09-0.54,0.82-0.25,0.85-0.7c0.3,0.07,0.4,0.21,0.44,0.37c1.88-1.59,3.74-3.54,5.49-5.58
				C345.39,157.84,344.53,157.09,343.86,156.8z M235.86,149.96c-0.1,0.04-0.16,0.11-0.19,0.2c-0.86-0.29,0.2-0.89,0.29-1.17
				c0.2,0.04,0.26,0.2,0.27,0.4c2.91-4.47,7.61-3.57,4.72,1.46l-0.56,1.25c-1.74,2.97-4.53,3.72-5.53,3.66c0,0.01,0,0.01,0,0.02
				c0,0-0.22-0.02-0.25-0.02c-0.63-0.03-1.3-0.17-1.78-0.34L235.86,149.96z M178.07,157.67c-3.02,4.75-6,7.01-8.06,7.01
				c-1.1,0-1.73-0.77-0.58-2.74l6.96-12.14c2.69-4.66,8.02-3.46,5.57,1.05l-1,1.75c0.16,0.33,0.24,0.72,0.37,1.07
				c-0.39-0.02-0.62-0.17-0.75-0.41L178.07,157.67z M179.9,159.28c0.5,0.21,0.83,0.56,1.42,0.7c-0.1,0.31-0.5,0.37-0.57,0.7
				C180.14,160.49,179.75,160.11,179.9,159.28z M204.73,156.54c0.14,0.63,0.14,0.39,0,1.02c-0.54-0.27-0.62-0.67-0.41-1.22
				c0.29,0.02,0.58,0.03,0.61-0.2C205.28,156.26,205.06,156.6,204.73,156.54z M205.75,154.71c0.58,0.24,0.62,1.01,0.82,1.63
				C206,156.11,205.17,155.44,205.75,154.71z M211.77,148.29c-0.98-0.05-0.91-0.96-1.42-1.4c0.06-0.34,0.85-0.08,0.85-0.47
				C212.06,146.69,212.18,147.58,211.77,148.29z M226.85,162.32c-0.48,0.37-1.64-0.03-1.42-0.94
				C226.4,161.29,227.05,161.46,226.85,162.32z M257.58,155.31c0.25,0.68,0.25,0.72,0,1.4c-0.57-0.31-0.96-0.77-1.14-1.4
				C256.82,155.31,257.2,155.31,257.58,155.31z M267.25,159.28c0.25,0.18,0.64,0.25,1.14,0.23c-0.1,0.54-0.19,1.1-1.14,0.94
				C266.72,160,267.42,160.03,267.25,159.28z M279.77,162.79c-4.39,1.74-3.38-4.73-0.85-1.87c-0.6-0.51-1.26-0.05-1.71,0.23
				c0.29,0.31,0.28,0.86,0.57,1.17c0.73-0.03,1.46-0.04,1.42-0.7C279.82,161.66,279.81,162.21,279.77,162.79z M280.91,165.13
				c-0.72-0.25-1.53-1.2-0.85-1.87C280.58,163.68,281.1,164.12,280.91,165.13z M309.93,156.94c-1.05-0.58,0.69-0.81,0.85-1.17
				C311.78,156.31,309.89,156.42,309.93,156.94z M297.98,159.98c0.05-0.27,0.29-0.13,0.28,0c0.25-0.18,0.64-0.25,1.14-0.23
				c-0.16,0.21-0.86,1.03-0.29,0.47c0.4,0.08,0.02,0.41-0.28,0.47c-0.05,0.2,0.11,0.22,0.28,0.23
				C298.54,161.67,298.72,159.86,297.98,159.98z M307.47,157.67c-3.02,4.75-6,7.01-8.06,7.01c-1.1,0-1.73-0.77-0.58-2.74l6.96-12.14
				c2.69-4.66,8.02-3.46,5.57,1.05L307.47,157.67z M333.54,144.78c0.04-0.51,0.72-0.5,1.42-0.47
				C334.87,145.14,334.22,144.92,333.54,144.78z M333.54,158.11c0.33,0.2,0.76,0.31,1.42,0.23c-0.29,0.31-0.28,0.86-0.57,1.17
				c-0.42-0.12-0.72-0.35-1.14-0.47C333.22,158.63,333.61,158.56,333.54,158.11z"/>
		</g>
	</g>
	<g>
		<path fill="#233138" d="M510.22,139.12c1.63,0,2.93-1.25,2.93-2.88c0-1.63-1.3-2.93-2.93-2.93c-1.63,0-2.88,1.3-2.88,2.93
			C507.34,137.88,508.59,139.12,510.22,139.12z"/>
		<g>
			<path fill="#233138" d="M480.08,152.27c-1.09,1.43-2.22,2.88-3.22,4.29v0l-0.55,0.38c-3.6,4.18-8.31,7.49-11.82,7.49
				c-3.07,0-4.95-1.92-2.65-5.95l0.45-0.86c2.48,1.04,6.64,0.89,10.13-2.21c-0.1,0-0.21-0.01-0.32,0c0.19-0.12,0.41-0.2,0.62-0.29
				c0.92-0.87,1.79-1.94,2.55-3.27l0.72-1.25c0.04-0.07,0.07-0.15,0.11-0.22c-1.13-0.58-2.26-1.17-3.39-1.75
				c-0.12,0.57-0.37,1.22-0.8,1.97l-0.72,1.25c-2.4,4.08-5.62,3.98-7.49,3.31l3.22-5.62c2.43-4.17,6.41-4.23,5.82-1.04
				c1.2,0.36,2.41,0.84,3.61,1.41c2.06-4.26-0.47-7.38-4.34-7.38c-4.03,0-7.25,2.11-9.36,5.76l-4.84,8.3l-0.3,0.34
				c-1.82,2.16-4.03,4.08-6,5.42c1.58-4.75,1.25-12.05,4.32-18.43l-3.39-1.82c-0.12,0.44-0.75,0.44-0.83,0.9
				c-0.11-0.02-0.18-0.05-0.26-0.08c-1.29,1.79-3.13,4.39-5.22,7.17c0.27,0.41,0.15,0.93,0.07,1.79c-0.45-0.13-0.67-0.44-0.78-0.86
				c-0.76,1-1.55,2.01-2.35,3.01c0.29,0.03,0.58,0.1,0.86,0.18c-0.11,0.56-0.81,0.51-1.39,0.39c-0.53,0.66-0.68,1.3-1.68,1.93
				c0,0,0,0,0,0l-0.26,0.38c-1.82,2.16-4,4.08-5.96,5.42c1.18-3.55,1.32-8.52,2.58-13.47c-0.23,0.14-0.18,0.51-0.4,0.67
				c-1.24-0.46-1.24-1.94-1.99-2.81c0.97-0.19,1.33,0.03,2.56-0.23c-0.03,0.33,0.11,0.66,0.45,0.7c-0.08,0.55-0.98-0.27-0.98-0.23
				c0,0.39,0,0.78,0,1.17c0,0.1,0.52,0.08,0.73,0.02c0.4-1.43,0.82-2.86,1.48-4.24l-3.78-2.02c-1.13,1.55-3.02,4.22-5.22,7.18
				c0.46,0,0.49,0.28,1.01,0.23c-0.34,0.35-0.22,1.04-1.22,0.94c0-0.37,0-0.73,0-1.1c-2,2.42-3.75,5.03-5.77,7.39c0,0,0.04,0,0.04,0
				l-0.32,0.38c-1.16,1.34-2.3,2.59-3.4,3.68c0,0.72-0.31,1.63,1.04,1.1c0.24,0.66-0.4,0.61-0.28,1.17
				c-0.84-0.24-1.02-1.02-1.48-1.58c-2.03,1.89-3.84,3.12-5.18,3.12c-1.1,0-1.73-0.79-0.58-2.76l4.52-7.92
				c-0.04,0.01-0.08,0.01-0.13,0.01c0.05-0.04,0.12-0.24,0.17-0.27l3.5-6.3h-2.83c0.19-2-1.97-4.85-5.23-4.85
				c-2.69,0-6.43,2.21-8.54,5.86l-4.79,8.31c0,0-0.01,0.02-0.01,0.02l-0.34,0.4c-3.6,4.18-7.1,7.49-9.31,7.49
				c-1.1,0-1.73-0.76-0.58-2.73l4.99-8.73c1.73-3.03,0.91-4.8-0.72-6.77l-2.78-3.36c-0.27-0.34-0.44-0.7-0.49-1.05
				c-0.46-0.47-0.99-0.9-1.77-1.1c0.03-0.6,0.05-1.2,0.85-1.17c-0.47,1.03,0.28,1.3,0.98,1.52c0.11-0.36,0.34-0.72,0.71-1.07
				l-2.59-2.83c-2.83,2.54-3.07,5.38-1.3,7.68l0.05,0.07c0.16-0.21,0.47-0.34,1-0.22c-0.74,0.49-0.24,0.91-0.57,1.4
				c-0.14-0.05-0.45-0.15-0.54-0.26c-2.18,3.08-4.35,7.09-8.35,10.77v0l-0.14,0.38c-2.26,2.5-4.99,3.65-7.44,3.7l4.75-8.11
				c1.25-2.21,1.9-4.13,1.9-5.71c0-2.54-1.72-4.46-4.5-4.46c-1.2,0-2.25,0.3-3.26,0.97l6.34-11.13h-5.09l-6.34,11.11
				c0.34,0.08,0.68,0.17,0.75,0.09c0.51,0.36-0.16,1.77-1.14,1.68c-0.17-0.11-0.25-0.26-0.29-0.45l-7.1,12.25
				c-1.25,2.11-1.78,3.97-1.78,5.55c0,3.41,2.54,5.32,5.76,5.32c2.78,0,6-1.44,8.5-4.66c0.38,0.05,0.72,0.04,1.1,0.04
				c1.15,0,2.56-0.31,4-0.82c0.02-0.37,0.15-1.12,0.04-1.12c0.38,0,0.76,0,1.14,0c-0.06,0-0.04,0.42-0.01,0.66
				c1.34-0.59,2.65-1.37,3.77-2.32c-0.11-0.22-0.15-0.48-0.06-0.86c0.4,0.02,0.81,0.04,0.85-0.23c0.06,0.07-0.08,0.19-0.11,0.32
				c0.16-0.16,0.34-0.31,0.34-0.48v0c3-2.79,4.4-5.28,8.38-10.71l0.74,0.81c0.62,0.82,0.9,1.82,0.32,2.83l-0.57,1.03
				c0.18,0.12,0.37,0.24,0.57,0.35c0.15,0.69-1.41,1.15-0.56,1.64c-0.07,0.34-0.85,0.08-0.85,0.47c-0.12-0.11-0.24-0.14-0.36-0.25
				l-1.53,2.73c0.06,0,0.13,0,0.19,0c0.07,0-0.48,0.59-0.75,0.9l-0.1,0.14c-0.05,0.12-0.06,0.25,0,0.47
				c-0.09-0.04-0.15-0.09-0.21-0.13l-1.06,1.83c-2.11,3.7-0.62,7.1,3.41,7.1c2.52,0,5.28-1.65,7.98-4.03
				c-0.07,2.31,1.5,4.03,4.36,4.03c2.02,0,4.51-1.3,6.91-3.26c0.24,1.92,1.69,3.26,4.23,3.26c1.44,0,2.96-0.54,4.5-1.45
				c-0.24-0.19-0.3-0.44,0.04-0.82c0.32,0.04,0.16,0.23,0,0.23c0.21,0.48,0.59-0.37,1.35-0.32c2.42-1.74,4.84-4.24,7.03-6.86
				c0,0,0,0,0,0c3-3.26,5.41-6.77,7.19-9.12c-1.97,5.19-0.87,14.5-5.62,14.5c-1.68,0-2.33-1.82-2.33-1.82l-3.11,1.63
				c0,0,0.72,3.16,4.05,3.88c-0.07-0.66-0.72-0.84-0.6-1.65c0.87,0.17,0.84-0.4,1.71-0.23c-0.57,1.16,0.25,1.71,1.42,1.64
				c-0.03,0.13-0.07,0.24-0.11,0.34c0.13-0.01,0.26-0.02,0.4-0.04c0.05,0,0.1-0.1,0.15-0.1c5.09-0.67,10.13-5.12,13.87-9.12h-0.1
				c1.51-2,3.08-3.33,4.08-5v-0.13c0-0.39,0-0.78,0-1.17c0,0.16,0.45,0.32,0.62,0.49c0.9-1.2,1.76-2.3,2.46-3.22
				c-0.39,1.03-0.63,2.21-0.85,3.46c0.21-0.14,0.45-0.25,0.82-0.26c0.05,0.56-0.36,0.81-0.91,0.9c-0.75,4.58-1,9.67-4.02,10.31
				c0.02,0.09,0.05,0.18,0.1,0.25c-0.27,0.01-0.5-0.07-0.69-0.17c-0.02,0-0.04,0.01-0.06,0.01c-1.68,0-2.35-1.82-2.35-1.82
				l-3.12,1.63c0,0,0.57,2.49,3.03,3.55c-0.27-0.29-0.54-0.63-0.79-1.09c0.33,0.04,0.51-0.05,0.57-0.23c0.96-0.07,1,1.81,1.71,1.17
				c0.25,0.16,0.26,0.37,0.21,0.59c0.24,0.03,0.48,0.04,0.74,0.04c0.48,0,0.91-0.05,1.39-0.1c0.05,0,0.1-0.05,0.14-0.05
				c3.59-0.47,7.16-2.63,10.26-5.39c0.16,3.2,2.48,5.53,6.55,5.53c5.67,0,11.19-4.42,15.19-9.22c0,0,0,0,0,0
				c1.67-1.54,2.97-3,4.4-4.92C481.49,153,480.83,152.64,480.08,152.27z M473.24,147.45c0.67,0.34,0.53,0.49,1.42,0.23
				c-0.22,0.21-0.31,0.53-0.28,0.94c-0.8,0.19-0.74-0.33-1.42-0.23C472.92,147.97,473.3,147.89,473.24,147.45z M466.98,147.45
				c-0.27,0.73-1.62,1.33-1.99,0.23C465.98,147.87,466.08,147.34,466.98,147.45z M362.91,164.24c-1.09,0-1.84-0.66-1.87-1.87
				c-0.09,0.03-0.19,0.05-0.19,0.06c0-0.47,0-0.94,0-1.4c0,0.05,0.22,0.16,0.35,0.3c0.14-0.47,0.29-0.99,0.62-1.59l1.74-3.07
				c0.38,2.16,1.33,4.03,3.15,5.19C365.71,163.47,364.16,164.24,362.91,164.24z M368.14,159.39c-1.3-0.96-2.11-2.5-2.11-4.51
				c0-1.99,1.08-4.69,2.54-6.67c-0.07-0.28-0.03-0.65-0.03-0.98c0.36-0.05,0.46,0.11,0.67,0.19c0.99-1.13,2.09-1.9,3.12-1.9
				c1.1,0,1.87,0.82,1.87,2.16c0,0.82-0.29,1.82-0.96,2.98L368.14,159.39z M389.02,159.85c-1.06,0.09-1.47-1.06-0.85-1.64
				C388.9,158.39,389.16,158.96,389.02,159.85z M404.96,152.13c-1.03,0.54-0.01,1.04-0.57,1.64
				C403.56,153.4,403.64,151.22,404.96,152.13z M411.34,157.42c-3.02,4.75-6,7.01-8.06,7.01c-1.1,0-1.73-0.77-0.58-2.74l0.9-1.56
				c-0.11-0.01-0.22-0.03-0.35-0.04c0.28-0.31,0.77-0.46,0.85-0.94c0.02,0.01,0.03,0.02,0.04,0.03l5.52-9.63
				c2.69-4.66,8.02-3.46,5.57,1.05L411.34,157.42z M435.97,163.36c-0.02-0.37,0.14-0.89-0.28-0.94c0.08-0.82,1.06,0.59,1.14-0.23
				C437.31,162.31,436.96,163.68,435.97,163.36z M476.37,159.15c-0.3-0.87,0.6-0.76,0.85-1.17
				C477.48,157.91,477.47,159.56,476.37,159.15z"/>
			<path fill="#233138" d="M487.75,139.5c0.08,0.25,0.16,0.54,0.26,0.81c0.09-0.12,0.2-0.24,0.33-0.36l-1.62-1.77
				c-0.22,0.29-0.53,0.54-0.67,0.62c-0.71-0.38-0.16-0.79,0.14-1.21l-0.44-0.48c-1.07,0.96-1.77,1.96-2.13,2.96
				c1.35,0.25,2.7,0.52,4.06,0.82c0.03-0.07,0.05-0.14,0.08-0.21C487.52,140.22,487.45,139.72,487.75,139.5z"/>
			<path fill="#233138" d="M499.72,152.2c-0.06-0.21-0.21-0.34-0.29-0.53l-0.16,0.29C499.41,152.04,499.56,152.11,499.72,152.2z"/>
			<path fill="#233138" d="M514.16,167.5c5.67,0,11.28-4.42,15.41-9.22c-0.34-0.67-1.2-1.44-1.87-1.73l-0.34,0.38
				c-1.32,1.54-2.78,2.95-4.28,4.13c0.06,0.03,0.12,0.05,0.16,0.08c-0.1,0.08-0.23,0.1-0.37,0.09c-2.5,1.94-5.07,3.19-7.23,3.19
				c-3.07,0-4.9-1.92-2.59-5.95l0.48-0.86c3.22,1.34,9.27,0.72,13.01-5.76l0.72-1.25c2.69-4.61,0.1-8.06-3.98-8.06
				c-4.03,0-7.25,2.11-9.36,5.76l-4.64,7.96c0.11,0.01,0.21,0.02,0.32,0c-0.13,0.13-0.27,0.17-0.43,0.19l-0.09,0.16l-0.29,0.34
				c-3.6,4.18-7.1,7.49-9.31,7.49c-1.1,0-1.73-1.18-0.58-3.15l10.71-19.09h-4.99l-1.59,2.98c0.29,0.11,0.6,0.3,0.88,0.41
				c-0.3-0.09-0.61-0.13-0.91-0.22l-2.94,5.2c0.01,0.1,0,0.23-0.06,0.39c-0.06,0-0.1-0.01-0.13-0.04l-0.25,0.45
				c0.45,0.37,1.28,0.88,0.65,1.12c0.49,0.27,0.96,0.53,1.4,0.71c-0.61,0.06-1.27-0.23-1.93-0.61c-0.01,0-0.01,0-0.02,0
				c0-0.01,0-0.01,0-0.01c-0.2-0.11-0.4-0.23-0.59-0.36l-2.32,4.09l-0.01,0.12l-0.34,0.44c-3.6,4.18-7.1,7.52-9.31,7.52
				c-1.1,0-1.73-0.75-0.58-2.72l4.99-8.73c1.73-3.03,0.91-4.8-0.72-6.77l-2.78-3.36c-0.34-0.43-0.51-0.88-0.5-1.34
				c-1.34-0.3-2.7-0.59-4.09-0.89c-0.36,1.47,0,2.92,0.99,4.2l0.43,0.58c-1.34,1.89-2.96,4.19-4.76,6.56
				c0.73,0.42,1.45,0.85,2.15,1.26c1.11-1.5,2.36-3.29,4.07-5.62l0.78,0.82c0.62,0.82,0.92,1.82,0.34,2.83l-5.25,9.17
				c-2.11,3.7-0.61,7.11,3.42,7.11c2.52,0,5.28-1.65,7.99-4.03c-0.07,2.31,1.5,4.03,4.36,4.03c2.97,0,6.27-2.29,9.42-5.36
				C507.63,165.25,510.15,167.5,514.16,167.5z M525.69,161.96c-0.5,0.35-1.53-0.5-2.24-0.61
				C523.79,161.15,525.15,161.68,525.69,161.96z M525.88,148.15c1.03-0.22,0.5,1.01,0.29,1.17
				C525.5,148.97,525.73,148.75,525.88,148.15z M518.19,149.55c2.88-4.95,7.97-4.13,4.99,1.05l-0.72,1.25
				c-2.4,4.08-5.62,3.98-7.49,3.31L518.19,149.55z M514.78,152.13c0.36,0.4,0.96,0.61,0.85,1.4
				C514.61,153.67,514.77,152.84,514.78,152.13z M506.13,146.07c-0.35,0.34-1.61-0.15-2.04-0.41
				C504.55,145.22,505.42,146.09,506.13,146.07z"/>
			<path fill="#233138" d="M452.38,142.07l-0.28-0.15c-0.02,0.03-0.05,0.07-0.07,0.1C452.13,142.04,452.24,142.06,452.38,142.07z"/>
		</g>
	</g>
</g>
<path fill="#233138" d="M693.72,152.24c-4.47-2.66-9.3-4.86-14.49-7.32c-3.33,1.58-6.51,3.27-9.55,5.27H550.86v5h118.71
	c3.38,1,6.61,2.83,9.66,4.51C683.71,157.23,688.55,154.49,693.72,152.24z"/>
<path fill="#233138" d="M0,152.38c4.47,2.66,9.3,4.74,14.49,7.2c3.33-1.58,6.51-3.39,9.55-5.39h118.82v-5H24.15
	c-3.38-1-6.61-2.71-9.66-4.39C10.01,147.26,5.17,150.13,0,152.38z"/>
</svg>
