<?xml version="1.0" encoding="utf-8"?>
<!-- Generator: Adobe Illustrator 16.0.1, SVG Export Plug-In . SVG Version: 6.00 Build 0)  -->
<!DOCTYPE svg PUBLIC "-//W3C//DTD SVG 1.1//EN" "http://www.w3.org/Graphics/SVG/1.1/DTD/svg11.dtd">
<svg version="1.1" id="Layer_1" xmlns="http://www.w3.org/2000/svg" xmlns:xlink="http://www.w3.org/1999/xlink" x="0px" y="0px"
	 viewBox="0 0 118 118" enable-background="new 0 0 118 118" xml:space="preserve">
<path opacity="0.25" fill="#4C646B" d="M59.017-0.178C26.422-0.178,0,26.276,0,58.911S26.422,118,59.017,118
	c32.595,0,59.018-26.455,59.018-59.089S91.611-0.178,59.017-0.178z M90.877,59.33c-0.21-0.419-0.699-0.979-1.467-1.679
	c-0.77-0.698-2.22-1.398-4.35-2.099c-2.132-0.698-5.135-1.293-9.013-1.784c-3.878-0.488-8.997-0.734-15.354-0.734
	c-7.058,0-12.647-0.227-16.769-0.682c-4.123-0.454-7.283-1.032-9.484-1.731c-2.201-0.698-3.616-1.433-4.245-2.204
	c-0.628-0.769-0.943-1.469-0.943-2.099v8.395h28.505c4.612,0,8.925,0.141,12.944,0.42c4.017,0.28,7.527,0.98,10.532,2.098
	c3.004,1.12,5.361,2.765,7.074,4.932c1.711,2.17,2.567,5.143,2.567,8.919c0,2.938-0.488,5.509-1.467,7.713
	c-0.979,2.202-2.673,4.04-5.084,5.509c-2.409,1.469-5.658,2.57-9.746,3.304c-4.087,0.735-9.275,1.104-15.563,1.104
	c-6.287,0-11.494-0.491-15.615-1.469c-4.124-0.979-7.39-2.273-9.799-3.884c-2.411-1.607-4.087-3.479-5.031-5.612
	c-0.943-2.134-1.415-4.355-1.415-6.664c0-1.958,0.401-3.741,1.205-5.352c0.803-1.607,1.834-2.99,3.092-4.145
	c1.257-1.154,2.654-2.028,4.191-2.623c1.536-0.593,3.039-0.892,4.506-0.892c1.467,0,2.969,0.28,4.507,0.84
	c1.536,0.561,2.935,1.399,4.192,2.517c1.257,1.121,2.287,2.484,3.091,4.094c0.803,1.608,1.206,3.461,1.206,5.561
	c0,2.24-0.367,4.182-1.101,5.824c-0.733,1.645-1.694,3.042-2.883,4.196c-1.188,1.155-2.567,2.013-4.14,2.571
	c-1.571,0.562-3.196,0.84-4.873,0.84c0.279,0.07,0.698,0.141,1.258,0.21c0.488,0.07,1.134,0.121,1.939,0.157
	c0.803,0.036,1.834,0.052,3.092,0.052c1.536,0,3.108-0.349,4.716-1.05c1.606-0.697,3.056-1.659,4.349-2.886
	c1.292-1.223,2.34-2.674,3.145-4.354c0.803-1.679,1.205-3.531,1.205-5.562c0-2.167-0.542-4.145-1.624-5.929
	c-1.084-1.782-2.516-3.287-4.297-4.513c-1.782-1.222-3.878-2.167-6.289-2.833c-2.41-0.664-4.909-0.996-7.493-0.996H27.157V24.493
	h2.096c0,3.568,0.75,6.28,2.253,8.132c1.501,1.854,3.405,2.781,5.711,2.781c3.214,0,6.41-0.56,9.59-1.679
	c3.178-1.119,6.393-2.361,9.642-3.725c3.248-1.364,6.637-2.624,10.166-3.778c3.527-1.154,7.283-1.731,11.267-1.731
	c1.955,0,3.736,0.385,5.345,1.154c1.606,0.771,2.986,1.802,4.139,3.096c1.154,1.295,2.026,2.781,2.62,4.46
	c0.595,1.678,0.892,3.394,0.892,5.141V59.33z"/>
</svg>
