<?xml version="1.0" encoding="utf-8"?>
<!-- Generator: Adobe Illustrator 16.0.1, SVG Export Plug-In . SVG Version: 6.00 Build 0)  -->
<!DOCTYPE svg PUBLIC "-//W3C//DTD SVG 1.1//EN" "http://www.w3.org/Graphics/SVG/1.1/DTD/svg11.dtd">
<svg version="1.1" id="Layer_1" xmlns="http://www.w3.org/2000/svg" xmlns:xlink="http://www.w3.org/1999/xlink" x="0px" y="0px"
	 viewBox="0 0 118 118" enable-background="new 0 0 118 118" xml:space="preserve">
<path opacity="0.25" fill="#A84B3A" d="M59.016,0C26.439,0,0.031,26.368,0.031,58.895c0,32.527,26.408,58.895,58.984,58.895
	C91.593,117.79,118,91.422,118,58.895C118,26.368,91.593,0,59.016,0z M56.186,73.537V61.404c1.887-0.277,3.841-0.767,5.866-1.463
	c1.746-0.558,3.684-1.29,5.814-2.197c2.13-0.905,4.241-2.056,6.337-3.452c3.142-1.882,5.762-3.957,7.856-6.223
	c2.094-2.265,3.666-4.654,4.712-7.164h2.096v44.763v2.093H40.684v-2.093h15.502v-10.04H25.183v-2.092c0-3.277,0.4-5.943,1.204-8.001
	c0.801-2.056,1.781-3.922,2.933-5.595c1.153-1.674,2.425-3.347,3.823-5.021c1.396-1.673,2.672-3.817,3.824-6.432
	s2.129-5.873,2.933-9.778c0.801-3.904,1.204-8.89,1.204-14.956h47.765c0,5.579-0.891,10.354-2.672,14.328
	c-1.779,3.974-4.104,7.321-6.966,10.04c-2.863,2.719-6.146,4.968-9.844,6.746c-3.704,1.778-7.475,3.26-11.313,4.445
	c-3.841,1.187-7.612,2.213-11.313,3.085c-3.703,0.873-6.984,1.796-9.846,2.771c-2.865,0.977-5.185,2.109-6.966,3.399
	c-1.779,1.29-2.67,2.947-2.67,4.968H56.186z"/>
</svg>
