<?xml version="1.0" encoding="utf-8"?>
<!-- Generator: Adobe Illustrator 16.0.1, SVG Export Plug-In . SVG Version: 6.00 Build 0)  -->
<!DOCTYPE svg PUBLIC "-//W3C//DTD SVG 1.1//EN" "http://www.w3.org/Graphics/SVG/1.1/DTD/svg11.dtd">
<svg version="1.1" id="Layer_1" xmlns="http://www.w3.org/2000/svg" xmlns:xlink="http://www.w3.org/1999/xlink" x="0px" y="0px"
	 viewBox="0 0 118 118" enable-background="new 0 0 118 118" xml:space="preserve">
<path opacity="0.25" fill="#A84B3A" d="M59.017-0.003C26.422-0.003,0,26.362,0,58.886s26.422,58.889,59.017,58.889
	c32.593,0,59.017-26.365,59.017-58.889S91.61-0.003,59.017-0.003z M30.563,64.689c0.593-0.8,1.973-1.568,4.14-2.301
	c2.165-0.731,5.327-1.358,9.485-1.881c4.155-0.523,9.798-0.785,16.924-0.785c6.357,0,11.478-0.244,15.354-0.732
	c3.879-0.487,6.865-1.062,8.961-1.726c2.097-0.662,3.494-1.307,4.192-1.935s1.116-1.114,1.258-1.464v20.497
	c0,1.813-0.298,3.556-0.891,5.229c-0.595,1.674-1.468,3.189-2.62,4.549s-2.534,2.44-4.141,3.243c-1.606,0.8-3.389,1.201-5.344,1.201
	c-3.982,0-7.756-0.559-11.319-1.674c-3.563-1.113-6.987-2.352-10.271-3.712c-3.285-1.359-6.497-2.613-9.642-3.764
	s-6.288-1.726-9.432-1.726c-2.306,0-4.21,0.925-5.711,2.771c-1.504,1.849-2.253,4.55-2.253,8.104h-2.097V67.67
	c0-2.928,0.803-5.106,2.411-6.535c1.606-1.429,3.632-2.51,6.078-3.242c2.445-0.732,5.065-1.307,7.86-1.726
	c2.794-0.418,5.414-1.08,7.86-1.987c2.445-0.905,4.471-2.265,6.079-4.078c1.606-1.812,2.411-4.461,2.411-7.948
	c0-1.951-0.403-3.781-1.205-5.49c-0.804-1.708-1.853-3.172-3.145-4.393c-1.293-1.219-2.743-2.178-4.349-2.876
	c-1.608-0.696-3.181-1.045-4.716-1.045c-1.258,0-2.289,0.018-3.092,0.052c-0.805,0.036-1.45,0.088-1.938,0.157
	c-0.561,0.07-0.979,0.141-1.258,0.209c1.677,0,3.302,0.279,4.873,0.836c1.573,0.559,2.951,1.412,4.14,2.562
	c1.188,1.15,2.149,2.562,2.882,4.235s1.101,3.591,1.101,5.751c0,2.092-0.403,3.939-1.206,5.542
	c-0.805,1.604-1.833,2.964-3.092,4.079c-1.257,1.116-2.656,1.953-4.192,2.51c-1.537,0.559-3.04,0.837-4.506,0.837
	c-1.467,0-2.971-0.296-4.507-0.889c-1.537-0.591-2.935-1.464-4.191-2.615c-1.258-1.15-2.29-2.509-3.092-4.078
	c-0.805-1.568-1.206-3.362-1.206-5.386c0-2.301,0.472-4.513,1.415-6.64c0.943-2.126,2.62-3.991,5.031-5.595
	c2.41-1.604,5.676-2.893,9.799-3.87c4.122-0.975,9.327-1.464,15.615-1.464c6.288,0,11.476,0.366,15.563,1.098
	c4.088,0.732,7.336,1.831,9.747,3.294c2.41,1.464,4.104,3.294,5.083,5.49c0.978,2.196,1.467,4.758,1.467,7.686
	c0,3.765-0.855,6.711-2.566,8.837c-1.715,2.127-4.071,3.712-7.075,4.758c-3.005,1.046-6.515,1.691-10.532,1.935
	c-4.02,0.245-8.332,0.366-12.944,0.366c-6.917,0-12.279,0.298-16.087,0.889c-3.809,0.593-6.602,1.343-8.384,2.25
	c-1.781,0.906-2.83,1.865-3.144,2.875c-0.314,1.012-0.472,1.934-0.472,2.771C29.672,66.206,29.969,65.491,30.563,64.689z"/>
</svg>
