<?xml version="1.0" encoding="utf-8"?>
<!-- Generator: Adobe Illustrator 16.0.1, SVG Export Plug-In . SVG Version: 6.00 Build 0)  -->
<!DOCTYPE svg PUBLIC "-//W3C//DTD SVG 1.1//EN" "http://www.w3.org/Graphics/SVG/1.1/DTD/svg11.dtd">
<svg version="1.1" id="Layer_1" xmlns="http://www.w3.org/2000/svg" xmlns:xlink="http://www.w3.org/1999/xlink" x="0px" y="0px"
	 width="118px" height="118px" viewBox="0 0 118 118" enable-background="new 0 0 118 118" xml:space="preserve">
<path opacity="0.25" fill="#4C646B" d="M59.018-0.194C26.423-0.194,0,26.264,0,58.903C0,91.542,26.423,118,59.018,118
	c32.593,0,59.017-26.458,59.017-59.097C118.034,26.264,91.61-0.194,59.018-0.194z M90.877,45.049c0,3.359-0.961,5.93-2.882,7.714
	c-1.923,1.785-5.292,2.991-10.113,3.621c3.982,1.049,7.142,2.66,9.484,4.827c2.34,2.17,3.511,5.457,3.511,9.864
	c0,2.938-0.489,5.511-1.467,7.715c-0.98,2.203-2.673,4.04-5.084,5.509c-2.409,1.469-5.658,2.571-9.746,3.307
	c-4.088,0.733-9.274,1.102-15.562,1.102c-6.289,0-11.495-0.491-15.616-1.47c-4.124-0.979-7.389-2.272-9.799-3.882
	c-2.411-1.609-4.087-3.48-5.031-5.615c-0.942-2.133-1.414-4.355-1.414-6.665c0-1.958,0.401-3.74,1.205-5.352
	c0.803-1.607,1.834-2.991,3.092-4.145c1.257-1.155,2.654-2.029,4.192-2.624c1.536-0.594,3.039-0.892,4.506-0.892
	s2.969,0.281,4.507,0.84c1.536,0.561,2.935,1.4,4.192,2.518c1.258,1.12,2.288,2.484,3.092,4.093c0.803,1.61,1.206,3.463,1.206,5.562
	c0,2.241-0.367,4.182-1.101,5.826c-0.733,1.644-1.695,3.042-2.883,4.198c-1.188,1.152-2.567,2.011-4.139,2.569
	c-1.572,0.561-3.196,0.84-4.874,0.84c0.279,0.07,0.698,0.141,1.258,0.21c0.488,0.07,1.134,0.123,1.938,0.158
	c0.803,0.035,1.834,0.053,3.092,0.053c1.536,0,3.108-0.351,4.716-1.051c1.606-0.698,3.056-1.66,4.349-2.886
	c1.292-1.223,2.34-2.676,3.144-4.354c0.803-1.68,1.206-3.533,1.206-5.563c0-2.377-0.419-4.389-1.258-6.034
	c-0.838-1.642-1.939-2.99-3.302-4.04c-1.362-1.049-2.917-1.853-4.664-2.413c-1.747-0.56-3.563-1.013-5.45-1.365v-2.099h15.092
	c6.916,0,12.262-0.297,16.035-0.892c3.771-0.593,6.549-1.346,8.331-2.256c1.782-0.908,2.846-1.871,3.196-2.886
	c0.35-1.013,0.524-1.942,0.524-2.781c0,0.629-0.28,1.364-0.839,2.204c-0.561,0.839-1.8,1.626-3.721,2.361
	c-1.922,0.734-4.716,1.348-8.384,1.836c-3.669,0.49-8.577,0.735-14.725,0.735H45.183c-3.914,0-7.021,0.228-9.327,0.682
	c-2.306,0.456-4.087,0.997-5.345,1.626c-1.257,0.63-2.114,1.278-2.568,1.942c-0.455,0.666-0.717,1.207-0.786,1.626V38.333
	c0-1.748,0.297-3.463,0.891-5.142c0.592-1.679,1.467-3.165,2.62-4.459c1.152-1.294,2.515-2.326,4.087-3.096
	c1.572-0.77,3.37-1.154,5.397-1.154c3.983,0,7.756,0.577,11.319,1.731c3.563,1.154,7.003,2.414,10.324,3.778
	c3.317,1.365,6.565,2.607,9.746,3.726c3.179,1.12,6.409,1.679,9.694,1.679c2.307,0,4.141-0.926,5.502-2.781
	c1.362-1.853,2.045-4.566,2.045-8.133h2.095V45.049z"/>
</svg>
