<?xml version="1.0" encoding="utf-8"?>
<!-- Generator: Adobe Illustrator 16.0.1, SVG Export Plug-In . SVG Version: 6.00 Build 0)  -->
<!DOCTYPE svg PUBLIC "-//W3C//DTD SVG 1.1//EN" "http://www.w3.org/Graphics/SVG/1.1/DTD/svg11.dtd">
<svg version="1.1" id="Layer_1" xmlns="http://www.w3.org/2000/svg" xmlns:xlink="http://www.w3.org/1999/xlink" x="0px" y="0px"
	 viewBox="0 0 118 118" enable-background="new 0 0 118 118" xml:space="preserve">
<g opacity="0.25">
	<path fill="#A84B3A" d="M59.018,0C26.423,0,0,26.372,0,58.904c0,32.531,26.423,58.903,59.018,58.903
		c32.593,0,59.017-26.372,59.017-58.903C118.034,26.372,91.61,0,59.018,0z M89.41,76.268c-0.98,2.65-2.673,4.883-5.084,6.694
		c-2.409,1.814-5.658,3.208-9.746,4.184c-4.088,0.977-9.274,1.465-15.562,1.465c-5.869,0-10.831-0.611-14.882-1.83
		c-4.053-1.22-7.337-3.139-9.852-5.754c-2.515-2.615-4.333-5.963-5.45-10.041c-1.118-4.08-1.677-8.944-1.677-14.592
		c0-9.833,2.636-17.59,7.912-23.274c5.274-5.683,13.258-8.525,23.948-8.525c5.309,0,9.851,0.333,13.624,0.994
		c3.773,0.664,6.864,1.639,9.275,2.929c2.409,1.292,4.155,2.876,5.24,4.76c1.081,1.883,1.625,4.01,1.625,6.381
		c0,1.395-0.299,2.719-0.892,3.974c-0.595,1.255-1.381,2.354-2.358,3.295c-0.979,0.941-2.132,1.709-3.459,2.301
		c-1.328,0.593-2.725,0.889-4.191,0.889c-1.399,0-2.726-0.296-3.983-0.889c-1.257-0.591-2.357-1.36-3.301-2.301
		c-0.942-0.941-1.712-2.04-2.306-3.295c-0.595-1.255-0.891-2.579-0.891-3.974c0-2.511,0.733-4.724,2.2-6.643
		c1.469-1.917,3.669-3.19,6.604-3.818h-2.935c-10.341,0-15.511,7.392-15.511,22.175c0.487-0.209,1.258-0.418,2.306-0.627
		c0.838-0.139,1.991-0.278,3.458-0.419c1.468-0.139,3.318-0.209,5.554-0.209c2.585,0,5.188,0.314,7.809,0.942
		c2.62,0.627,4.959,1.621,7.022,2.981c2.06,1.359,3.736,3.121,5.029,5.282c1.293,2.162,1.939,4.811,1.939,7.95
		C90.877,70.619,90.388,73.618,89.41,76.268z"/>
	<rect x="57.76" y="53.882" fill="#A84B3A" width="2.096" height="32.635"/>
</g>
</svg>
