<?xml version="1.0" encoding="utf-8"?>
<!-- Generator: Adobe Illustrator 16.0.1, SVG Export Plug-In . SVG Version: 6.00 Build 0)  -->
<!DOCTYPE svg PUBLIC "-//W3C//DTD SVG 1.1//EN" "http://www.w3.org/Graphics/SVG/1.1/DTD/svg11.dtd">
<svg version="1.1" id="Layer_1" xmlns="http://www.w3.org/2000/svg" xmlns:xlink="http://www.w3.org/1999/xlink" x="0px" y="0px"
	viewBox="0 0 38 47" enable-background="new 0 0 38 47" xml:space="preserve">
<path fill="#333333" d="M38,14.061c0-1.57-1.973-3.454-5.19-6.398l-0.411-0.378c-0.364-0.334-0.733-0.673-1.096-1.017
	c-0.401-0.372-0.807-0.755-1.205-1.134l-0.278-0.265C26.65,1.85,24.624,0,22.891,0H6.715C2.843,0,0,2.919,0,6.508v33.983
	C0,44.079,2.843,47,6.715,47h24.262C34.85,47,38,44.079,38,40.491V14.061z M36,40.491C36,43.149,33.795,45,30.978,45H6.715
	C3.899,45,2,43.149,2,40.491V6.508c0-2.658,2.096-4.66,4.911-4.66L21.506,2c0.001,0-0.026,0-0.026,0
	c0.084,0,0.677-0.149,0.761-0.131C24.492,2.405,25,4.621,25,6.356v0.063v5.752C25,12.638,24.384,12,24.91,12h6.067
	C32.887,12,36,13.016,36,15.948V40.491z"/>
<path fill="none" stroke="#333333" stroke-width="0.9995" stroke-miterlimit="10" d="M29.449,30.209
	c0-4.366-25.083,4.298-20.291,6.725c3.845,1.944,13.1-19.76,8.414-19.76c-4.513,0,2.901,14.183,9.705,14.183
	C28.949,31.356,29.449,31.077,29.449,30.209z"/>
</svg>
