<?xml version="1.0" encoding="utf-8"?>
<!-- Generator: Adobe Illustrator 16.0.1, SVG Export Plug-In . SVG Version: 6.00 Build 0)  -->
<!DOCTYPE svg PUBLIC "-//W3C//DTD SVG 1.1//EN" "http://www.w3.org/Graphics/SVG/1.1/DTD/svg11.dtd">
<svg version="1.1" id="Layer_1" xmlns="http://www.w3.org/2000/svg" xmlns:xlink="http://www.w3.org/1999/xlink" x="0px" y="0px"
	 enable-background="new 0 0 118 118" xml:space="preserve">
<path opacity="0.25" fill="#4C646B" d="M59,0C26.415,0,0,26.415,0,59c0,32.584,26.415,59,59,59c32.584,0,59-26.415,59-59
	C118,26.415,91.585,0,59,0z M90.852,84.842H75.344H42.656H27.149v-2.096h15.506V39.161c-4.191,0.838-8.662,1.257-13.41,1.257h-2.096
	v-1.676h2.096c5.726,0,11.314-0.838,16.763-2.515c2.515-0.838,5.867-2.096,10.058-3.772c6.286-2.934,11.874-6.845,16.764-11.734
	h2.513v62.025h15.508V84.842z"/>
</svg>
